G04*
G04 #@! TF.GenerationSoftware,Altium Limited,Altium Designer,24.8.2 (39)*
G04*
G04 Layer_Color=8388736*
%FSLAX44Y44*%
%MOMM*%
G71*
G04*
G04 #@! TF.SameCoordinates,DE467F84-66AF-4C6A-BC95-973404F0CDF1*
G04*
G04*
G04 #@! TF.FilePolarity,Negative*
G04*
G01*
G75*
%ADD23R,1.2954X1.5494*%
%ADD36R,0.8000X0.5500*%
%ADD39R,1.3061X1.0582*%
%ADD40R,0.8300X0.6300*%
%ADD41R,1.1938X0.9906*%
%ADD42C,2.1500*%
%ADD43R,0.8500X1.1000*%
%ADD44R,0.4500X1.3500*%
%ADD45R,1.3500X0.4500*%
%ADD46R,1.1500X1.1000*%
%ADD47R,1.5800X1.9100*%
G04:AMPARAMS|DCode=48|XSize=1.62mm|YSize=0.63mm|CornerRadius=0.135mm|HoleSize=0mm|Usage=FLASHONLY|Rotation=0.000|XOffset=0mm|YOffset=0mm|HoleType=Round|Shape=RoundedRectangle|*
%AMROUNDEDRECTD48*
21,1,1.6200,0.3600,0,0,0.0*
21,1,1.3500,0.6300,0,0,0.0*
1,1,0.2700,0.6750,-0.1800*
1,1,0.2700,-0.6750,-0.1800*
1,1,0.2700,-0.6750,0.1800*
1,1,0.2700,0.6750,0.1800*
%
%ADD48ROUNDEDRECTD48*%
G04:AMPARAMS|DCode=49|XSize=1.31mm|YSize=0.69mm|CornerRadius=0.1238mm|HoleSize=0mm|Usage=FLASHONLY|Rotation=0.000|XOffset=0mm|YOffset=0mm|HoleType=Round|Shape=RoundedRectangle|*
%AMROUNDEDRECTD49*
21,1,1.3100,0.4425,0,0,0.0*
21,1,1.0625,0.6900,0,0,0.0*
1,1,0.2475,0.5313,-0.2213*
1,1,0.2475,-0.5313,-0.2213*
1,1,0.2475,-0.5313,0.2213*
1,1,0.2475,0.5313,0.2213*
%
%ADD49ROUNDEDRECTD49*%
%ADD50R,1.1000X1.1500*%
%ADD51R,2.3800X1.9500*%
%ADD52R,0.7500X1.2500*%
%ADD53R,1.7502X1.4200*%
%ADD54R,1.3800X1.9500*%
%ADD55R,0.9500X0.9500*%
%ADD56R,1.1000X0.8500*%
%ADD57C,4.1500*%
%ADD58C,1.2700*%
%ADD59C,1.7500*%
%ADD60C,1.5780*%
%ADD61R,1.5780X1.5780*%
%ADD62C,3.4660*%
%ADD63R,1.5700X1.5700*%
%ADD64C,1.5700*%
%ADD65C,0.6000*%
%ADD66C,0.7500*%
%ADD67C,1.4200*%
%ADD68C,0.7000*%
D23*
X60613Y570775D02*
D03*
X15613D02*
D03*
Y491275D02*
D03*
X60613D02*
D03*
X135613D02*
D03*
X90613D02*
D03*
Y570775D02*
D03*
X135613D02*
D03*
X210613Y491275D02*
D03*
X165613D02*
D03*
Y570775D02*
D03*
X210613D02*
D03*
X285613Y491275D02*
D03*
X240613D02*
D03*
Y570775D02*
D03*
X285613D02*
D03*
D36*
X150000Y138500D02*
D03*
Y119500D02*
D03*
X126000D02*
D03*
Y129000D02*
D03*
Y138500D02*
D03*
D39*
X25239Y198000D02*
D03*
X40761D02*
D03*
D40*
X114000Y178850D02*
D03*
Y201150D02*
D03*
D41*
X428500Y450500D02*
D03*
X411500D02*
D03*
Y463500D02*
D03*
X428500D02*
D03*
D42*
X283439Y363800D02*
D03*
X283000Y387000D02*
D03*
X460000Y466906D02*
D03*
Y344000D02*
D03*
Y225000D02*
D03*
Y121000D02*
D03*
X540000Y568000D02*
D03*
X538849Y397670D02*
D03*
Y252670D02*
D03*
X538628Y114926D02*
D03*
X152000Y181000D02*
D03*
D43*
X240000Y291750D02*
D03*
Y308250D02*
D03*
X222000Y291750D02*
D03*
Y308250D02*
D03*
D44*
X389730Y418800D02*
D03*
X384730D02*
D03*
X379730D02*
D03*
X374730D02*
D03*
X369730D02*
D03*
X364730D02*
D03*
X359730D02*
D03*
X354730D02*
D03*
X349730D02*
D03*
X344730D02*
D03*
X339730D02*
D03*
X334730D02*
D03*
Y333800D02*
D03*
X339730D02*
D03*
X344730D02*
D03*
X349730D02*
D03*
X354730D02*
D03*
X359730D02*
D03*
X364730D02*
D03*
X369730D02*
D03*
X374730D02*
D03*
X379730D02*
D03*
X384730D02*
D03*
X389730D02*
D03*
D45*
X319730Y403800D02*
D03*
Y398800D02*
D03*
Y393800D02*
D03*
Y388800D02*
D03*
Y383800D02*
D03*
Y378800D02*
D03*
Y373800D02*
D03*
Y368800D02*
D03*
Y363800D02*
D03*
Y358800D02*
D03*
Y353800D02*
D03*
Y348800D02*
D03*
X404730D02*
D03*
Y353800D02*
D03*
Y358800D02*
D03*
Y363800D02*
D03*
Y368800D02*
D03*
Y373800D02*
D03*
Y378800D02*
D03*
Y383800D02*
D03*
Y388800D02*
D03*
Y393800D02*
D03*
Y398800D02*
D03*
Y403800D02*
D03*
D46*
X429000Y492000D02*
D03*
X413000D02*
D03*
X691849Y535943D02*
D03*
X675849D02*
D03*
X691628Y98198D02*
D03*
X675628D02*
D03*
X528068Y67562D02*
D03*
X544067D02*
D03*
X675628Y80255D02*
D03*
X691628D02*
D03*
X527704Y91562D02*
D03*
X543704D02*
D03*
X561628Y108000D02*
D03*
X577628D02*
D03*
X578068Y33138D02*
D03*
X562068D02*
D03*
X608068Y124562D02*
D03*
X624067D02*
D03*
X562068Y67562D02*
D03*
X578068D02*
D03*
X562068Y51138D02*
D03*
X578068D02*
D03*
X577628Y124000D02*
D03*
X561628D02*
D03*
X577849Y416745D02*
D03*
X561849D02*
D03*
X675849Y518000D02*
D03*
X691849D02*
D03*
X528289Y350307D02*
D03*
X544289D02*
D03*
X578289Y315882D02*
D03*
X562289D02*
D03*
X561849Y390745D02*
D03*
X577849D02*
D03*
X675849Y363000D02*
D03*
X691849D02*
D03*
Y380943D02*
D03*
X675849D02*
D03*
X527925Y374307D02*
D03*
X543925D02*
D03*
X527925Y529306D02*
D03*
X543925D02*
D03*
X561849Y545745D02*
D03*
X577849D02*
D03*
X528289Y505307D02*
D03*
X544289D02*
D03*
X691849Y218000D02*
D03*
X675849D02*
D03*
Y235943D02*
D03*
X691849D02*
D03*
X577849Y245745D02*
D03*
X561849D02*
D03*
X578289Y470882D02*
D03*
X562289D02*
D03*
Y170882D02*
D03*
X578289D02*
D03*
X543925Y229307D02*
D03*
X527925D02*
D03*
X544289Y205307D02*
D03*
X528289D02*
D03*
X608289Y407307D02*
D03*
X624289D02*
D03*
X577849Y561745D02*
D03*
X561849D02*
D03*
X608289Y562307D02*
D03*
X624289D02*
D03*
X562289Y350307D02*
D03*
X578289D02*
D03*
X562289Y333882D02*
D03*
X578289D02*
D03*
Y205307D02*
D03*
X562289D02*
D03*
Y505307D02*
D03*
X578289D02*
D03*
X562289Y488882D02*
D03*
X578289D02*
D03*
Y188882D02*
D03*
X562289D02*
D03*
X561849Y261745D02*
D03*
X577849D02*
D03*
X624289Y262307D02*
D03*
X608289D02*
D03*
X104000Y247000D02*
D03*
X120000D02*
D03*
X103000Y265000D02*
D03*
X119000D02*
D03*
X119000Y229000D02*
D03*
X103000D02*
D03*
X238000Y357000D02*
D03*
Y372158D02*
D03*
X222000Y357000D02*
D03*
Y372158D02*
D03*
X238000Y391000D02*
D03*
X222000D02*
D03*
X223000Y337000D02*
D03*
X239000D02*
D03*
D47*
X628628Y95000D02*
D03*
X628849Y232745D02*
D03*
Y377745D02*
D03*
Y532744D02*
D03*
D48*
X650128Y104750D02*
D03*
Y98250D02*
D03*
Y91750D02*
D03*
Y85250D02*
D03*
X607128D02*
D03*
Y91750D02*
D03*
Y98250D02*
D03*
Y104750D02*
D03*
X650349Y242495D02*
D03*
Y235995D02*
D03*
Y229495D02*
D03*
Y222995D02*
D03*
X607349D02*
D03*
Y229495D02*
D03*
Y235995D02*
D03*
Y242495D02*
D03*
X650349Y387495D02*
D03*
Y380995D02*
D03*
Y374495D02*
D03*
Y367995D02*
D03*
X607349D02*
D03*
Y374495D02*
D03*
Y380995D02*
D03*
Y387495D02*
D03*
X650349Y542495D02*
D03*
Y535994D02*
D03*
Y529495D02*
D03*
Y522994D02*
D03*
X607349D02*
D03*
Y529495D02*
D03*
Y535994D02*
D03*
Y542495D02*
D03*
D49*
X672450Y493500D02*
D03*
Y484000D02*
D03*
Y474500D02*
D03*
X697550D02*
D03*
Y493500D02*
D03*
X697329Y55756D02*
D03*
Y36755D02*
D03*
X672229D02*
D03*
Y46255D02*
D03*
Y55756D02*
D03*
X697550Y338500D02*
D03*
Y319500D02*
D03*
X672450D02*
D03*
Y329000D02*
D03*
Y338500D02*
D03*
X697550Y193500D02*
D03*
Y174500D02*
D03*
X672450D02*
D03*
Y184000D02*
D03*
Y193500D02*
D03*
X81550Y261500D02*
D03*
Y242500D02*
D03*
X56450D02*
D03*
Y252000D02*
D03*
Y261500D02*
D03*
D50*
X432000Y283000D02*
D03*
Y299000D02*
D03*
X299000Y297000D02*
D03*
Y281000D02*
D03*
X67000Y198000D02*
D03*
Y182000D02*
D03*
X179000Y269000D02*
D03*
Y253000D02*
D03*
X163000Y269000D02*
D03*
X171000Y121000D02*
D03*
Y137000D02*
D03*
X92000Y119000D02*
D03*
Y135000D02*
D03*
X257000Y383000D02*
D03*
Y399000D02*
D03*
X390000Y453000D02*
D03*
Y469000D02*
D03*
X320000Y477000D02*
D03*
Y493000D02*
D03*
X338000Y477000D02*
D03*
Y493000D02*
D03*
X71000Y119300D02*
D03*
Y135300D02*
D03*
D51*
X354730Y297600D02*
D03*
Y268400D02*
D03*
D52*
X200500Y353500D02*
D03*
X181500D02*
D03*
Y378500D02*
D03*
X191000D02*
D03*
X200500D02*
D03*
D53*
X647779Y60368D02*
D03*
Y40048D02*
D03*
X648000Y341717D02*
D03*
Y321397D02*
D03*
X649306Y175390D02*
D03*
Y195710D02*
D03*
Y476397D02*
D03*
Y496717D02*
D03*
D54*
X323000Y267800D02*
D03*
Y294000D02*
D03*
X90000Y177900D02*
D03*
Y204100D02*
D03*
X408000Y298100D02*
D03*
Y271900D02*
D03*
D55*
X320000Y508500D02*
D03*
Y523500D02*
D03*
X338000Y522500D02*
D03*
Y507500D02*
D03*
D56*
X58250Y455000D02*
D03*
X41750D02*
D03*
D57*
X30000Y40000D02*
D03*
X500000D02*
D03*
Y560000D02*
D03*
D58*
X449600Y571000D02*
D03*
X424200D02*
D03*
X398800D02*
D03*
X373400D02*
D03*
X348000D02*
D03*
X322600D02*
D03*
D59*
X760000Y25000D02*
D03*
Y50000D02*
D03*
Y175000D02*
D03*
Y200000D02*
D03*
Y325000D02*
D03*
Y350000D02*
D03*
Y475000D02*
D03*
Y500000D02*
D03*
Y100000D02*
D03*
Y125000D02*
D03*
Y250000D02*
D03*
Y275000D02*
D03*
Y400000D02*
D03*
Y425000D02*
D03*
Y550000D02*
D03*
Y575000D02*
D03*
D60*
X150000Y393700D02*
D03*
X130000D02*
D03*
Y368700D02*
D03*
D61*
X150000D02*
D03*
D62*
X102900Y441400D02*
D03*
Y321000D02*
D03*
D63*
X24000Y152700D02*
D03*
D64*
Y127300D02*
D03*
D65*
X229000Y492000D02*
D03*
X81000Y490000D02*
D03*
X241000Y588000D02*
D03*
X286000Y506000D02*
D03*
X285613Y523500D02*
D03*
X212000Y513000D02*
D03*
X211000Y530000D02*
D03*
X475000Y320000D02*
D03*
X182000Y495820D02*
D03*
D66*
X361055Y345420D02*
D03*
X253000Y337000D02*
D03*
X211000Y292000D02*
D03*
X344444Y455000D02*
D03*
X447000Y141000D02*
D03*
X434857Y222441D02*
D03*
X552516Y52993D02*
D03*
X460000Y105000D02*
D03*
X566279Y160000D02*
D03*
X420000Y381000D02*
D03*
X473888Y405000D02*
D03*
X475000Y463000D02*
D03*
X477000Y588000D02*
D03*
X454000Y320000D02*
D03*
X550000Y314000D02*
D03*
X368629Y345682D02*
D03*
X265000Y406452D02*
D03*
X636000Y457000D02*
D03*
X330000Y315000D02*
D03*
X277000Y36000D02*
D03*
X238286Y406000D02*
D03*
X587000Y427000D02*
D03*
X684000Y476434D02*
D03*
X713000Y484000D02*
D03*
X662579Y489216D02*
D03*
X663865Y535994D02*
D03*
X662579Y334216D02*
D03*
X719000Y329000D02*
D03*
X718000Y182000D02*
D03*
X592779Y25286D02*
D03*
X647779D02*
D03*
X695000Y15000D02*
D03*
X685000Y38689D02*
D03*
X662357Y51471D02*
D03*
X663312Y98195D02*
D03*
X662579Y189216D02*
D03*
X257000Y440367D02*
D03*
X266000D02*
D03*
X274895Y440158D02*
D03*
X247680Y439720D02*
D03*
X359444Y430000D02*
D03*
X420000Y396000D02*
D03*
Y388730D02*
D03*
Y403800D02*
D03*
X385016Y305000D02*
D03*
X339730Y345000D02*
D03*
X47571Y242500D02*
D03*
X421000Y276000D02*
D03*
X289134Y277000D02*
D03*
X639000Y159266D02*
D03*
X408224Y311876D02*
D03*
X303352Y367066D02*
D03*
X191000Y389000D02*
D03*
X202000Y345000D02*
D03*
X391000Y359000D02*
D03*
X299000Y79000D02*
D03*
X712000Y46000D02*
D03*
X578295Y137000D02*
D03*
X683500Y174000D02*
D03*
X524000Y387750D02*
D03*
X549484Y386713D02*
D03*
X578516Y278638D02*
D03*
X641000Y301000D02*
D03*
X683864Y324018D02*
D03*
X360000Y322000D02*
D03*
X380000Y469000D02*
D03*
X701934Y368250D02*
D03*
X700000Y223250D02*
D03*
X699279Y85506D02*
D03*
X514779Y103256D02*
D03*
X550279Y103969D02*
D03*
X701273Y523250D02*
D03*
X664000Y237745D02*
D03*
X663842Y380943D02*
D03*
X545684Y488882D02*
D03*
X524000Y242000D02*
D03*
X550500Y541713D02*
D03*
X595000Y555000D02*
D03*
X524000Y541713D02*
D03*
X633849Y562307D02*
D03*
X549000Y188882D02*
D03*
X550500Y241713D02*
D03*
X549000Y332000D02*
D03*
X179000Y511000D02*
D03*
X66000Y228000D02*
D03*
X133000Y267000D02*
D03*
X41000Y468000D02*
D03*
X178000Y451000D02*
D03*
X303416Y356970D02*
D03*
X327000Y334000D02*
D03*
X308000Y470000D02*
D03*
X158000Y522000D02*
D03*
X314000Y440000D02*
D03*
X302000Y441000D02*
D03*
X294000D02*
D03*
X285000D02*
D03*
X390000Y435000D02*
D03*
D67*
X193000Y269000D02*
D03*
X180000Y284000D02*
D03*
D68*
X628628Y57088D02*
D03*
X624628Y51088D02*
D03*
X632628D02*
D03*
Y63088D02*
D03*
X624628D02*
D03*
X628849Y194833D02*
D03*
X624849Y188833D02*
D03*
X632849D02*
D03*
Y200833D02*
D03*
X624849D02*
D03*
X628849Y339833D02*
D03*
X624849Y333833D02*
D03*
X632849D02*
D03*
Y345833D02*
D03*
X624849D02*
D03*
X628849Y494833D02*
D03*
X624849Y488833D02*
D03*
X632849D02*
D03*
Y500833D02*
D03*
X624849D02*
D03*
X628628Y95000D02*
D03*
X624628Y101000D02*
D03*
X632628D02*
D03*
Y89000D02*
D03*
X624628D02*
D03*
X628849Y232745D02*
D03*
X624849Y238745D02*
D03*
X632849D02*
D03*
Y226745D02*
D03*
X624849D02*
D03*
X628849Y377745D02*
D03*
X624849Y383745D02*
D03*
X632849D02*
D03*
Y371745D02*
D03*
X624849D02*
D03*
X628849Y532744D02*
D03*
X624849Y538745D02*
D03*
X632849D02*
D03*
Y526744D02*
D03*
X624849D02*
D03*
M02*
