G04*
G04 #@! TF.GenerationSoftware,Altium Limited,Altium Designer,24.8.2 (39)*
G04*
G04 Layer_Color=8421504*
%FSLAX44Y44*%
%MOMM*%
G71*
G04*
G04 #@! TF.SameCoordinates,DE467F84-66AF-4C6A-BC95-973404F0CDF1*
G04*
G04*
G04 #@! TF.FilePolarity,Positive*
G04*
G01*
G75*
%ADD23R,1.2954X1.5494*%
%ADD24C,2.0000*%
%ADD25R,0.7000X0.9500*%
%ADD26R,0.3000X1.2000*%
%ADD27R,1.2000X0.3000*%
%ADD28R,1.0000X0.9500*%
G04:AMPARAMS|DCode=29|XSize=1.47mm|YSize=0.48mm|CornerRadius=0.06mm|HoleSize=0mm|Usage=FLASHONLY|Rotation=0.000|XOffset=0mm|YOffset=0mm|HoleType=Round|Shape=RoundedRectangle|*
%AMROUNDEDRECTD29*
21,1,1.4700,0.3600,0,0,0.0*
21,1,1.3500,0.4800,0,0,0.0*
1,1,0.1200,0.6750,-0.1800*
1,1,0.1200,-0.6750,-0.1800*
1,1,0.1200,-0.6750,0.1800*
1,1,0.1200,0.6750,0.1800*
%
%ADD29ROUNDEDRECTD29*%
G04:AMPARAMS|DCode=30|XSize=1.21mm|YSize=0.59mm|CornerRadius=0.0738mm|HoleSize=0mm|Usage=FLASHONLY|Rotation=0.000|XOffset=0mm|YOffset=0mm|HoleType=Round|Shape=RoundedRectangle|*
%AMROUNDEDRECTD30*
21,1,1.2100,0.4425,0,0,0.0*
21,1,1.0625,0.5900,0,0,0.0*
1,1,0.1475,0.5313,-0.2213*
1,1,0.1475,-0.5313,-0.2213*
1,1,0.1475,-0.5313,0.2213*
1,1,0.1475,0.5313,0.2213*
%
%ADD30ROUNDEDRECTD30*%
%ADD31R,0.9500X1.0000*%
%ADD32R,2.2300X1.8000*%
%ADD33R,0.6000X1.1000*%
%ADD34R,1.6002X1.2700*%
%ADD35R,1.2300X1.8000*%
%ADD36R,0.8000X0.5500*%
%ADD37R,0.8000X0.8000*%
%ADD38R,0.9500X0.7000*%
%ADD39R,1.3061X1.0582*%
%ADD40R,0.8300X0.6300*%
%ADD41R,1.1938X0.9906*%
G36*
X633478Y87750D02*
X623778D01*
Y94250D01*
X633478D01*
Y87750D01*
D02*
G37*
G36*
Y95750D02*
X623778D01*
Y102250D01*
X633478D01*
Y95750D01*
D02*
G37*
G36*
X633699Y225495D02*
X623999D01*
Y231995D01*
X633699D01*
Y225495D01*
D02*
G37*
G36*
Y233495D02*
X623999D01*
Y239995D01*
X633699D01*
Y233495D01*
D02*
G37*
G36*
Y370495D02*
X623999D01*
Y376995D01*
X633699D01*
Y370495D01*
D02*
G37*
G36*
Y378495D02*
X623999D01*
Y384995D01*
X633699D01*
Y378495D01*
D02*
G37*
G36*
Y525494D02*
X623999D01*
Y531995D01*
X633699D01*
Y525494D01*
D02*
G37*
G36*
Y533494D02*
X623999D01*
Y539995D01*
X633699D01*
Y533494D01*
D02*
G37*
D23*
X60613Y570775D02*
D03*
X15613D02*
D03*
Y491275D02*
D03*
X60613D02*
D03*
X135613D02*
D03*
X90613D02*
D03*
Y570775D02*
D03*
X135613D02*
D03*
X210613Y491275D02*
D03*
X165613D02*
D03*
Y570775D02*
D03*
X210613D02*
D03*
X285613Y491275D02*
D03*
X240613D02*
D03*
Y570775D02*
D03*
X285613D02*
D03*
D24*
X283439Y363800D02*
D03*
X283000Y387000D02*
D03*
X460000Y466906D02*
D03*
Y344000D02*
D03*
Y225000D02*
D03*
Y121000D02*
D03*
X540000Y568000D02*
D03*
X538849Y397670D02*
D03*
Y252670D02*
D03*
X538628Y114926D02*
D03*
X152000Y181000D02*
D03*
D25*
X240000Y291750D02*
D03*
Y308250D02*
D03*
X222000Y291750D02*
D03*
Y308250D02*
D03*
D26*
X389730Y418800D02*
D03*
X384730D02*
D03*
X379730D02*
D03*
X374730D02*
D03*
X369730D02*
D03*
X364730D02*
D03*
X359730D02*
D03*
X354730D02*
D03*
X349730D02*
D03*
X344730D02*
D03*
X339730D02*
D03*
X334730D02*
D03*
Y333800D02*
D03*
X339730D02*
D03*
X344730D02*
D03*
X349730D02*
D03*
X354730D02*
D03*
X359730D02*
D03*
X364730D02*
D03*
X369730D02*
D03*
X374730D02*
D03*
X379730D02*
D03*
X384730D02*
D03*
X389730D02*
D03*
D27*
X319730Y403800D02*
D03*
Y398800D02*
D03*
Y393800D02*
D03*
Y388800D02*
D03*
Y383800D02*
D03*
Y378800D02*
D03*
Y373800D02*
D03*
Y368800D02*
D03*
Y363800D02*
D03*
Y358800D02*
D03*
Y353800D02*
D03*
Y348800D02*
D03*
X404730D02*
D03*
Y353800D02*
D03*
Y358800D02*
D03*
Y363800D02*
D03*
Y368800D02*
D03*
Y373800D02*
D03*
Y378800D02*
D03*
Y383800D02*
D03*
Y388800D02*
D03*
Y393800D02*
D03*
Y398800D02*
D03*
Y403800D02*
D03*
D28*
X429000Y492000D02*
D03*
X413000D02*
D03*
X691849Y535943D02*
D03*
X675849D02*
D03*
X691628Y98198D02*
D03*
X675628D02*
D03*
X528068Y67562D02*
D03*
X544067D02*
D03*
X675628Y80255D02*
D03*
X691628D02*
D03*
X527704Y91562D02*
D03*
X543704D02*
D03*
X561628Y108000D02*
D03*
X577628D02*
D03*
X578068Y33138D02*
D03*
X562068D02*
D03*
X608068Y124562D02*
D03*
X624067D02*
D03*
X562068Y67562D02*
D03*
X578068D02*
D03*
X562068Y51138D02*
D03*
X578068D02*
D03*
X577628Y124000D02*
D03*
X561628D02*
D03*
X577849Y416745D02*
D03*
X561849D02*
D03*
X675849Y518000D02*
D03*
X691849D02*
D03*
X528289Y350307D02*
D03*
X544289D02*
D03*
X578289Y315882D02*
D03*
X562289D02*
D03*
X561849Y390745D02*
D03*
X577849D02*
D03*
X675849Y363000D02*
D03*
X691849D02*
D03*
Y380943D02*
D03*
X675849D02*
D03*
X527925Y374307D02*
D03*
X543925D02*
D03*
X527925Y529306D02*
D03*
X543925D02*
D03*
X561849Y545745D02*
D03*
X577849D02*
D03*
X528289Y505307D02*
D03*
X544289D02*
D03*
X691849Y218000D02*
D03*
X675849D02*
D03*
Y235943D02*
D03*
X691849D02*
D03*
X577849Y245745D02*
D03*
X561849D02*
D03*
X578289Y470882D02*
D03*
X562289D02*
D03*
Y170882D02*
D03*
X578289D02*
D03*
X543925Y229307D02*
D03*
X527925D02*
D03*
X544289Y205307D02*
D03*
X528289D02*
D03*
X608289Y407307D02*
D03*
X624289D02*
D03*
X577849Y561745D02*
D03*
X561849D02*
D03*
X608289Y562307D02*
D03*
X624289D02*
D03*
X562289Y350307D02*
D03*
X578289D02*
D03*
X562289Y333882D02*
D03*
X578289D02*
D03*
Y205307D02*
D03*
X562289D02*
D03*
Y505307D02*
D03*
X578289D02*
D03*
X562289Y488882D02*
D03*
X578289D02*
D03*
Y188882D02*
D03*
X562289D02*
D03*
X561849Y261745D02*
D03*
X577849D02*
D03*
X624289Y262307D02*
D03*
X608289D02*
D03*
X104000Y247000D02*
D03*
X120000D02*
D03*
X103000Y265000D02*
D03*
X119000D02*
D03*
X119000Y229000D02*
D03*
X103000D02*
D03*
X238000Y357000D02*
D03*
Y372158D02*
D03*
X222000Y357000D02*
D03*
Y372158D02*
D03*
X238000Y391000D02*
D03*
X222000D02*
D03*
X223000Y337000D02*
D03*
X239000D02*
D03*
D29*
X650128Y104750D02*
D03*
Y98250D02*
D03*
Y91750D02*
D03*
Y85250D02*
D03*
X607128D02*
D03*
Y91750D02*
D03*
Y98250D02*
D03*
Y104750D02*
D03*
X650349Y242495D02*
D03*
Y235995D02*
D03*
Y229495D02*
D03*
Y222995D02*
D03*
X607349D02*
D03*
Y229495D02*
D03*
Y235995D02*
D03*
Y242495D02*
D03*
X650349Y387495D02*
D03*
Y380995D02*
D03*
Y374495D02*
D03*
Y367995D02*
D03*
X607349D02*
D03*
Y374495D02*
D03*
Y380995D02*
D03*
Y387495D02*
D03*
X650349Y542495D02*
D03*
Y535994D02*
D03*
Y529495D02*
D03*
Y522994D02*
D03*
X607349D02*
D03*
Y529495D02*
D03*
Y535994D02*
D03*
Y542495D02*
D03*
D30*
X672450Y493500D02*
D03*
Y484000D02*
D03*
Y474500D02*
D03*
X697550D02*
D03*
Y493500D02*
D03*
X697329Y55756D02*
D03*
Y36755D02*
D03*
X672229D02*
D03*
Y46255D02*
D03*
Y55756D02*
D03*
X697550Y338500D02*
D03*
Y319500D02*
D03*
X672450D02*
D03*
Y329000D02*
D03*
Y338500D02*
D03*
X697550Y193500D02*
D03*
Y174500D02*
D03*
X672450D02*
D03*
Y184000D02*
D03*
Y193500D02*
D03*
X81550Y261500D02*
D03*
Y242500D02*
D03*
X56450D02*
D03*
Y252000D02*
D03*
Y261500D02*
D03*
D31*
X432000Y283000D02*
D03*
Y299000D02*
D03*
X299000Y297000D02*
D03*
Y281000D02*
D03*
X67000Y198000D02*
D03*
Y182000D02*
D03*
X179000Y269000D02*
D03*
Y253000D02*
D03*
X163000Y269000D02*
D03*
X171000Y121000D02*
D03*
Y137000D02*
D03*
X92000Y119000D02*
D03*
Y135000D02*
D03*
X257000Y383000D02*
D03*
Y399000D02*
D03*
X390000Y453000D02*
D03*
Y469000D02*
D03*
X320000Y477000D02*
D03*
Y493000D02*
D03*
X338000Y477000D02*
D03*
Y493000D02*
D03*
X71000Y119300D02*
D03*
Y135300D02*
D03*
D32*
X354730Y297600D02*
D03*
Y268400D02*
D03*
D33*
X200500Y353500D02*
D03*
X181500D02*
D03*
Y378500D02*
D03*
X191000D02*
D03*
X200500D02*
D03*
D34*
X647779Y60368D02*
D03*
Y40048D02*
D03*
X648000Y341717D02*
D03*
Y321397D02*
D03*
X649306Y175390D02*
D03*
Y195710D02*
D03*
Y476397D02*
D03*
Y496717D02*
D03*
D35*
X323000Y267800D02*
D03*
Y294000D02*
D03*
X90000Y177900D02*
D03*
Y204100D02*
D03*
X408000Y298100D02*
D03*
Y271900D02*
D03*
D36*
X150000Y138500D02*
D03*
Y119500D02*
D03*
X126000D02*
D03*
Y129000D02*
D03*
Y138500D02*
D03*
D37*
X320000Y508500D02*
D03*
Y523500D02*
D03*
X338000Y522500D02*
D03*
Y507500D02*
D03*
D38*
X58250Y455000D02*
D03*
X41750D02*
D03*
D39*
X25239Y198000D02*
D03*
X40761D02*
D03*
D40*
X114000Y178850D02*
D03*
Y201150D02*
D03*
D41*
X428500Y450500D02*
D03*
X411500D02*
D03*
Y463500D02*
D03*
X428500D02*
D03*
M02*
