G04*
G04 #@! TF.GenerationSoftware,Altium Limited,Altium Designer,24.8.2 (39)*
G04*
G04 Layer_Physical_Order=3*
G04 Layer_Color=16440176*
%FSLAX44Y44*%
%MOMM*%
G71*
G04*
G04 #@! TF.SameCoordinates,DE467F84-66AF-4C6A-BC95-973404F0CDF1*
G04*
G04*
G04 #@! TF.FilePolarity,Positive*
G04*
G01*
G75*
%ADD58C,1.2700*%
%ADD63R,1.5700X1.5700*%
%ADD64C,1.5700*%
%ADD73C,4.0000*%
%ADD74C,1.6000*%
%ADD75C,1.4280*%
%ADD77C,3.3160*%
%ADD78C,0.4500*%
%ADD79C,0.6000*%
%ADD80C,0.5500*%
%ADD84C,1.5240*%
G36*
X670000Y538980D02*
X668730Y538727D01*
X668562Y539133D01*
X667003Y540691D01*
X664967Y541535D01*
X662763D01*
X660727Y540691D01*
X659169Y539133D01*
X658325Y537096D01*
Y534893D01*
X659169Y532856D01*
X660727Y531298D01*
X662763Y530454D01*
X664967D01*
X667003Y531298D01*
X668562Y532856D01*
X668730Y533262D01*
X670000Y533009D01*
Y383872D01*
X668730Y383620D01*
X668539Y384081D01*
X666981Y385639D01*
X664944Y386483D01*
X662740D01*
X660704Y385639D01*
X659146Y384081D01*
X658302Y382045D01*
Y379841D01*
X659146Y377805D01*
X660704Y376246D01*
X662740Y375403D01*
X664944D01*
X666981Y376246D01*
X668539Y377805D01*
X668730Y378266D01*
X670000Y378013D01*
Y241055D01*
X668730Y240802D01*
X668697Y240883D01*
X667138Y242441D01*
X665102Y243285D01*
X662898D01*
X660862Y242441D01*
X659303Y240883D01*
X658460Y238846D01*
Y236643D01*
X659303Y234606D01*
X660862Y233048D01*
X662898Y232205D01*
X665102D01*
X667138Y233048D01*
X668697Y234606D01*
X668730Y234687D01*
X670000Y234435D01*
Y99843D01*
X668730Y99591D01*
X668008Y101333D01*
X666450Y102891D01*
X664414Y103735D01*
X662210D01*
X660174Y102891D01*
X658615Y101333D01*
X657772Y99297D01*
Y97093D01*
X658615Y95056D01*
X660174Y93498D01*
X662210Y92654D01*
X664414D01*
X666450Y93498D01*
X668008Y95056D01*
X668730Y96798D01*
X670000Y96546D01*
Y2039D01*
X2039D01*
Y597961D01*
X670000D01*
Y538980D01*
D02*
G37*
G36*
X797961Y2039D02*
X675098D01*
Y96546D01*
X675000Y97038D01*
Y97540D01*
X674808Y98004D01*
X674770Y98195D01*
X674808Y98385D01*
X675000Y98849D01*
Y99351D01*
X675098Y99843D01*
Y234435D01*
X675000Y234927D01*
Y235429D01*
X674808Y235893D01*
X674710Y236385D01*
X674431Y236803D01*
X674239Y237267D01*
X673884Y237622D01*
X673802Y237745D01*
X673884Y237867D01*
X674239Y238222D01*
X674431Y238686D01*
X674710Y239104D01*
X674808Y239596D01*
X675000Y240060D01*
Y240562D01*
X675098Y241055D01*
Y378013D01*
X675000Y378506D01*
Y379008D01*
X674808Y379472D01*
X674710Y379964D01*
X674431Y380382D01*
X674239Y380846D01*
X674141Y380943D01*
X674239Y381040D01*
X674431Y381504D01*
X674710Y381922D01*
X674808Y382414D01*
X675000Y382878D01*
Y383380D01*
X675098Y383872D01*
Y533009D01*
X675000Y533502D01*
Y534004D01*
X674808Y534468D01*
X674710Y534960D01*
X674431Y535378D01*
X674239Y535842D01*
X674086Y535994D01*
X674239Y536147D01*
X674431Y536611D01*
X674710Y537029D01*
X674808Y537521D01*
X675000Y537985D01*
Y538487D01*
X675098Y538980D01*
Y597961D01*
X797961D01*
Y2039D01*
D02*
G37*
%LPC*%
G36*
X241953Y592790D02*
X240047D01*
X238287Y592061D01*
X236939Y590713D01*
X236210Y588953D01*
Y587047D01*
X236939Y585287D01*
X238287Y583939D01*
X240047Y583210D01*
X241953D01*
X243713Y583939D01*
X245061Y585287D01*
X245790Y587047D01*
Y588953D01*
X245061Y590713D01*
X243713Y592061D01*
X241953Y592790D01*
D02*
G37*
G36*
X478102Y593540D02*
X475898D01*
X473862Y592697D01*
X472303Y591138D01*
X471460Y589102D01*
Y586898D01*
X472303Y584862D01*
X473862Y583303D01*
X475898Y582460D01*
X478102D01*
X480138Y583303D01*
X481697Y584862D01*
X482540Y586898D01*
Y589102D01*
X481697Y591138D01*
X480138Y592697D01*
X478102Y593540D01*
D02*
G37*
G36*
X450938Y581160D02*
X448262D01*
X445678Y580468D01*
X443362Y579130D01*
X441470Y577238D01*
X440132Y574922D01*
X439440Y572338D01*
Y569662D01*
X440132Y567078D01*
X441470Y564762D01*
X443362Y562870D01*
X445678Y561532D01*
X448262Y560840D01*
X450938D01*
X453522Y561532D01*
X455838Y562870D01*
X457730Y564762D01*
X459068Y567078D01*
X459760Y569662D01*
Y572338D01*
X459068Y574922D01*
X457730Y577238D01*
X455838Y579130D01*
X453522Y580468D01*
X450938Y581160D01*
D02*
G37*
G36*
X425538D02*
X422862D01*
X420278Y580468D01*
X417962Y579130D01*
X416070Y577238D01*
X414732Y574922D01*
X414040Y572338D01*
Y569662D01*
X414732Y567078D01*
X416070Y564762D01*
X417962Y562870D01*
X420278Y561532D01*
X422862Y560840D01*
X425538D01*
X428122Y561532D01*
X430438Y562870D01*
X432330Y564762D01*
X433668Y567078D01*
X434360Y569662D01*
Y572338D01*
X433668Y574922D01*
X432330Y577238D01*
X430438Y579130D01*
X428122Y580468D01*
X425538Y581160D01*
D02*
G37*
G36*
X400138D02*
X397462D01*
X394878Y580468D01*
X392562Y579130D01*
X390670Y577238D01*
X389332Y574922D01*
X388640Y572338D01*
Y569662D01*
X389332Y567078D01*
X390670Y564762D01*
X392562Y562870D01*
X394878Y561532D01*
X397462Y560840D01*
X400138D01*
X402722Y561532D01*
X405038Y562870D01*
X406930Y564762D01*
X408268Y567078D01*
X408960Y569662D01*
Y572338D01*
X408268Y574922D01*
X406930Y577238D01*
X405038Y579130D01*
X402722Y580468D01*
X400138Y581160D01*
D02*
G37*
G36*
X374738D02*
X372062D01*
X369478Y580468D01*
X367162Y579130D01*
X365270Y577238D01*
X363932Y574922D01*
X363240Y572338D01*
Y569662D01*
X363932Y567078D01*
X365270Y564762D01*
X367162Y562870D01*
X369478Y561532D01*
X372062Y560840D01*
X374738D01*
X377322Y561532D01*
X379638Y562870D01*
X381530Y564762D01*
X382868Y567078D01*
X383560Y569662D01*
Y572338D01*
X382868Y574922D01*
X381530Y577238D01*
X379638Y579130D01*
X377322Y580468D01*
X374738Y581160D01*
D02*
G37*
G36*
X349338D02*
X346662D01*
X344078Y580468D01*
X341762Y579130D01*
X339870Y577238D01*
X338532Y574922D01*
X337840Y572338D01*
Y569662D01*
X338532Y567078D01*
X339870Y564762D01*
X341762Y562870D01*
X344078Y561532D01*
X346662Y560840D01*
X349338D01*
X351922Y561532D01*
X354238Y562870D01*
X356130Y564762D01*
X357468Y567078D01*
X358160Y569662D01*
Y572338D01*
X357468Y574922D01*
X356130Y577238D01*
X354238Y579130D01*
X351922Y580468D01*
X349338Y581160D01*
D02*
G37*
G36*
X323938D02*
X321262D01*
X318678Y580468D01*
X316362Y579130D01*
X314470Y577238D01*
X313132Y574922D01*
X312440Y572338D01*
Y569662D01*
X313132Y567078D01*
X314470Y564762D01*
X316362Y562870D01*
X318678Y561532D01*
X321262Y560840D01*
X323938D01*
X326522Y561532D01*
X328838Y562870D01*
X330730Y564762D01*
X332068Y567078D01*
X332760Y569662D01*
Y572338D01*
X332068Y574922D01*
X330730Y577238D01*
X328838Y579130D01*
X326522Y580468D01*
X323938Y581160D01*
D02*
G37*
G36*
X596102Y560540D02*
X593898D01*
X591862Y559697D01*
X590303Y558138D01*
X589460Y556102D01*
Y553898D01*
X590303Y551862D01*
X591862Y550303D01*
X593898Y549460D01*
X596102D01*
X598138Y550303D01*
X599697Y551862D01*
X600540Y553898D01*
Y556102D01*
X599697Y558138D01*
X598138Y559697D01*
X596102Y560540D01*
D02*
G37*
G36*
X633902Y544035D02*
X631797D01*
X629853Y543229D01*
X628849Y542226D01*
X627846Y543229D01*
X625902Y544035D01*
X623797D01*
X621853Y543229D01*
X620365Y541741D01*
X619559Y539797D01*
Y537692D01*
X620365Y535748D01*
X621853Y534260D01*
X623559Y533553D01*
Y531936D01*
X621853Y531229D01*
X620365Y529741D01*
X619559Y527797D01*
Y525692D01*
X620365Y523748D01*
X621853Y522260D01*
X623797Y521455D01*
X625902D01*
X627846Y522260D01*
X628849Y523263D01*
X629853Y522260D01*
X631797Y521455D01*
X633902D01*
X635846Y522260D01*
X637334Y523748D01*
X638139Y525692D01*
Y527797D01*
X637334Y529741D01*
X635846Y531229D01*
X634139Y531936D01*
Y533553D01*
X635846Y534260D01*
X637334Y535748D01*
X638139Y537692D01*
Y539797D01*
X637334Y541741D01*
X635846Y543229D01*
X633902Y544035D01*
D02*
G37*
G36*
X502220Y582540D02*
X497780D01*
X493425Y581674D01*
X489323Y579975D01*
X485632Y577508D01*
X482492Y574368D01*
X480025Y570677D01*
X478326Y566575D01*
X477460Y562220D01*
Y557780D01*
X478326Y553425D01*
X480025Y549323D01*
X482492Y545632D01*
X485632Y542492D01*
X489323Y540025D01*
X493425Y538326D01*
X497780Y537460D01*
X502220D01*
X506575Y538326D01*
X510677Y540025D01*
X514368Y542492D01*
X517508Y545632D01*
X519975Y549323D01*
X521674Y553425D01*
X522540Y557780D01*
Y562220D01*
X521674Y566575D01*
X519975Y570677D01*
X517508Y574368D01*
X514368Y577508D01*
X510677Y579975D01*
X506575Y581674D01*
X502220Y582540D01*
D02*
G37*
G36*
X551602Y547253D02*
X549398D01*
X547362Y546410D01*
X545803Y544852D01*
X544960Y542815D01*
Y540611D01*
X545803Y538575D01*
X547362Y537017D01*
X549398Y536173D01*
X551602D01*
X553638Y537017D01*
X555197Y538575D01*
X556040Y540611D01*
Y542815D01*
X555197Y544852D01*
X553638Y546410D01*
X551602Y547253D01*
D02*
G37*
G36*
X525102D02*
X522898D01*
X520862Y546410D01*
X519303Y544852D01*
X518460Y542815D01*
Y540611D01*
X519303Y538575D01*
X520862Y537017D01*
X522898Y536173D01*
X525102D01*
X527138Y537017D01*
X528697Y538575D01*
X529540Y540611D01*
Y542815D01*
X528697Y544852D01*
X527138Y546410D01*
X525102Y547253D01*
D02*
G37*
G36*
X211953Y534790D02*
X210047D01*
X208287Y534061D01*
X206939Y532713D01*
X206210Y530953D01*
Y529047D01*
X206939Y527287D01*
X208287Y525939D01*
X210047Y525210D01*
X211953D01*
X213713Y525939D01*
X215061Y527287D01*
X215790Y529047D01*
Y530953D01*
X215061Y532713D01*
X213713Y534061D01*
X211953Y534790D01*
D02*
G37*
G36*
X286566Y528290D02*
X284660D01*
X282900Y527561D01*
X281552Y526213D01*
X280823Y524453D01*
Y522547D01*
X281552Y520787D01*
X282900Y519439D01*
X284660Y518710D01*
X286566D01*
X288326Y519439D01*
X289674Y520787D01*
X290403Y522547D01*
Y524453D01*
X289674Y526213D01*
X288326Y527561D01*
X286566Y528290D01*
D02*
G37*
G36*
X159102Y527540D02*
X156898D01*
X154862Y526697D01*
X153303Y525138D01*
X152460Y523102D01*
Y520898D01*
X153303Y518862D01*
X154862Y517303D01*
X156898Y516460D01*
X159102D01*
X161138Y517303D01*
X162697Y518862D01*
X163540Y520898D01*
Y523102D01*
X162697Y525138D01*
X161138Y526697D01*
X159102Y527540D01*
D02*
G37*
G36*
X212953Y517790D02*
X211047D01*
X209287Y517061D01*
X207939Y515713D01*
X207210Y513953D01*
Y512047D01*
X207939Y510287D01*
X209287Y508939D01*
X211047Y508210D01*
X212953D01*
X214713Y508939D01*
X216061Y510287D01*
X216790Y512047D01*
Y513953D01*
X216061Y515713D01*
X214713Y517061D01*
X212953Y517790D01*
D02*
G37*
G36*
X180102Y516540D02*
X177898D01*
X175862Y515697D01*
X174303Y514138D01*
X173460Y512102D01*
Y509898D01*
X174303Y507862D01*
X175862Y506303D01*
X177898Y505460D01*
X180102D01*
X182138Y506303D01*
X183697Y507862D01*
X184540Y509898D01*
Y512102D01*
X183697Y514138D01*
X182138Y515697D01*
X180102Y516540D01*
D02*
G37*
G36*
X633902Y506123D02*
X631797D01*
X629853Y505317D01*
X628849Y504314D01*
X627846Y505317D01*
X625902Y506123D01*
X623797D01*
X621853Y505317D01*
X620365Y503829D01*
X619559Y501885D01*
Y499781D01*
X620365Y497836D01*
X621853Y496348D01*
X623559Y495641D01*
Y494024D01*
X621853Y493317D01*
X620365Y491829D01*
X619559Y489885D01*
Y487780D01*
X620365Y485836D01*
X621853Y484348D01*
X623797Y483543D01*
X625902D01*
X627846Y484348D01*
X628849Y485352D01*
X629853Y484348D01*
X631797Y483543D01*
X633902D01*
X635846Y484348D01*
X637334Y485836D01*
X638139Y487780D01*
Y489885D01*
X637334Y491829D01*
X635846Y493317D01*
X634139Y494024D01*
Y495641D01*
X635846Y496348D01*
X637334Y497836D01*
X638139Y499781D01*
Y501885D01*
X637334Y503829D01*
X635846Y505317D01*
X633902Y506123D01*
D02*
G37*
G36*
X286953Y510790D02*
X285047D01*
X283287Y510061D01*
X281939Y508713D01*
X281210Y506953D01*
Y505047D01*
X281939Y503287D01*
X283287Y501939D01*
X285047Y501210D01*
X286953D01*
X288713Y501939D01*
X290061Y503287D01*
X290790Y505047D01*
Y506953D01*
X290061Y508713D01*
X288713Y510061D01*
X286953Y510790D01*
D02*
G37*
G36*
X182953Y500610D02*
X181047D01*
X179287Y499881D01*
X177939Y498533D01*
X177210Y496773D01*
Y494867D01*
X177939Y493107D01*
X179287Y491759D01*
X181047Y491030D01*
X182953D01*
X184713Y491759D01*
X186061Y493107D01*
X186790Y494867D01*
Y496773D01*
X186061Y498533D01*
X184713Y499881D01*
X182953Y500610D01*
D02*
G37*
G36*
X229953Y496790D02*
X228047D01*
X226287Y496061D01*
X224939Y494713D01*
X224210Y492953D01*
Y491047D01*
X224939Y489287D01*
X226287Y487939D01*
X228047Y487210D01*
X229953D01*
X231713Y487939D01*
X233061Y489287D01*
X233790Y491047D01*
Y492953D01*
X233061Y494713D01*
X231713Y496061D01*
X229953Y496790D01*
D02*
G37*
G36*
X81953Y494790D02*
X80047D01*
X78287Y494061D01*
X76939Y492713D01*
X76210Y490953D01*
Y489047D01*
X76939Y487287D01*
X78287Y485939D01*
X80047Y485210D01*
X81953D01*
X83713Y485939D01*
X85061Y487287D01*
X85790Y489047D01*
Y490953D01*
X85061Y492713D01*
X83713Y494061D01*
X81953Y494790D01*
D02*
G37*
G36*
X663681Y494756D02*
X661477D01*
X659441Y493912D01*
X657882Y492354D01*
X657039Y490317D01*
Y488114D01*
X657882Y486077D01*
X659441Y484519D01*
X661477Y483675D01*
X663681D01*
X665717Y484519D01*
X667275Y486077D01*
X668119Y488114D01*
Y490317D01*
X667275Y492354D01*
X665717Y493912D01*
X663681Y494756D01*
D02*
G37*
G36*
X546786Y494422D02*
X544582D01*
X542546Y493579D01*
X540987Y492020D01*
X540144Y489984D01*
Y487780D01*
X540987Y485744D01*
X542546Y484185D01*
X544582Y483342D01*
X546786D01*
X548822Y484185D01*
X550380Y485744D01*
X551224Y487780D01*
Y489984D01*
X550380Y492020D01*
X548822Y493579D01*
X546786Y494422D01*
D02*
G37*
G36*
X309102Y475540D02*
X306898D01*
X304862Y474697D01*
X303303Y473138D01*
X302460Y471102D01*
Y468898D01*
X303303Y466862D01*
X304862Y465303D01*
X306898Y464460D01*
X309102D01*
X311138Y465303D01*
X312697Y466862D01*
X313540Y468898D01*
Y471102D01*
X312697Y473138D01*
X311138Y474697D01*
X309102Y475540D01*
D02*
G37*
G36*
X381102Y474540D02*
X378898D01*
X376862Y473697D01*
X375303Y472138D01*
X374460Y470102D01*
Y467898D01*
X375303Y465862D01*
X376862Y464303D01*
X378898Y463460D01*
X381102D01*
X383138Y464303D01*
X384697Y465862D01*
X385540Y467898D01*
Y470102D01*
X384697Y472138D01*
X383138Y473697D01*
X381102Y474540D01*
D02*
G37*
G36*
X42102Y473540D02*
X39898D01*
X37862Y472697D01*
X36303Y471138D01*
X35460Y469102D01*
Y466898D01*
X36303Y464862D01*
X37862Y463303D01*
X39898Y462460D01*
X42102D01*
X44138Y463303D01*
X45697Y464862D01*
X46540Y466898D01*
Y469102D01*
X45697Y471138D01*
X44138Y472697D01*
X42102Y473540D01*
D02*
G37*
G36*
X476102Y468540D02*
X473898D01*
X471862Y467697D01*
X470303Y466138D01*
X469460Y464102D01*
Y461898D01*
X470303Y459862D01*
X471862Y458303D01*
X473898Y457460D01*
X476102D01*
X478138Y458303D01*
X479697Y459862D01*
X480540Y461898D01*
Y464102D01*
X479697Y466138D01*
X478138Y467697D01*
X476102Y468540D01*
D02*
G37*
G36*
X345546Y460540D02*
X343342D01*
X341306Y459697D01*
X339748Y458138D01*
X338904Y456102D01*
Y453898D01*
X339748Y451862D01*
X341306Y450303D01*
X343342Y449460D01*
X345546D01*
X347582Y450303D01*
X349141Y451862D01*
X349984Y453898D01*
Y456102D01*
X349141Y458138D01*
X347582Y459697D01*
X345546Y460540D01*
D02*
G37*
G36*
X179102Y456540D02*
X176898D01*
X174862Y455697D01*
X173303Y454138D01*
X172460Y452102D01*
Y449898D01*
X173303Y447862D01*
X174862Y446303D01*
X176898Y445460D01*
X179102D01*
X181138Y446303D01*
X182697Y447862D01*
X183540Y449898D01*
Y452102D01*
X182697Y454138D01*
X181138Y455697D01*
X179102Y456540D01*
D02*
G37*
G36*
X303102Y446540D02*
X300898D01*
X298862Y445697D01*
X298000Y444835D01*
X297138Y445697D01*
X295102Y446540D01*
X292898D01*
X290862Y445697D01*
X289500Y444335D01*
X288138Y445697D01*
X286102Y446540D01*
X283898D01*
X281862Y445697D01*
X280303Y444138D01*
X278876Y444012D01*
X278034Y444855D01*
X275997Y445698D01*
X273793D01*
X271757Y444855D01*
X270552Y443650D01*
X269138Y445064D01*
X267102Y445907D01*
X264898D01*
X262862Y445064D01*
X261500Y443702D01*
X260138Y445064D01*
X258102Y445907D01*
X255898D01*
X253862Y445064D01*
X252303Y443505D01*
X251824Y443410D01*
X250818Y444416D01*
X248782Y445260D01*
X246577D01*
X244541Y444416D01*
X242983Y442858D01*
X242139Y440821D01*
Y438618D01*
X242983Y436581D01*
X244541Y435023D01*
X246577Y434180D01*
X248782D01*
X250818Y435023D01*
X252376Y436581D01*
X252855Y436677D01*
X253862Y435670D01*
X255898Y434827D01*
X258102D01*
X260138Y435670D01*
X261500Y437032D01*
X262862Y435670D01*
X264898Y434827D01*
X267102D01*
X269138Y435670D01*
X270343Y436875D01*
X271757Y435462D01*
X273793Y434618D01*
X275997D01*
X278034Y435462D01*
X279592Y437020D01*
X281019Y437146D01*
X281862Y436303D01*
X283898Y435460D01*
X286102D01*
X288138Y436303D01*
X289500Y437665D01*
X290862Y436303D01*
X292898Y435460D01*
X295102D01*
X297138Y436303D01*
X298000Y437165D01*
X298862Y436303D01*
X300898Y435460D01*
X303102D01*
X305138Y436303D01*
X306697Y437862D01*
X307190Y439053D01*
X308291Y438919D01*
X308480Y438849D01*
X309303Y436862D01*
X310862Y435303D01*
X312898Y434460D01*
X315102D01*
X317138Y435303D01*
X318697Y436862D01*
X319540Y438898D01*
Y441102D01*
X318697Y443138D01*
X317138Y444697D01*
X315102Y445540D01*
X312898D01*
X310862Y444697D01*
X309303Y443138D01*
X308810Y441947D01*
X307709Y442081D01*
X307520Y442151D01*
X306697Y444138D01*
X305138Y445697D01*
X303102Y446540D01*
D02*
G37*
G36*
X391102Y440540D02*
X388898D01*
X386862Y439697D01*
X385303Y438138D01*
X384460Y436102D01*
Y433898D01*
X385303Y431862D01*
X386862Y430303D01*
X388898Y429460D01*
X391102D01*
X393138Y430303D01*
X394697Y431862D01*
X395540Y433898D01*
Y436102D01*
X394697Y438138D01*
X393138Y439697D01*
X391102Y440540D01*
D02*
G37*
G36*
X360546Y435540D02*
X358342D01*
X356306Y434697D01*
X354747Y433138D01*
X353904Y431102D01*
Y428898D01*
X354747Y426862D01*
X356306Y425303D01*
X358342Y424460D01*
X360546D01*
X362582Y425303D01*
X364141Y426862D01*
X364984Y428898D01*
Y431102D01*
X364141Y433138D01*
X362582Y434697D01*
X360546Y435540D01*
D02*
G37*
G36*
X104783Y460520D02*
X101017D01*
X97323Y459785D01*
X93843Y458344D01*
X90712Y456251D01*
X88048Y453588D01*
X85956Y450457D01*
X84515Y446977D01*
X83780Y443283D01*
Y439517D01*
X84515Y435823D01*
X85956Y432343D01*
X88048Y429212D01*
X90712Y426549D01*
X93843Y424456D01*
X97323Y423015D01*
X101017Y422280D01*
X104783D01*
X108477Y423015D01*
X111957Y424456D01*
X115088Y426549D01*
X117752Y429212D01*
X119844Y432343D01*
X121285Y435823D01*
X122020Y439517D01*
Y443283D01*
X121285Y446977D01*
X119844Y450457D01*
X117752Y453588D01*
X115088Y456251D01*
X111957Y458344D01*
X108477Y459785D01*
X104783Y460520D01*
D02*
G37*
G36*
X588102Y432540D02*
X585898D01*
X583862Y431697D01*
X582303Y430138D01*
X581460Y428102D01*
Y425898D01*
X582303Y423862D01*
X583862Y422303D01*
X585898Y421460D01*
X588102D01*
X590138Y422303D01*
X591697Y423862D01*
X592540Y425898D01*
Y428102D01*
X591697Y430138D01*
X590138Y431697D01*
X588102Y432540D01*
D02*
G37*
G36*
X266102Y411992D02*
X263898D01*
X261862Y411149D01*
X260303Y409590D01*
X259460Y407554D01*
Y405350D01*
X260303Y403314D01*
X261862Y401755D01*
X263898Y400912D01*
X266102D01*
X268138Y401755D01*
X269697Y403314D01*
X270540Y405350D01*
Y407554D01*
X269697Y409590D01*
X268138Y411149D01*
X266102Y411992D01*
D02*
G37*
G36*
X239388Y411540D02*
X237184D01*
X235148Y410697D01*
X233589Y409138D01*
X232746Y407102D01*
Y404898D01*
X233589Y402862D01*
X235148Y401303D01*
X237184Y400460D01*
X239388D01*
X241424Y401303D01*
X242983Y402862D01*
X243826Y404898D01*
Y407102D01*
X242983Y409138D01*
X241424Y410697D01*
X239388Y411540D01*
D02*
G37*
G36*
X474990Y410540D02*
X472786D01*
X470750Y409697D01*
X469192Y408138D01*
X468348Y406102D01*
Y403898D01*
X469192Y401862D01*
X470750Y400303D01*
X472786Y399460D01*
X474990D01*
X477026Y400303D01*
X478585Y401862D01*
X479428Y403898D01*
Y406102D01*
X478585Y408138D01*
X477026Y409697D01*
X474990Y410540D01*
D02*
G37*
G36*
X151274Y403380D02*
X148726D01*
X146264Y402720D01*
X144056Y401446D01*
X142254Y399644D01*
X140980Y397436D01*
X140657Y396234D01*
X139343D01*
X139020Y397436D01*
X137746Y399644D01*
X135944Y401446D01*
X133736Y402720D01*
X131274Y403380D01*
X128726D01*
X126264Y402720D01*
X124056Y401446D01*
X122254Y399644D01*
X120980Y397436D01*
X120320Y394974D01*
Y392426D01*
X120980Y389964D01*
X122254Y387756D01*
X124056Y385954D01*
X126264Y384680D01*
X128726Y384020D01*
X131274D01*
X133736Y384680D01*
X135944Y385954D01*
X137746Y387756D01*
X139020Y389964D01*
X139343Y391166D01*
X140657D01*
X140980Y389964D01*
X142254Y387756D01*
X144056Y385954D01*
X146264Y384680D01*
X148726Y384020D01*
X151274D01*
X153736Y384680D01*
X155944Y385954D01*
X157746Y387756D01*
X159020Y389964D01*
X159680Y392426D01*
Y394974D01*
X159020Y397436D01*
X157746Y399644D01*
X155944Y401446D01*
X153736Y402720D01*
X151274Y403380D01*
D02*
G37*
G36*
X633902Y389035D02*
X631797D01*
X629853Y388229D01*
X628849Y387226D01*
X627846Y388229D01*
X625902Y389035D01*
X623797D01*
X621853Y388229D01*
X620365Y386741D01*
X619559Y384797D01*
Y382692D01*
X620365Y380748D01*
X621853Y379260D01*
X623559Y378553D01*
Y376936D01*
X621853Y376229D01*
X620365Y374741D01*
X619559Y372797D01*
Y370692D01*
X620365Y368748D01*
X621853Y367260D01*
X623797Y366455D01*
X625902D01*
X627846Y367260D01*
X628849Y368263D01*
X629853Y367260D01*
X631797Y366455D01*
X633902D01*
X635846Y367260D01*
X637334Y368748D01*
X638139Y370692D01*
Y372797D01*
X637334Y374741D01*
X635846Y376229D01*
X634139Y376936D01*
Y378553D01*
X635846Y379260D01*
X637334Y380748D01*
X638139Y382692D01*
Y384797D01*
X637334Y386741D01*
X635846Y388229D01*
X633902Y389035D01*
D02*
G37*
G36*
X192102Y394540D02*
X189898D01*
X187862Y393697D01*
X186303Y392138D01*
X185460Y390102D01*
Y387898D01*
X186303Y385862D01*
X187862Y384303D01*
X189898Y383460D01*
X192102D01*
X194138Y384303D01*
X195697Y385862D01*
X196540Y387898D01*
Y390102D01*
X195697Y392138D01*
X194138Y393697D01*
X192102Y394540D01*
D02*
G37*
G36*
X525102Y393290D02*
X522898D01*
X520862Y392447D01*
X519303Y390888D01*
X518460Y388852D01*
Y386648D01*
X519303Y384612D01*
X520862Y383054D01*
X522898Y382210D01*
X525102D01*
X527138Y383054D01*
X528697Y384612D01*
X529540Y386648D01*
Y388852D01*
X528697Y390888D01*
X527138Y392447D01*
X525102Y393290D01*
D02*
G37*
G36*
X550586Y392253D02*
X548382D01*
X546346Y391410D01*
X544787Y389852D01*
X543944Y387815D01*
Y385611D01*
X544787Y383575D01*
X546346Y382017D01*
X548382Y381174D01*
X550586D01*
X552622Y382017D01*
X554181Y383575D01*
X555024Y385611D01*
Y387815D01*
X554181Y389852D01*
X552622Y391410D01*
X550586Y392253D01*
D02*
G37*
G36*
X421102Y409340D02*
X418898D01*
X416862Y408497D01*
X415303Y406938D01*
X414460Y404902D01*
Y402698D01*
X415303Y400662D01*
X416065Y399900D01*
X415303Y399138D01*
X414460Y397102D01*
Y394898D01*
X415303Y392862D01*
X415800Y392365D01*
X415303Y391868D01*
X414460Y389832D01*
Y387628D01*
X415303Y385592D01*
X416030Y384865D01*
X415303Y384138D01*
X414460Y382102D01*
Y379898D01*
X415303Y377862D01*
X416862Y376303D01*
X418898Y375460D01*
X421102D01*
X423138Y376303D01*
X424697Y377862D01*
X425540Y379898D01*
Y382102D01*
X424697Y384138D01*
X423970Y384865D01*
X424697Y385592D01*
X425540Y387628D01*
Y389832D01*
X424697Y391868D01*
X424200Y392365D01*
X424697Y392862D01*
X425540Y394898D01*
Y397102D01*
X424697Y399138D01*
X423935Y399900D01*
X424697Y400662D01*
X425540Y402698D01*
Y404902D01*
X424697Y406938D01*
X423138Y408497D01*
X421102Y409340D01*
D02*
G37*
G36*
X151274Y378380D02*
X148726D01*
X146264Y377720D01*
X144056Y376446D01*
X142254Y374644D01*
X140980Y372436D01*
X140657Y371234D01*
X139343D01*
X139020Y372436D01*
X137746Y374644D01*
X135944Y376446D01*
X133736Y377720D01*
X131274Y378380D01*
X128726D01*
X126264Y377720D01*
X124056Y376446D01*
X122254Y374644D01*
X120980Y372436D01*
X120320Y369974D01*
Y367426D01*
X120980Y364964D01*
X122254Y362756D01*
X124056Y360954D01*
X126264Y359680D01*
X128726Y359020D01*
X131274D01*
X133736Y359680D01*
X135944Y360954D01*
X137746Y362756D01*
X139020Y364964D01*
X139343Y366166D01*
X140657D01*
X140980Y364964D01*
X142254Y362756D01*
X144056Y360954D01*
X146264Y359680D01*
X148726Y359020D01*
X151274D01*
X153736Y359680D01*
X155944Y360954D01*
X157746Y362756D01*
X159020Y364964D01*
X159680Y367426D01*
Y369974D01*
X159020Y372436D01*
X157746Y374644D01*
X155944Y376446D01*
X153736Y377720D01*
X151274Y378380D01*
D02*
G37*
G36*
X392102Y364540D02*
X389898D01*
X387862Y363697D01*
X386303Y362138D01*
X385460Y360102D01*
Y357898D01*
X386303Y355862D01*
X387862Y354303D01*
X389898Y353460D01*
X392102D01*
X394138Y354303D01*
X395697Y355862D01*
X396540Y357898D01*
Y360102D01*
X395697Y362138D01*
X394138Y363697D01*
X392102Y364540D01*
D02*
G37*
G36*
X304454Y372606D02*
X302250D01*
X300214Y371763D01*
X298655Y370204D01*
X297812Y368168D01*
Y365964D01*
X298655Y363928D01*
X299767Y362816D01*
X300103Y362061D01*
X299784Y361173D01*
X298719Y360108D01*
X297876Y358072D01*
Y355868D01*
X298719Y353832D01*
X300278Y352273D01*
X302314Y351430D01*
X304518D01*
X306554Y352273D01*
X308112Y353832D01*
X308956Y355868D01*
Y358072D01*
X308112Y360108D01*
X307000Y361220D01*
X306665Y361976D01*
X306984Y362863D01*
X308048Y363928D01*
X308892Y365964D01*
Y368168D01*
X308048Y370204D01*
X306490Y371763D01*
X304454Y372606D01*
D02*
G37*
G36*
X369731Y351222D02*
X367527D01*
X365491Y350379D01*
X364711Y349599D01*
X364193Y350117D01*
X362157Y350960D01*
X359953D01*
X357917Y350117D01*
X356359Y348558D01*
X355515Y346522D01*
Y344318D01*
X356359Y342282D01*
X357917Y340724D01*
X359953Y339880D01*
X362157D01*
X364193Y340724D01*
X364973Y341504D01*
X365491Y340986D01*
X367527Y340143D01*
X369731D01*
X371768Y340986D01*
X373326Y342544D01*
X374169Y344580D01*
Y346785D01*
X373326Y348821D01*
X371768Y350379D01*
X369731Y351222D01*
D02*
G37*
G36*
X633902Y351123D02*
X631797D01*
X629853Y350317D01*
X628849Y349314D01*
X627846Y350317D01*
X625902Y351123D01*
X623797D01*
X621853Y350317D01*
X620365Y348829D01*
X619559Y346885D01*
Y344781D01*
X620365Y342836D01*
X621853Y341348D01*
X623559Y340641D01*
Y339024D01*
X621853Y338317D01*
X620365Y336829D01*
X619559Y334885D01*
Y332780D01*
X620365Y330836D01*
X621853Y329348D01*
X623797Y328543D01*
X625902D01*
X627846Y329348D01*
X628849Y330352D01*
X629853Y329348D01*
X631797Y328543D01*
X633902D01*
X635846Y329348D01*
X637334Y330836D01*
X638139Y332780D01*
Y334885D01*
X637334Y336829D01*
X635846Y338317D01*
X634139Y339024D01*
Y340641D01*
X635846Y341348D01*
X637334Y342836D01*
X638139Y344781D01*
Y346885D01*
X637334Y348829D01*
X635846Y350317D01*
X633902Y351123D01*
D02*
G37*
G36*
X340832Y350540D02*
X338628D01*
X336592Y349697D01*
X335033Y348138D01*
X334190Y346102D01*
Y343898D01*
X335033Y341862D01*
X336592Y340303D01*
X338628Y339460D01*
X340832D01*
X342868Y340303D01*
X344427Y341862D01*
X345270Y343898D01*
Y346102D01*
X344427Y348138D01*
X342868Y349697D01*
X340832Y350540D01*
D02*
G37*
G36*
X203102Y350540D02*
X200898D01*
X198862Y349697D01*
X197303Y348138D01*
X196460Y346102D01*
Y343898D01*
X197303Y341862D01*
X198862Y340303D01*
X200898Y339460D01*
X203102D01*
X205138Y340303D01*
X206697Y341862D01*
X207540Y343898D01*
Y346102D01*
X206697Y348138D01*
X205138Y349697D01*
X203102Y350540D01*
D02*
G37*
G36*
X254102Y342540D02*
X251898D01*
X249862Y341697D01*
X248303Y340138D01*
X247460Y338102D01*
Y335898D01*
X248303Y333862D01*
X249862Y332303D01*
X251898Y331460D01*
X254102D01*
X256138Y332303D01*
X257697Y333862D01*
X258540Y335898D01*
Y338102D01*
X257697Y340138D01*
X256138Y341697D01*
X254102Y342540D01*
D02*
G37*
G36*
X663681Y339756D02*
X661477D01*
X659441Y338912D01*
X657882Y337354D01*
X657039Y335317D01*
Y333114D01*
X657882Y331077D01*
X659441Y329519D01*
X661477Y328676D01*
X663681D01*
X665717Y329519D01*
X667275Y331077D01*
X668119Y333114D01*
Y335317D01*
X667275Y337354D01*
X665717Y338912D01*
X663681Y339756D01*
D02*
G37*
G36*
X328102Y339540D02*
X325898D01*
X323862Y338697D01*
X322303Y337138D01*
X321460Y335102D01*
Y332898D01*
X322303Y330862D01*
X323862Y329303D01*
X325898Y328460D01*
X328102D01*
X330138Y329303D01*
X331697Y330862D01*
X332540Y332898D01*
Y335102D01*
X331697Y337138D01*
X330138Y338697D01*
X328102Y339540D01*
D02*
G37*
G36*
X550102Y337540D02*
X547898D01*
X545862Y336697D01*
X544303Y335138D01*
X543460Y333102D01*
Y330898D01*
X544303Y328862D01*
X545862Y327303D01*
X547898Y326460D01*
X550102D01*
X552138Y327303D01*
X553697Y328862D01*
X554540Y330898D01*
Y333102D01*
X553697Y335138D01*
X552138Y336697D01*
X550102Y337540D01*
D02*
G37*
G36*
X361102Y327540D02*
X358898D01*
X356862Y326697D01*
X355303Y325138D01*
X354460Y323102D01*
Y320898D01*
X355303Y318862D01*
X356862Y317303D01*
X358898Y316460D01*
X361102D01*
X363138Y317303D01*
X364697Y318862D01*
X365540Y320898D01*
Y323102D01*
X364697Y325138D01*
X363138Y326697D01*
X361102Y327540D01*
D02*
G37*
G36*
X475953Y324790D02*
X474047D01*
X472287Y324061D01*
X470939Y322713D01*
X470210Y320953D01*
Y319047D01*
X470939Y317287D01*
X472287Y315939D01*
X474047Y315210D01*
X475953D01*
X477713Y315939D01*
X479061Y317287D01*
X479790Y319047D01*
Y320953D01*
X479061Y322713D01*
X477713Y324061D01*
X475953Y324790D01*
D02*
G37*
G36*
X455102Y325540D02*
X452898D01*
X450862Y324697D01*
X449303Y323138D01*
X448460Y321102D01*
Y318898D01*
X449303Y316862D01*
X450862Y315303D01*
X452898Y314460D01*
X455102D01*
X457138Y315303D01*
X458697Y316862D01*
X459540Y318898D01*
Y321102D01*
X458697Y323138D01*
X457138Y324697D01*
X455102Y325540D01*
D02*
G37*
G36*
X551102Y319540D02*
X548898D01*
X546862Y318697D01*
X545303Y317138D01*
X544460Y315102D01*
Y312898D01*
X545303Y310862D01*
X546862Y309303D01*
X548898Y308460D01*
X551102D01*
X553138Y309303D01*
X554697Y310862D01*
X555540Y312898D01*
Y315102D01*
X554697Y317138D01*
X553138Y318697D01*
X551102Y319540D01*
D02*
G37*
G36*
X104783Y340120D02*
X101017D01*
X97323Y339385D01*
X93843Y337944D01*
X90712Y335852D01*
X88048Y333188D01*
X85956Y330057D01*
X84515Y326577D01*
X83780Y322883D01*
Y319117D01*
X84515Y315423D01*
X85956Y311943D01*
X88048Y308812D01*
X90712Y306148D01*
X93843Y304056D01*
X97323Y302615D01*
X101017Y301880D01*
X104783D01*
X108477Y302615D01*
X111957Y304056D01*
X115088Y306148D01*
X117752Y308812D01*
X119844Y311943D01*
X121285Y315423D01*
X122020Y319117D01*
Y322883D01*
X121285Y326577D01*
X119844Y330057D01*
X117752Y333188D01*
X115088Y335852D01*
X111957Y337944D01*
X108477Y339385D01*
X104783Y340120D01*
D02*
G37*
G36*
X386118Y310540D02*
X383914D01*
X381878Y309697D01*
X380319Y308138D01*
X379476Y306102D01*
Y303898D01*
X380319Y301862D01*
X381878Y300303D01*
X383914Y299460D01*
X386118D01*
X388154Y300303D01*
X389713Y301862D01*
X390556Y303898D01*
Y306102D01*
X389713Y308138D01*
X388154Y309697D01*
X386118Y310540D01*
D02*
G37*
G36*
X212102Y297540D02*
X209898D01*
X207862Y296697D01*
X206303Y295138D01*
X205460Y293102D01*
Y290898D01*
X206303Y288862D01*
X207862Y287303D01*
X209898Y286460D01*
X212102D01*
X214138Y287303D01*
X215697Y288862D01*
X216540Y290898D01*
Y293102D01*
X215697Y295138D01*
X214138Y296697D01*
X212102Y297540D01*
D02*
G37*
G36*
X579618Y284178D02*
X577414D01*
X575378Y283335D01*
X573819Y281776D01*
X572976Y279740D01*
Y277536D01*
X573819Y275500D01*
X575378Y273941D01*
X577414Y273098D01*
X579618D01*
X581654Y273941D01*
X583213Y275500D01*
X584056Y277536D01*
Y279740D01*
X583213Y281776D01*
X581654Y283335D01*
X579618Y284178D01*
D02*
G37*
G36*
X290236Y282540D02*
X288032D01*
X285996Y281697D01*
X284437Y280138D01*
X283594Y278102D01*
Y275898D01*
X284437Y273862D01*
X285996Y272303D01*
X288032Y271460D01*
X290236D01*
X292272Y272303D01*
X293831Y273862D01*
X294674Y275898D01*
Y278102D01*
X293831Y280138D01*
X292272Y281697D01*
X290236Y282540D01*
D02*
G37*
G36*
X422102Y281540D02*
X419898D01*
X417862Y280697D01*
X416303Y279138D01*
X415460Y277102D01*
Y274898D01*
X416303Y272862D01*
X417862Y271303D01*
X419898Y270460D01*
X422102D01*
X424138Y271303D01*
X425697Y272862D01*
X426540Y274898D01*
Y277102D01*
X425697Y279138D01*
X424138Y280697D01*
X422102Y281540D01*
D02*
G37*
G36*
X134102Y272540D02*
X131898D01*
X129862Y271697D01*
X128303Y270138D01*
X127460Y268102D01*
Y265898D01*
X128303Y263862D01*
X129862Y262303D01*
X131898Y261460D01*
X134102D01*
X136138Y262303D01*
X137697Y263862D01*
X138540Y265898D01*
Y268102D01*
X137697Y270138D01*
X136138Y271697D01*
X134102Y272540D01*
D02*
G37*
G36*
X633902Y244035D02*
X631797D01*
X629853Y243229D01*
X628849Y242226D01*
X627846Y243229D01*
X625902Y244035D01*
X623797D01*
X621853Y243229D01*
X620365Y241741D01*
X619559Y239797D01*
Y237692D01*
X620365Y235748D01*
X621853Y234260D01*
X623559Y233553D01*
Y231936D01*
X621853Y231229D01*
X620365Y229741D01*
X619559Y227797D01*
Y225692D01*
X620365Y223748D01*
X621853Y222260D01*
X623797Y221455D01*
X625902D01*
X627846Y222260D01*
X628849Y223263D01*
X629853Y222260D01*
X631797Y221455D01*
X633902D01*
X635846Y222260D01*
X637334Y223748D01*
X638139Y225692D01*
Y227797D01*
X637334Y229741D01*
X635846Y231229D01*
X634139Y231936D01*
Y233553D01*
X635846Y234260D01*
X637334Y235748D01*
X638139Y237692D01*
Y239797D01*
X637334Y241741D01*
X635846Y243229D01*
X633902Y244035D01*
D02*
G37*
G36*
X48673Y248040D02*
X46469D01*
X44433Y247197D01*
X42874Y245638D01*
X42031Y243602D01*
Y241398D01*
X42874Y239362D01*
X44433Y237803D01*
X46469Y236960D01*
X48673D01*
X50709Y237803D01*
X52267Y239362D01*
X53111Y241398D01*
Y243602D01*
X52267Y245638D01*
X50709Y247197D01*
X48673Y248040D01*
D02*
G37*
G36*
X525102Y247540D02*
X522898D01*
X520862Y246697D01*
X519303Y245138D01*
X518460Y243102D01*
Y240898D01*
X519303Y238862D01*
X520862Y237303D01*
X522898Y236460D01*
X525102D01*
X527138Y237303D01*
X528697Y238862D01*
X529540Y240898D01*
Y243102D01*
X528697Y245138D01*
X527138Y246697D01*
X525102Y247540D01*
D02*
G37*
G36*
X551602Y247253D02*
X549398D01*
X547362Y246410D01*
X545803Y244852D01*
X544960Y242815D01*
Y240611D01*
X545803Y238575D01*
X547362Y237017D01*
X549398Y236173D01*
X551602D01*
X553638Y237017D01*
X555197Y238575D01*
X556040Y240611D01*
Y242815D01*
X555197Y244852D01*
X553638Y246410D01*
X551602Y247253D01*
D02*
G37*
G36*
X67102Y233540D02*
X64898D01*
X62862Y232697D01*
X61303Y231138D01*
X60460Y229102D01*
Y226898D01*
X61303Y224862D01*
X62862Y223303D01*
X64898Y222460D01*
X67102D01*
X69138Y223303D01*
X70697Y224862D01*
X71540Y226898D01*
Y229102D01*
X70697Y231138D01*
X69138Y232697D01*
X67102Y233540D01*
D02*
G37*
G36*
X435959Y227981D02*
X433755D01*
X431719Y227138D01*
X430160Y225579D01*
X429317Y223543D01*
Y221339D01*
X430160Y219303D01*
X431719Y217744D01*
X433755Y216901D01*
X435959D01*
X437995Y217744D01*
X439554Y219303D01*
X440397Y221339D01*
Y223543D01*
X439554Y225579D01*
X437995Y227138D01*
X435959Y227981D01*
D02*
G37*
G36*
X633902Y206123D02*
X631797D01*
X629853Y205317D01*
X628849Y204314D01*
X627846Y205317D01*
X625902Y206123D01*
X623797D01*
X621853Y205317D01*
X620365Y203829D01*
X619559Y201885D01*
Y199781D01*
X620365Y197836D01*
X621853Y196348D01*
X623559Y195641D01*
Y194024D01*
X621853Y193317D01*
X620365Y191829D01*
X619559Y189885D01*
Y187780D01*
X620365Y185836D01*
X621853Y184348D01*
X623797Y183543D01*
X625902D01*
X627846Y184348D01*
X628849Y185352D01*
X629853Y184348D01*
X631797Y183543D01*
X633902D01*
X635846Y184348D01*
X637334Y185836D01*
X638139Y187780D01*
Y189885D01*
X637334Y191829D01*
X635846Y193317D01*
X634139Y194024D01*
Y195641D01*
X635846Y196348D01*
X637334Y197836D01*
X638139Y199781D01*
Y201885D01*
X637334Y203829D01*
X635846Y205317D01*
X633902Y206123D01*
D02*
G37*
G36*
X663681Y194756D02*
X661477D01*
X659441Y193912D01*
X657882Y192354D01*
X657039Y190318D01*
Y188114D01*
X657882Y186077D01*
X659441Y184519D01*
X661477Y183676D01*
X663681D01*
X665717Y184519D01*
X667275Y186077D01*
X668119Y188114D01*
Y190318D01*
X667275Y192354D01*
X665717Y193912D01*
X663681Y194756D01*
D02*
G37*
G36*
X550102Y194422D02*
X547898D01*
X545862Y193579D01*
X544303Y192020D01*
X543460Y189984D01*
Y187780D01*
X544303Y185744D01*
X545862Y184186D01*
X547898Y183342D01*
X550102D01*
X552138Y184186D01*
X553697Y185744D01*
X554540Y187780D01*
Y189984D01*
X553697Y192020D01*
X552138Y193579D01*
X550102Y194422D01*
D02*
G37*
G36*
X567381Y165540D02*
X565177D01*
X563140Y164697D01*
X561582Y163138D01*
X560739Y161102D01*
Y158898D01*
X561582Y156862D01*
X563140Y155303D01*
X565177Y154460D01*
X567381D01*
X569417Y155303D01*
X570975Y156862D01*
X571819Y158898D01*
Y161102D01*
X570975Y163138D01*
X569417Y164697D01*
X567381Y165540D01*
D02*
G37*
G36*
X34390Y163090D02*
X13610D01*
Y142310D01*
X34390D01*
Y163090D01*
D02*
G37*
G36*
X448102Y146540D02*
X445898D01*
X443862Y145697D01*
X442303Y144138D01*
X441460Y142102D01*
Y139898D01*
X442303Y137862D01*
X443862Y136303D01*
X445898Y135460D01*
X448102D01*
X450138Y136303D01*
X451697Y137862D01*
X452540Y139898D01*
Y142102D01*
X451697Y144138D01*
X450138Y145697D01*
X448102Y146540D01*
D02*
G37*
G36*
X579397Y142540D02*
X577193D01*
X575156Y141697D01*
X573598Y140138D01*
X572755Y138102D01*
Y135898D01*
X573598Y133862D01*
X575156Y132303D01*
X577193Y131460D01*
X579397D01*
X581433Y132303D01*
X582991Y133862D01*
X583834Y135898D01*
Y138102D01*
X582991Y140138D01*
X581433Y141697D01*
X579397Y142540D01*
D02*
G37*
G36*
X25368Y137690D02*
X22632D01*
X19990Y136982D01*
X17620Y135614D01*
X15686Y133680D01*
X14318Y131310D01*
X13610Y128668D01*
Y125932D01*
X14318Y123290D01*
X15686Y120920D01*
X17620Y118986D01*
X19990Y117618D01*
X22632Y116910D01*
X25368D01*
X28010Y117618D01*
X30380Y118986D01*
X32314Y120920D01*
X33682Y123290D01*
X34390Y125932D01*
Y128668D01*
X33682Y131310D01*
X32314Y133680D01*
X30380Y135614D01*
X28010Y136982D01*
X25368Y137690D01*
D02*
G37*
G36*
X633680Y106290D02*
X631576D01*
X629631Y105485D01*
X628628Y104481D01*
X627625Y105485D01*
X625680Y106290D01*
X623576D01*
X621631Y105485D01*
X620143Y103996D01*
X619338Y102052D01*
Y99948D01*
X620143Y98004D01*
X621631Y96515D01*
X623338Y95808D01*
Y94192D01*
X621631Y93485D01*
X620143Y91997D01*
X619338Y90052D01*
Y87948D01*
X620143Y86004D01*
X621631Y84515D01*
X623576Y83710D01*
X625680D01*
X627625Y84515D01*
X628628Y85519D01*
X629631Y84515D01*
X631576Y83710D01*
X633680D01*
X635625Y84515D01*
X637113Y86004D01*
X637918Y87948D01*
Y90052D01*
X637113Y91997D01*
X635625Y93485D01*
X633918Y94192D01*
Y95808D01*
X635625Y96515D01*
X637113Y98004D01*
X637918Y99948D01*
Y102052D01*
X637113Y103996D01*
X635625Y105485D01*
X633680Y106290D01*
D02*
G37*
G36*
X461102Y110540D02*
X458898D01*
X456862Y109697D01*
X455303Y108138D01*
X454460Y106102D01*
Y103898D01*
X455303Y101862D01*
X456862Y100303D01*
X458898Y99460D01*
X461102D01*
X463138Y100303D01*
X464697Y101862D01*
X465540Y103898D01*
Y106102D01*
X464697Y108138D01*
X463138Y109697D01*
X461102Y110540D01*
D02*
G37*
G36*
X551381Y109509D02*
X549177D01*
X547140Y108666D01*
X545582Y107107D01*
X544739Y105071D01*
Y102867D01*
X545582Y100831D01*
X547140Y99272D01*
X549177Y98429D01*
X551381D01*
X553417Y99272D01*
X554975Y100831D01*
X555819Y102867D01*
Y105071D01*
X554975Y107107D01*
X553417Y108666D01*
X551381Y109509D01*
D02*
G37*
G36*
X515881Y108795D02*
X513677D01*
X511640Y107952D01*
X510082Y106394D01*
X509239Y104357D01*
Y102154D01*
X510082Y100117D01*
X511640Y98559D01*
X513677Y97716D01*
X515881D01*
X517917Y98559D01*
X519475Y100117D01*
X520319Y102154D01*
Y104357D01*
X519475Y106394D01*
X517917Y107952D01*
X515881Y108795D01*
D02*
G37*
G36*
X300102Y84540D02*
X297898D01*
X295862Y83697D01*
X294303Y82138D01*
X293460Y80102D01*
Y77898D01*
X294303Y75862D01*
X295862Y74303D01*
X297898Y73460D01*
X300102D01*
X302138Y74303D01*
X303697Y75862D01*
X304540Y77898D01*
Y80102D01*
X303697Y82138D01*
X302138Y83697D01*
X300102Y84540D01*
D02*
G37*
G36*
X633680Y68378D02*
X631576D01*
X629631Y67573D01*
X628628Y66569D01*
X627625Y67573D01*
X625680Y68378D01*
X623576D01*
X621631Y67573D01*
X620143Y66085D01*
X619338Y64140D01*
Y62036D01*
X620143Y60092D01*
X621631Y58604D01*
X623338Y57897D01*
Y56280D01*
X621631Y55573D01*
X620143Y54085D01*
X619338Y52140D01*
Y50036D01*
X620143Y48092D01*
X621631Y46604D01*
X623576Y45798D01*
X625680D01*
X627625Y46604D01*
X628628Y47607D01*
X629631Y46604D01*
X631576Y45798D01*
X633680D01*
X635625Y46604D01*
X637113Y48092D01*
X637918Y50036D01*
Y52140D01*
X637113Y54085D01*
X635625Y55573D01*
X633918Y56280D01*
Y57897D01*
X635625Y58604D01*
X637113Y60092D01*
X637918Y62036D01*
Y64140D01*
X637113Y66085D01*
X635625Y67573D01*
X633680Y68378D01*
D02*
G37*
G36*
X553618Y58533D02*
X551414D01*
X549378Y57690D01*
X547820Y56131D01*
X546976Y54095D01*
Y51891D01*
X547820Y49855D01*
X549378Y48297D01*
X551414Y47453D01*
X553618D01*
X555654Y48297D01*
X557213Y49855D01*
X558056Y51891D01*
Y54095D01*
X557213Y56131D01*
X555654Y57690D01*
X553618Y58533D01*
D02*
G37*
G36*
X663459Y57011D02*
X661255D01*
X659219Y56168D01*
X657661Y54609D01*
X656817Y52573D01*
Y50369D01*
X657661Y48333D01*
X659219Y46774D01*
X661255Y45931D01*
X663459D01*
X665496Y46774D01*
X667054Y48333D01*
X667897Y50369D01*
Y52573D01*
X667054Y54609D01*
X665496Y56168D01*
X663459Y57011D01*
D02*
G37*
G36*
X278102Y41540D02*
X275898D01*
X273862Y40697D01*
X272303Y39138D01*
X271460Y37102D01*
Y34898D01*
X272303Y32862D01*
X273862Y31303D01*
X275898Y30460D01*
X278102D01*
X280138Y31303D01*
X281697Y32862D01*
X282540Y34898D01*
Y37102D01*
X281697Y39138D01*
X280138Y40697D01*
X278102Y41540D01*
D02*
G37*
G36*
X593881Y30826D02*
X591677D01*
X589640Y29983D01*
X588082Y28424D01*
X587239Y26388D01*
Y24184D01*
X588082Y22148D01*
X589640Y20589D01*
X591677Y19746D01*
X593881D01*
X595917Y20589D01*
X597475Y22148D01*
X598319Y24184D01*
Y26388D01*
X597475Y28424D01*
X595917Y29983D01*
X593881Y30826D01*
D02*
G37*
G36*
X502220Y62540D02*
X497780D01*
X493425Y61674D01*
X489323Y59975D01*
X485632Y57508D01*
X482492Y54368D01*
X480025Y50677D01*
X478326Y46575D01*
X477460Y42220D01*
Y37780D01*
X478326Y33425D01*
X480025Y29323D01*
X482492Y25632D01*
X485632Y22492D01*
X489323Y20025D01*
X493425Y18326D01*
X497780Y17460D01*
X502220D01*
X506575Y18326D01*
X510677Y20025D01*
X514368Y22492D01*
X517508Y25632D01*
X519975Y29323D01*
X521674Y33425D01*
X522540Y37780D01*
Y42220D01*
X521674Y46575D01*
X519975Y50677D01*
X517508Y54368D01*
X514368Y57508D01*
X510677Y59975D01*
X506575Y61674D01*
X502220Y62540D01*
D02*
G37*
G36*
X32220D02*
X27780D01*
X23425Y61674D01*
X19323Y59975D01*
X15632Y57508D01*
X12492Y54368D01*
X10025Y50677D01*
X8326Y46575D01*
X7460Y42220D01*
Y37780D01*
X8326Y33425D01*
X10025Y29323D01*
X12492Y25632D01*
X15632Y22492D01*
X19323Y20025D01*
X23425Y18326D01*
X27780Y17460D01*
X32220D01*
X36575Y18326D01*
X40677Y20025D01*
X44368Y22492D01*
X47508Y25632D01*
X49975Y29323D01*
X51674Y33425D01*
X52540Y37780D01*
Y42220D01*
X51674Y46575D01*
X49975Y50677D01*
X47508Y54368D01*
X44368Y57508D01*
X40677Y59975D01*
X36575Y61674D01*
X32220Y62540D01*
D02*
G37*
G36*
X761388Y585540D02*
X758612D01*
X755932Y584822D01*
X753528Y583434D01*
X751566Y581472D01*
X750178Y579068D01*
X749460Y576388D01*
Y573612D01*
X750178Y570932D01*
X751566Y568528D01*
X753528Y566566D01*
X755932Y565178D01*
X758612Y564460D01*
X761388D01*
X764068Y565178D01*
X766472Y566566D01*
X768434Y568528D01*
X769822Y570932D01*
X770540Y573612D01*
Y576388D01*
X769822Y579068D01*
X768434Y581472D01*
X766472Y583434D01*
X764068Y584822D01*
X761388Y585540D01*
D02*
G37*
G36*
Y560540D02*
X758612D01*
X755932Y559822D01*
X753528Y558434D01*
X751566Y556472D01*
X750178Y554068D01*
X749460Y551388D01*
Y548612D01*
X750178Y545932D01*
X751566Y543528D01*
X753528Y541566D01*
X755932Y540178D01*
X758612Y539460D01*
X761388D01*
X764068Y540178D01*
X766472Y541566D01*
X768434Y543528D01*
X769822Y545932D01*
X770540Y548612D01*
Y551388D01*
X769822Y554068D01*
X768434Y556472D01*
X766472Y558434D01*
X764068Y559822D01*
X761388Y560540D01*
D02*
G37*
G36*
Y510540D02*
X758612D01*
X755932Y509822D01*
X753528Y508434D01*
X751566Y506472D01*
X750178Y504068D01*
X749460Y501388D01*
Y498612D01*
X750178Y495932D01*
X751566Y493528D01*
X753528Y491566D01*
X755932Y490178D01*
X758612Y489460D01*
X761388D01*
X764068Y490178D01*
X766472Y491566D01*
X768434Y493528D01*
X769822Y495932D01*
X770540Y498612D01*
Y501388D01*
X769822Y504068D01*
X768434Y506472D01*
X766472Y508434D01*
X764068Y509822D01*
X761388Y510540D01*
D02*
G37*
G36*
X714102Y489540D02*
X711898D01*
X709862Y488697D01*
X708303Y487138D01*
X707460Y485102D01*
Y482898D01*
X708303Y480862D01*
X709862Y479303D01*
X711898Y478460D01*
X714102D01*
X716138Y479303D01*
X717697Y480862D01*
X718540Y482898D01*
Y485102D01*
X717697Y487138D01*
X716138Y488697D01*
X714102Y489540D01*
D02*
G37*
G36*
X685102Y481974D02*
X682898D01*
X680862Y481131D01*
X679303Y479572D01*
X678460Y477536D01*
Y475332D01*
X679303Y473296D01*
X680862Y471737D01*
X682898Y470894D01*
X685102D01*
X687138Y471737D01*
X688697Y473296D01*
X689540Y475332D01*
Y477536D01*
X688697Y479572D01*
X687138Y481131D01*
X685102Y481974D01*
D02*
G37*
G36*
X761388Y485540D02*
X758612D01*
X755932Y484822D01*
X753528Y483434D01*
X751566Y481472D01*
X750178Y479068D01*
X749460Y476388D01*
Y473612D01*
X750178Y470932D01*
X751566Y468528D01*
X753528Y466566D01*
X755932Y465178D01*
X758612Y464460D01*
X761388D01*
X764068Y465178D01*
X766472Y466566D01*
X768434Y468528D01*
X769822Y470932D01*
X770540Y473612D01*
Y476388D01*
X769822Y479068D01*
X768434Y481472D01*
X766472Y483434D01*
X764068Y484822D01*
X761388Y485540D01*
D02*
G37*
G36*
Y435540D02*
X758612D01*
X755932Y434822D01*
X753528Y433434D01*
X751566Y431472D01*
X750178Y429068D01*
X749460Y426388D01*
Y423612D01*
X750178Y420932D01*
X751566Y418528D01*
X753528Y416566D01*
X755932Y415178D01*
X758612Y414460D01*
X761388D01*
X764068Y415178D01*
X766472Y416566D01*
X768434Y418528D01*
X769822Y420932D01*
X770540Y423612D01*
Y426388D01*
X769822Y429068D01*
X768434Y431472D01*
X766472Y433434D01*
X764068Y434822D01*
X761388Y435540D01*
D02*
G37*
G36*
Y410540D02*
X758612D01*
X755932Y409822D01*
X753528Y408434D01*
X751566Y406472D01*
X750178Y404068D01*
X749460Y401388D01*
Y398612D01*
X750178Y395932D01*
X751566Y393528D01*
X753528Y391566D01*
X755932Y390178D01*
X758612Y389460D01*
X761388D01*
X764068Y390178D01*
X766472Y391566D01*
X768434Y393528D01*
X769822Y395932D01*
X770540Y398612D01*
Y401388D01*
X769822Y404068D01*
X768434Y406472D01*
X766472Y408434D01*
X764068Y409822D01*
X761388Y410540D01*
D02*
G37*
G36*
Y360540D02*
X758612D01*
X755932Y359822D01*
X753528Y358434D01*
X751566Y356472D01*
X750178Y354068D01*
X749460Y351388D01*
Y348612D01*
X750178Y345932D01*
X751566Y343528D01*
X753528Y341566D01*
X755932Y340178D01*
X758612Y339460D01*
X761388D01*
X764068Y340178D01*
X766472Y341566D01*
X768434Y343528D01*
X769822Y345932D01*
X770540Y348612D01*
Y351388D01*
X769822Y354068D01*
X768434Y356472D01*
X766472Y358434D01*
X764068Y359822D01*
X761388Y360540D01*
D02*
G37*
G36*
X720102Y334540D02*
X717898D01*
X715862Y333697D01*
X714303Y332138D01*
X713460Y330102D01*
Y327898D01*
X714303Y325862D01*
X715862Y324303D01*
X717898Y323460D01*
X720102D01*
X722138Y324303D01*
X723697Y325862D01*
X724540Y327898D01*
Y330102D01*
X723697Y332138D01*
X722138Y333697D01*
X720102Y334540D01*
D02*
G37*
G36*
X684966Y329558D02*
X682762D01*
X680725Y328715D01*
X679167Y327156D01*
X678324Y325120D01*
Y322916D01*
X679167Y320880D01*
X680725Y319321D01*
X682762Y318478D01*
X684966D01*
X687002Y319321D01*
X688560Y320880D01*
X689404Y322916D01*
Y325120D01*
X688560Y327156D01*
X687002Y328715D01*
X684966Y329558D01*
D02*
G37*
G36*
X761388Y335540D02*
X758612D01*
X755932Y334822D01*
X753528Y333434D01*
X751566Y331472D01*
X750178Y329068D01*
X749460Y326388D01*
Y323612D01*
X750178Y320932D01*
X751566Y318528D01*
X753528Y316566D01*
X755932Y315178D01*
X758612Y314460D01*
X761388D01*
X764068Y315178D01*
X766472Y316566D01*
X768434Y318528D01*
X769822Y320932D01*
X770540Y323612D01*
Y326388D01*
X769822Y329068D01*
X768434Y331472D01*
X766472Y333434D01*
X764068Y334822D01*
X761388Y335540D01*
D02*
G37*
G36*
Y285540D02*
X758612D01*
X755932Y284822D01*
X753528Y283434D01*
X751566Y281472D01*
X750178Y279068D01*
X749460Y276388D01*
Y273612D01*
X750178Y270932D01*
X751566Y268528D01*
X753528Y266566D01*
X755932Y265178D01*
X758612Y264460D01*
X761388D01*
X764068Y265178D01*
X766472Y266566D01*
X768434Y268528D01*
X769822Y270932D01*
X770540Y273612D01*
Y276388D01*
X769822Y279068D01*
X768434Y281472D01*
X766472Y283434D01*
X764068Y284822D01*
X761388Y285540D01*
D02*
G37*
G36*
Y260540D02*
X758612D01*
X755932Y259822D01*
X753528Y258434D01*
X751566Y256472D01*
X750178Y254068D01*
X749460Y251388D01*
Y248612D01*
X750178Y245932D01*
X751566Y243528D01*
X753528Y241566D01*
X755932Y240178D01*
X758612Y239460D01*
X761388D01*
X764068Y240178D01*
X766472Y241566D01*
X768434Y243528D01*
X769822Y245932D01*
X770540Y248612D01*
Y251388D01*
X769822Y254068D01*
X768434Y256472D01*
X766472Y258434D01*
X764068Y259822D01*
X761388Y260540D01*
D02*
G37*
G36*
Y210540D02*
X758612D01*
X755932Y209822D01*
X753528Y208434D01*
X751566Y206472D01*
X750178Y204068D01*
X749460Y201388D01*
Y198612D01*
X750178Y195932D01*
X751566Y193528D01*
X753528Y191566D01*
X755932Y190178D01*
X758612Y189460D01*
X761388D01*
X764068Y190178D01*
X766472Y191566D01*
X768434Y193528D01*
X769822Y195932D01*
X770540Y198612D01*
Y201388D01*
X769822Y204068D01*
X768434Y206472D01*
X766472Y208434D01*
X764068Y209822D01*
X761388Y210540D01*
D02*
G37*
G36*
X719102Y187540D02*
X716898D01*
X714862Y186697D01*
X713303Y185138D01*
X712460Y183102D01*
Y180898D01*
X713303Y178862D01*
X714862Y177303D01*
X716898Y176460D01*
X719102D01*
X721138Y177303D01*
X722697Y178862D01*
X723540Y180898D01*
Y183102D01*
X722697Y185138D01*
X721138Y186697D01*
X719102Y187540D01*
D02*
G37*
G36*
X684602Y179540D02*
X682398D01*
X680362Y178697D01*
X678803Y177138D01*
X677960Y175102D01*
Y172898D01*
X678803Y170862D01*
X680362Y169303D01*
X682398Y168460D01*
X684602D01*
X686638Y169303D01*
X688197Y170862D01*
X689040Y172898D01*
Y175102D01*
X688197Y177138D01*
X686638Y178697D01*
X684602Y179540D01*
D02*
G37*
G36*
X761388Y185540D02*
X758612D01*
X755932Y184822D01*
X753528Y183434D01*
X751566Y181472D01*
X750178Y179068D01*
X749460Y176388D01*
Y173612D01*
X750178Y170932D01*
X751566Y168528D01*
X753528Y166566D01*
X755932Y165178D01*
X758612Y164460D01*
X761388D01*
X764068Y165178D01*
X766472Y166566D01*
X768434Y168528D01*
X769822Y170932D01*
X770540Y173612D01*
Y176388D01*
X769822Y179068D01*
X768434Y181472D01*
X766472Y183434D01*
X764068Y184822D01*
X761388Y185540D01*
D02*
G37*
G36*
Y135540D02*
X758612D01*
X755932Y134822D01*
X753528Y133434D01*
X751566Y131472D01*
X750178Y129068D01*
X749460Y126388D01*
Y123612D01*
X750178Y120932D01*
X751566Y118528D01*
X753528Y116566D01*
X755932Y115178D01*
X758612Y114460D01*
X761388D01*
X764068Y115178D01*
X766472Y116566D01*
X768434Y118528D01*
X769822Y120932D01*
X770540Y123612D01*
Y126388D01*
X769822Y129068D01*
X768434Y131472D01*
X766472Y133434D01*
X764068Y134822D01*
X761388Y135540D01*
D02*
G37*
G36*
Y110540D02*
X758612D01*
X755932Y109822D01*
X753528Y108434D01*
X751566Y106472D01*
X750178Y104068D01*
X749460Y101388D01*
Y98612D01*
X750178Y95932D01*
X751566Y93528D01*
X753528Y91566D01*
X755932Y90178D01*
X758612Y89460D01*
X761388D01*
X764068Y90178D01*
X766472Y91566D01*
X768434Y93528D01*
X769822Y95932D01*
X770540Y98612D01*
Y101388D01*
X769822Y104068D01*
X768434Y106472D01*
X766472Y108434D01*
X764068Y109822D01*
X761388Y110540D01*
D02*
G37*
G36*
X713102Y51540D02*
X710898D01*
X708862Y50697D01*
X707303Y49138D01*
X706460Y47102D01*
Y44898D01*
X707303Y42862D01*
X708862Y41303D01*
X710898Y40460D01*
X713102D01*
X715138Y41303D01*
X716697Y42862D01*
X717540Y44898D01*
Y47102D01*
X716697Y49138D01*
X715138Y50697D01*
X713102Y51540D01*
D02*
G37*
G36*
X761388Y60540D02*
X758612D01*
X755932Y59822D01*
X753528Y58434D01*
X751566Y56472D01*
X750178Y54068D01*
X749460Y51388D01*
Y48612D01*
X750178Y45932D01*
X751566Y43528D01*
X753528Y41566D01*
X755932Y40178D01*
X758612Y39460D01*
X761388D01*
X764068Y40178D01*
X766472Y41566D01*
X768434Y43528D01*
X769822Y45932D01*
X770540Y48612D01*
Y51388D01*
X769822Y54068D01*
X768434Y56472D01*
X766472Y58434D01*
X764068Y59822D01*
X761388Y60540D01*
D02*
G37*
G36*
X686102Y44229D02*
X683898D01*
X681862Y43386D01*
X680303Y41828D01*
X679460Y39792D01*
Y37587D01*
X680303Y35551D01*
X681862Y33993D01*
X683898Y33149D01*
X686102D01*
X688138Y33993D01*
X689697Y35551D01*
X690540Y37587D01*
Y39792D01*
X689697Y41828D01*
X688138Y43386D01*
X686102Y44229D01*
D02*
G37*
G36*
X761388Y35540D02*
X758612D01*
X755932Y34822D01*
X753528Y33434D01*
X751566Y31472D01*
X750178Y29068D01*
X749460Y26388D01*
Y23612D01*
X750178Y20932D01*
X751566Y18528D01*
X753528Y16566D01*
X755932Y15178D01*
X758612Y14460D01*
X761388D01*
X764068Y15178D01*
X766472Y16566D01*
X768434Y18528D01*
X769822Y20932D01*
X770540Y23612D01*
Y26388D01*
X769822Y29068D01*
X768434Y31472D01*
X766472Y33434D01*
X764068Y34822D01*
X761388Y35540D01*
D02*
G37*
%LPD*%
D58*
X193000Y269000D02*
D03*
X180000Y284000D02*
D03*
D63*
X24000Y152700D02*
D03*
D64*
Y127300D02*
D03*
D73*
X30000Y40000D02*
D03*
X500000D02*
D03*
Y560000D02*
D03*
D74*
X760000Y25000D02*
D03*
Y50000D02*
D03*
Y175000D02*
D03*
Y200000D02*
D03*
Y325000D02*
D03*
Y350000D02*
D03*
Y475000D02*
D03*
Y500000D02*
D03*
Y100000D02*
D03*
Y125000D02*
D03*
Y250000D02*
D03*
Y275000D02*
D03*
Y400000D02*
D03*
Y425000D02*
D03*
Y550000D02*
D03*
Y575000D02*
D03*
D75*
X150000Y393700D02*
D03*
Y368700D02*
D03*
X130000Y393700D02*
D03*
Y368700D02*
D03*
D77*
X102900Y441400D02*
D03*
Y321000D02*
D03*
D78*
X229000Y492000D02*
D03*
X81000Y490000D02*
D03*
X241000Y588000D02*
D03*
X286000Y506000D02*
D03*
X285613Y523500D02*
D03*
X212000Y513000D02*
D03*
X211000Y530000D02*
D03*
X475000Y320000D02*
D03*
X182000Y495820D02*
D03*
D79*
X361055Y345420D02*
D03*
X253000Y337000D02*
D03*
X211000Y292000D02*
D03*
X344444Y455000D02*
D03*
X447000Y141000D02*
D03*
X434857Y222441D02*
D03*
X552516Y52993D02*
D03*
X460000Y105000D02*
D03*
X566279Y160000D02*
D03*
X420000Y381000D02*
D03*
X473888Y405000D02*
D03*
X475000Y463000D02*
D03*
X477000Y588000D02*
D03*
X454000Y320000D02*
D03*
X550000Y314000D02*
D03*
X368629Y345682D02*
D03*
X265000Y406452D02*
D03*
X636000Y457000D02*
D03*
X330000Y315000D02*
D03*
X277000Y36000D02*
D03*
X238286Y406000D02*
D03*
X587000Y427000D02*
D03*
X684000Y476434D02*
D03*
X713000Y484000D02*
D03*
X662579Y489216D02*
D03*
X663865Y535994D02*
D03*
X662579Y334216D02*
D03*
X719000Y329000D02*
D03*
X718000Y182000D02*
D03*
X592779Y25286D02*
D03*
X647779D02*
D03*
X695000Y15000D02*
D03*
X685000Y38689D02*
D03*
X662357Y51471D02*
D03*
X663312Y98195D02*
D03*
X662579Y189216D02*
D03*
X257000Y440367D02*
D03*
X266000D02*
D03*
X274895Y440158D02*
D03*
X247680Y439720D02*
D03*
X359444Y430000D02*
D03*
X420000Y396000D02*
D03*
Y388730D02*
D03*
Y403800D02*
D03*
X385016Y305000D02*
D03*
X339730Y345000D02*
D03*
X47571Y242500D02*
D03*
X421000Y276000D02*
D03*
X289134Y277000D02*
D03*
X639000Y159266D02*
D03*
X408224Y311876D02*
D03*
X303352Y367066D02*
D03*
X191000Y389000D02*
D03*
X202000Y345000D02*
D03*
X391000Y359000D02*
D03*
X299000Y79000D02*
D03*
X712000Y46000D02*
D03*
X578295Y137000D02*
D03*
X683500Y174000D02*
D03*
X524000Y387750D02*
D03*
X549484Y386713D02*
D03*
X578516Y278638D02*
D03*
X641000Y301000D02*
D03*
X683864Y324018D02*
D03*
X360000Y322000D02*
D03*
X380000Y469000D02*
D03*
X701934Y368250D02*
D03*
X700000Y223250D02*
D03*
X699279Y85506D02*
D03*
X514779Y103256D02*
D03*
X550279Y103969D02*
D03*
X701273Y523250D02*
D03*
X664000Y237745D02*
D03*
X663842Y380943D02*
D03*
X545684Y488882D02*
D03*
X524000Y242000D02*
D03*
X550500Y541713D02*
D03*
X595000Y555000D02*
D03*
X524000Y541713D02*
D03*
X633849Y562307D02*
D03*
X549000Y188882D02*
D03*
X550500Y241713D02*
D03*
X549000Y332000D02*
D03*
X179000Y511000D02*
D03*
X66000Y228000D02*
D03*
X133000Y267000D02*
D03*
X41000Y468000D02*
D03*
X178000Y451000D02*
D03*
X303416Y356970D02*
D03*
X327000Y334000D02*
D03*
X308000Y470000D02*
D03*
X158000Y522000D02*
D03*
X314000Y440000D02*
D03*
X302000Y441000D02*
D03*
X294000D02*
D03*
X285000D02*
D03*
X390000Y435000D02*
D03*
D80*
X628628Y57088D02*
D03*
X624628Y51088D02*
D03*
X632628D02*
D03*
Y63088D02*
D03*
X624628D02*
D03*
X628849Y194833D02*
D03*
X624849Y188833D02*
D03*
X632849D02*
D03*
Y200833D02*
D03*
X624849D02*
D03*
X628849Y339833D02*
D03*
X624849Y333833D02*
D03*
X632849D02*
D03*
Y345833D02*
D03*
X624849D02*
D03*
X628849Y494833D02*
D03*
X624849Y488833D02*
D03*
X632849D02*
D03*
Y500833D02*
D03*
X624849D02*
D03*
X628628Y95000D02*
D03*
X624628Y101000D02*
D03*
X632628D02*
D03*
Y89000D02*
D03*
X624628D02*
D03*
X628849Y232745D02*
D03*
X624849Y238745D02*
D03*
X632849D02*
D03*
Y226745D02*
D03*
X624849D02*
D03*
X628849Y377745D02*
D03*
X624849Y383745D02*
D03*
X632849D02*
D03*
Y371745D02*
D03*
X624849D02*
D03*
X628849Y532744D02*
D03*
X624849Y538745D02*
D03*
X632849D02*
D03*
Y526744D02*
D03*
X624849D02*
D03*
D84*
X449600Y571000D02*
D03*
X424200D02*
D03*
X398800D02*
D03*
X373400D02*
D03*
X348000D02*
D03*
X322600D02*
D03*
M02*
