G04*
G04 #@! TF.GenerationSoftware,Altium Limited,Altium Designer,24.8.2 (39)*
G04*
G04 Layer_Physical_Order=2*
G04 Layer_Color=36540*
%FSLAX44Y44*%
%MOMM*%
G71*
G04*
G04 #@! TF.SameCoordinates,DE467F84-66AF-4C6A-BC95-973404F0CDF1*
G04*
G04*
G04 #@! TF.FilePolarity,Positive*
G04*
G01*
G75*
%ADD58C,1.2700*%
%ADD63R,1.5700X1.5700*%
%ADD64C,1.5700*%
%ADD70C,0.2032*%
%ADD71C,0.3048*%
%ADD73C,4.0000*%
%ADD74C,1.6000*%
%ADD75C,1.4280*%
%ADD77C,3.3160*%
%ADD78C,0.4500*%
%ADD79C,0.6000*%
%ADD80C,0.5500*%
%ADD81R,2.0000X1.0000*%
%ADD82C,1.5000*%
%ADD83C,2.0000*%
%ADD84C,1.5240*%
G36*
X797961Y2039D02*
X2039D01*
Y326697D01*
X83244D01*
X84286Y325427D01*
X83780Y322883D01*
Y319117D01*
X84515Y315423D01*
X85956Y311943D01*
X88048Y308812D01*
X90712Y306148D01*
X93843Y304056D01*
X97323Y302615D01*
X101017Y301880D01*
X104783D01*
X108477Y302615D01*
X111957Y304056D01*
X115088Y306148D01*
X117752Y308812D01*
X119844Y311943D01*
X121285Y315423D01*
X122020Y319117D01*
Y322883D01*
X121514Y325427D01*
X122556Y326697D01*
X134392D01*
Y324237D01*
X134822Y320974D01*
X135984Y318168D01*
Y315721D01*
X137779D01*
X138085Y315322D01*
X140696Y313318D01*
X143737Y312059D01*
X147000Y311629D01*
X150263Y312059D01*
X153304Y313318D01*
X155915Y315322D01*
X156221Y315721D01*
X158016D01*
Y318168D01*
X159178Y320974D01*
X159608Y324237D01*
Y326697D01*
X449924D01*
X450355Y325427D01*
X449347Y324653D01*
X448301Y323290D01*
X447644Y321703D01*
X447420Y320000D01*
X447644Y318297D01*
X448301Y316710D01*
X449347Y315347D01*
X450710Y314301D01*
X452297Y313644D01*
X454000Y313420D01*
X475000D01*
X476703Y313644D01*
X478290Y314301D01*
X479653Y315347D01*
X480699Y316710D01*
X481356Y318297D01*
X481580Y320000D01*
Y361362D01*
X481356Y363065D01*
X480699Y364652D01*
X480469Y364952D01*
Y403052D01*
X480800Y403853D01*
X481024Y405556D01*
Y460496D01*
X481356Y461297D01*
X481580Y463000D01*
Y547552D01*
X482796Y547920D01*
X483676Y546603D01*
X486603Y543676D01*
X490045Y541376D01*
X493870Y539792D01*
X497930Y538984D01*
X499492D01*
Y560000D01*
Y581016D01*
X497930D01*
X493870Y580208D01*
X490045Y578624D01*
X486603Y576324D01*
X483676Y573397D01*
X482796Y572080D01*
X481580Y572448D01*
Y582201D01*
X481653Y582273D01*
X482699Y583636D01*
X483356Y585223D01*
X483580Y586926D01*
Y588000D01*
X483356Y589703D01*
X482699Y591290D01*
X481653Y592653D01*
X480290Y593699D01*
X478703Y594356D01*
X477000Y594580D01*
X476270Y594484D01*
X475000Y595540D01*
Y597961D01*
X797961D01*
Y2039D01*
D02*
G37*
G36*
X469902Y595540D02*
X469948Y595307D01*
X469924Y595071D01*
X470141Y594338D01*
X470290Y593589D01*
X470422Y593391D01*
X470489Y593164D01*
X470971Y592570D01*
X471395Y591935D01*
X471301Y591290D01*
X470766Y589998D01*
X470347Y589579D01*
X469301Y588216D01*
X468644Y586629D01*
X468420Y584926D01*
Y464948D01*
X468088Y464147D01*
X467864Y462444D01*
Y407504D01*
X467532Y406703D01*
X467308Y405000D01*
Y362473D01*
X467532Y360770D01*
X468190Y359183D01*
X468420Y358883D01*
Y326580D01*
X455290D01*
X455280Y326746D01*
X455205Y326898D01*
X455183Y327065D01*
X454752Y328335D01*
X454667Y328482D01*
X454634Y328647D01*
X454172Y329338D01*
X453757Y330058D01*
X453623Y330161D01*
X453529Y330301D01*
X452838Y330763D01*
X452179Y331269D01*
X452016Y331312D01*
X451875Y331407D01*
X451060Y331569D01*
X450257Y331784D01*
X450090Y331762D01*
X449924Y331795D01*
X333226D01*
X332520Y332850D01*
X332540Y332898D01*
Y335102D01*
X331697Y337138D01*
X330138Y338697D01*
X328102Y339540D01*
X325898D01*
X323862Y338697D01*
X322303Y337138D01*
X321460Y335102D01*
Y332898D01*
X321480Y332850D01*
X320774Y331795D01*
X159608D01*
Y334237D01*
X159178Y337500D01*
X158016Y340306D01*
Y342753D01*
X156221D01*
X155915Y343152D01*
X153304Y345156D01*
X150263Y346415D01*
X147000Y346845D01*
X143737Y346415D01*
X140696Y345156D01*
X138085Y343152D01*
X137779Y342753D01*
X135984D01*
Y340306D01*
X134822Y337500D01*
X134392Y334237D01*
Y331795D01*
X122556D01*
X122308Y331745D01*
X122057Y331770D01*
X121340Y331553D01*
X120605Y331407D01*
X120511Y331344D01*
X120112Y331207D01*
X118759Y331681D01*
X117752Y333188D01*
X115088Y335852D01*
X111957Y337944D01*
X108477Y339385D01*
X104783Y340120D01*
X101017D01*
X97323Y339385D01*
X93843Y337944D01*
X90712Y335852D01*
X88048Y333188D01*
X87041Y331681D01*
X85688Y331207D01*
X85289Y331344D01*
X85195Y331407D01*
X84460Y331553D01*
X83743Y331770D01*
X83492Y331745D01*
X83244Y331795D01*
X2039D01*
Y597961D01*
X469902D01*
Y595540D01*
D02*
G37*
%LPC*%
G36*
X761388Y585540D02*
X758612D01*
X755932Y584822D01*
X753528Y583434D01*
X751566Y581472D01*
X750178Y579068D01*
X749460Y576388D01*
Y573612D01*
X750178Y570932D01*
X751566Y568528D01*
X753528Y566566D01*
X755932Y565178D01*
X758612Y564460D01*
X761388D01*
X764068Y565178D01*
X766472Y566566D01*
X768434Y568528D01*
X769822Y570932D01*
X770540Y573612D01*
Y576388D01*
X769822Y579068D01*
X768434Y581472D01*
X766472Y583434D01*
X764068Y584822D01*
X761388Y585540D01*
D02*
G37*
G36*
X502070Y581016D02*
X500508D01*
Y560508D01*
X521016D01*
Y562070D01*
X520208Y566130D01*
X518624Y569955D01*
X516324Y573397D01*
X513397Y576324D01*
X509955Y578624D01*
X506130Y580208D01*
X502070Y581016D01*
D02*
G37*
G36*
X634951Y567846D02*
X632747D01*
X630711Y567003D01*
X629153Y565445D01*
X628309Y563409D01*
Y561205D01*
X629153Y559168D01*
X630711Y557610D01*
X632747Y556767D01*
X634951D01*
X636987Y557610D01*
X638546Y559168D01*
X639389Y561205D01*
Y563409D01*
X638546Y565445D01*
X636987Y567003D01*
X634951Y567846D01*
D02*
G37*
G36*
X761388Y560540D02*
X758612D01*
X755932Y559822D01*
X753528Y558434D01*
X751566Y556472D01*
X750178Y554068D01*
X749460Y551388D01*
Y548612D01*
X750178Y545932D01*
X751566Y543528D01*
X753528Y541566D01*
X755932Y540178D01*
X758612Y539460D01*
X761388D01*
X764068Y540178D01*
X766472Y541566D01*
X768434Y543528D01*
X769822Y545932D01*
X770540Y548612D01*
Y551388D01*
X769822Y554068D01*
X768434Y556472D01*
X766472Y558434D01*
X764068Y559822D01*
X761388Y560540D01*
D02*
G37*
G36*
X521016Y559492D02*
X500508D01*
Y538984D01*
X502070D01*
X506130Y539792D01*
X509955Y541376D01*
X513397Y543676D01*
X516324Y546603D01*
X518624Y550045D01*
X520208Y553870D01*
X521016Y557930D01*
Y559492D01*
D02*
G37*
G36*
X702375Y528790D02*
X700171D01*
X698135Y527947D01*
X696576Y526388D01*
X695733Y524352D01*
Y522148D01*
X696576Y520112D01*
X698135Y518553D01*
X700171Y517710D01*
X702375D01*
X704411Y518553D01*
X705969Y520112D01*
X706813Y522148D01*
Y524352D01*
X705969Y526388D01*
X704411Y527947D01*
X702375Y528790D01*
D02*
G37*
G36*
X761388Y510540D02*
X758612D01*
X755932Y509822D01*
X753528Y508434D01*
X751566Y506472D01*
X750178Y504068D01*
X749460Y501388D01*
Y498612D01*
X750178Y495932D01*
X751566Y493528D01*
X753528Y491566D01*
X755932Y490178D01*
X758612Y489460D01*
X761388D01*
X764068Y490178D01*
X766472Y491566D01*
X768434Y493528D01*
X769822Y495932D01*
X770540Y498612D01*
Y501388D01*
X769822Y504068D01*
X768434Y506472D01*
X766472Y508434D01*
X764068Y509822D01*
X761388Y510540D01*
D02*
G37*
G36*
X714102Y489540D02*
X711898D01*
X709862Y488697D01*
X708303Y487138D01*
X707460Y485102D01*
Y482898D01*
X708303Y480862D01*
X709862Y479303D01*
X711898Y478460D01*
X714102D01*
X716138Y479303D01*
X717697Y480862D01*
X718540Y482898D01*
Y485102D01*
X717697Y487138D01*
X716138Y488697D01*
X714102Y489540D01*
D02*
G37*
G36*
X685102Y481974D02*
X682898D01*
X680862Y481131D01*
X679303Y479572D01*
X678460Y477536D01*
Y475332D01*
X679303Y473296D01*
X680862Y471737D01*
X682898Y470894D01*
X685102D01*
X687138Y471737D01*
X688697Y473296D01*
X689540Y475332D01*
Y477536D01*
X688697Y479572D01*
X687138Y481131D01*
X685102Y481974D01*
D02*
G37*
G36*
X761388Y485540D02*
X758612D01*
X755932Y484822D01*
X753528Y483434D01*
X751566Y481472D01*
X750178Y479068D01*
X749460Y476388D01*
Y473612D01*
X750178Y470932D01*
X751566Y468528D01*
X753528Y466566D01*
X755932Y465178D01*
X758612Y464460D01*
X761388D01*
X764068Y465178D01*
X766472Y466566D01*
X768434Y468528D01*
X769822Y470932D01*
X770540Y473612D01*
Y476388D01*
X769822Y479068D01*
X768434Y481472D01*
X766472Y483434D01*
X764068Y484822D01*
X761388Y485540D01*
D02*
G37*
G36*
X637102Y462540D02*
X634898D01*
X632862Y461697D01*
X631303Y460138D01*
X630460Y458102D01*
Y455898D01*
X631303Y453862D01*
X632862Y452303D01*
X634898Y451460D01*
X637102D01*
X639138Y452303D01*
X640697Y453862D01*
X641540Y455898D01*
Y458102D01*
X640697Y460138D01*
X639138Y461697D01*
X637102Y462540D01*
D02*
G37*
G36*
X761388Y435540D02*
X758612D01*
X755932Y434822D01*
X753528Y433434D01*
X751566Y431472D01*
X750178Y429068D01*
X749460Y426388D01*
Y423612D01*
X750178Y420932D01*
X751566Y418528D01*
X753528Y416566D01*
X755932Y415178D01*
X758612Y414460D01*
X761388D01*
X764068Y415178D01*
X766472Y416566D01*
X768434Y418528D01*
X769822Y420932D01*
X770540Y423612D01*
Y426388D01*
X769822Y429068D01*
X768434Y431472D01*
X766472Y433434D01*
X764068Y434822D01*
X761388Y435540D01*
D02*
G37*
G36*
Y410540D02*
X758612D01*
X755932Y409822D01*
X753528Y408434D01*
X751566Y406472D01*
X750178Y404068D01*
X749460Y401388D01*
Y398612D01*
X750178Y395932D01*
X751566Y393528D01*
X753528Y391566D01*
X755932Y390178D01*
X758612Y389460D01*
X761388D01*
X764068Y390178D01*
X766472Y391566D01*
X768434Y393528D01*
X769822Y395932D01*
X770540Y398612D01*
Y401388D01*
X769822Y404068D01*
X768434Y406472D01*
X766472Y408434D01*
X764068Y409822D01*
X761388Y410540D01*
D02*
G37*
G36*
X703036Y373790D02*
X700832D01*
X698796Y372947D01*
X697237Y371388D01*
X696394Y369352D01*
Y367148D01*
X697237Y365112D01*
X698796Y363554D01*
X700832Y362710D01*
X703036D01*
X705072Y363554D01*
X706631Y365112D01*
X707474Y367148D01*
Y369352D01*
X706631Y371388D01*
X705072Y372947D01*
X703036Y373790D01*
D02*
G37*
G36*
X761388Y360540D02*
X758612D01*
X755932Y359822D01*
X753528Y358434D01*
X751566Y356472D01*
X750178Y354068D01*
X749460Y351388D01*
Y348612D01*
X750178Y345932D01*
X751566Y343528D01*
X753528Y341566D01*
X755932Y340178D01*
X758612Y339460D01*
X761388D01*
X764068Y340178D01*
X766472Y341566D01*
X768434Y343528D01*
X769822Y345932D01*
X770540Y348612D01*
Y351388D01*
X769822Y354068D01*
X768434Y356472D01*
X766472Y358434D01*
X764068Y359822D01*
X761388Y360540D01*
D02*
G37*
G36*
X720102Y334540D02*
X717898D01*
X715862Y333697D01*
X714303Y332138D01*
X713460Y330102D01*
Y327898D01*
X714303Y325862D01*
X715862Y324303D01*
X717898Y323460D01*
X720102D01*
X722138Y324303D01*
X723697Y325862D01*
X724540Y327898D01*
Y330102D01*
X723697Y332138D01*
X722138Y333697D01*
X720102Y334540D01*
D02*
G37*
G36*
X684966Y329558D02*
X682762D01*
X680725Y328715D01*
X679167Y327156D01*
X678324Y325120D01*
Y322916D01*
X679167Y320880D01*
X680725Y319321D01*
X682762Y318478D01*
X684966D01*
X687002Y319321D01*
X688560Y320880D01*
X689404Y322916D01*
Y325120D01*
X688560Y327156D01*
X687002Y328715D01*
X684966Y329558D01*
D02*
G37*
G36*
X761388Y335540D02*
X758612D01*
X755932Y334822D01*
X753528Y333434D01*
X751566Y331472D01*
X750178Y329068D01*
X749460Y326388D01*
Y323612D01*
X750178Y320932D01*
X751566Y318528D01*
X753528Y316566D01*
X755932Y315178D01*
X758612Y314460D01*
X761388D01*
X764068Y315178D01*
X766472Y316566D01*
X768434Y318528D01*
X769822Y320932D01*
X770540Y323612D01*
Y326388D01*
X769822Y329068D01*
X768434Y331472D01*
X766472Y333434D01*
X764068Y334822D01*
X761388Y335540D01*
D02*
G37*
G36*
X331102Y320540D02*
X328898D01*
X326862Y319697D01*
X325303Y318138D01*
X324460Y316102D01*
Y313898D01*
X325303Y311862D01*
X326862Y310303D01*
X328898Y309460D01*
X331102D01*
X333138Y310303D01*
X334697Y311862D01*
X335540Y313898D01*
Y316102D01*
X334697Y318138D01*
X333138Y319697D01*
X331102Y320540D01*
D02*
G37*
G36*
X551102Y319540D02*
X548898D01*
X546862Y318697D01*
X545303Y317138D01*
X544460Y315102D01*
Y312898D01*
X545303Y310862D01*
X546862Y309303D01*
X548898Y308460D01*
X551102D01*
X553138Y309303D01*
X554697Y310862D01*
X555540Y312898D01*
Y315102D01*
X554697Y317138D01*
X553138Y318697D01*
X551102Y319540D01*
D02*
G37*
G36*
X409326Y317416D02*
X407122D01*
X405085Y316573D01*
X403527Y315014D01*
X402684Y312978D01*
Y310774D01*
X403527Y308738D01*
X405085Y307180D01*
X407122Y306336D01*
X409326D01*
X411362Y307180D01*
X412920Y308738D01*
X413764Y310774D01*
Y312978D01*
X412920Y315014D01*
X411362Y316573D01*
X409326Y317416D01*
D02*
G37*
G36*
X386118Y310540D02*
X383914D01*
X381878Y309697D01*
X380319Y308138D01*
X379476Y306102D01*
Y303898D01*
X380319Y301862D01*
X381878Y300303D01*
X383914Y299460D01*
X386118D01*
X388154Y300303D01*
X389713Y301862D01*
X390556Y303898D01*
Y306102D01*
X389713Y308138D01*
X388154Y309697D01*
X386118Y310540D01*
D02*
G37*
G36*
X642102Y306540D02*
X639898D01*
X637862Y305697D01*
X636303Y304138D01*
X635460Y302102D01*
Y299898D01*
X636303Y297862D01*
X637862Y296303D01*
X639898Y295460D01*
X642102D01*
X644138Y296303D01*
X645697Y297862D01*
X646540Y299898D01*
Y302102D01*
X645697Y304138D01*
X644138Y305697D01*
X642102Y306540D01*
D02*
G37*
G36*
X181170Y292890D02*
X178830D01*
X176569Y292284D01*
X174541Y291114D01*
X172886Y289459D01*
X171716Y287431D01*
X171110Y285170D01*
Y282830D01*
X171716Y280569D01*
X172886Y278541D01*
X174541Y276886D01*
X176569Y275716D01*
X178830Y275110D01*
X181170D01*
X183431Y275716D01*
X185459Y276886D01*
X187114Y278541D01*
X188284Y280569D01*
X188890Y282830D01*
Y285170D01*
X188284Y287431D01*
X187114Y289459D01*
X185459Y291114D01*
X183431Y292284D01*
X181170Y292890D01*
D02*
G37*
G36*
X761388Y285540D02*
X758612D01*
X755932Y284822D01*
X753528Y283434D01*
X751566Y281472D01*
X750178Y279068D01*
X749460Y276388D01*
Y273612D01*
X750178Y270932D01*
X751566Y268528D01*
X753528Y266566D01*
X755932Y265178D01*
X758612Y264460D01*
X761388D01*
X764068Y265178D01*
X766472Y266566D01*
X768434Y268528D01*
X769822Y270932D01*
X770540Y273612D01*
Y276388D01*
X769822Y279068D01*
X768434Y281472D01*
X766472Y283434D01*
X764068Y284822D01*
X761388Y285540D01*
D02*
G37*
G36*
X194170Y277890D02*
X191830D01*
X189569Y277284D01*
X187541Y276114D01*
X185886Y274459D01*
X184716Y272431D01*
X184110Y270170D01*
Y267830D01*
X184716Y265569D01*
X185886Y263541D01*
X187541Y261886D01*
X189569Y260716D01*
X191830Y260110D01*
X194170D01*
X196431Y260716D01*
X198459Y261886D01*
X200114Y263541D01*
X201284Y265569D01*
X201890Y267830D01*
Y270170D01*
X201284Y272431D01*
X200114Y274459D01*
X198459Y276114D01*
X196431Y277284D01*
X194170Y277890D01*
D02*
G37*
G36*
X761388Y260540D02*
X758612D01*
X755932Y259822D01*
X753528Y258434D01*
X751566Y256472D01*
X750178Y254068D01*
X749460Y251388D01*
Y248612D01*
X750178Y245932D01*
X751566Y243528D01*
X753528Y241566D01*
X755932Y240178D01*
X758612Y239460D01*
X761388D01*
X764068Y240178D01*
X766472Y241566D01*
X768434Y243528D01*
X769822Y245932D01*
X770540Y248612D01*
Y251388D01*
X769822Y254068D01*
X768434Y256472D01*
X766472Y258434D01*
X764068Y259822D01*
X761388Y260540D01*
D02*
G37*
G36*
X48673Y248040D02*
X46469D01*
X44433Y247197D01*
X42874Y245638D01*
X42031Y243602D01*
Y241398D01*
X42874Y239362D01*
X44433Y237803D01*
X46469Y236960D01*
X48673D01*
X50709Y237803D01*
X52267Y239362D01*
X53111Y241398D01*
Y243602D01*
X52267Y245638D01*
X50709Y247197D01*
X48673Y248040D01*
D02*
G37*
G36*
X701102Y228790D02*
X698898D01*
X696862Y227947D01*
X695303Y226388D01*
X694460Y224352D01*
Y222148D01*
X695303Y220112D01*
X696862Y218554D01*
X698898Y217710D01*
X701102D01*
X703138Y218554D01*
X704697Y220112D01*
X705540Y222148D01*
Y224352D01*
X704697Y226388D01*
X703138Y227947D01*
X701102Y228790D01*
D02*
G37*
G36*
X435959Y227981D02*
X433755D01*
X431719Y227138D01*
X430160Y225579D01*
X429317Y223543D01*
Y221339D01*
X430160Y219303D01*
X431719Y217744D01*
X433755Y216901D01*
X435959D01*
X437995Y217744D01*
X439554Y219303D01*
X440397Y221339D01*
Y223543D01*
X439554Y225579D01*
X437995Y227138D01*
X435959Y227981D01*
D02*
G37*
G36*
X761388Y210540D02*
X758612D01*
X755932Y209822D01*
X753528Y208434D01*
X751566Y206472D01*
X750178Y204068D01*
X749460Y201388D01*
Y198612D01*
X750178Y195932D01*
X751566Y193528D01*
X753528Y191566D01*
X755932Y190178D01*
X758612Y189460D01*
X761388D01*
X764068Y190178D01*
X766472Y191566D01*
X768434Y193528D01*
X769822Y195932D01*
X770540Y198612D01*
Y201388D01*
X769822Y204068D01*
X768434Y206472D01*
X766472Y208434D01*
X764068Y209822D01*
X761388Y210540D01*
D02*
G37*
G36*
X719102Y187540D02*
X716898D01*
X714862Y186697D01*
X713303Y185138D01*
X712460Y183102D01*
Y180898D01*
X713303Y178862D01*
X714862Y177303D01*
X716898Y176460D01*
X719102D01*
X721138Y177303D01*
X722697Y178862D01*
X723540Y180898D01*
Y183102D01*
X722697Y185138D01*
X721138Y186697D01*
X719102Y187540D01*
D02*
G37*
G36*
X684602Y179540D02*
X682398D01*
X680362Y178697D01*
X678803Y177138D01*
X677960Y175102D01*
Y172898D01*
X678803Y170862D01*
X680362Y169303D01*
X682398Y168460D01*
X684602D01*
X686638Y169303D01*
X688197Y170862D01*
X689040Y172898D01*
Y175102D01*
X688197Y177138D01*
X686638Y178697D01*
X684602Y179540D01*
D02*
G37*
G36*
X761388Y185540D02*
X758612D01*
X755932Y184822D01*
X753528Y183434D01*
X751566Y181472D01*
X750178Y179068D01*
X749460Y176388D01*
Y173612D01*
X750178Y170932D01*
X751566Y168528D01*
X753528Y166566D01*
X755932Y165178D01*
X758612Y164460D01*
X761388D01*
X764068Y165178D01*
X766472Y166566D01*
X768434Y168528D01*
X769822Y170932D01*
X770540Y173612D01*
Y176388D01*
X769822Y179068D01*
X768434Y181472D01*
X766472Y183434D01*
X764068Y184822D01*
X761388Y185540D01*
D02*
G37*
G36*
X567381Y165540D02*
X565177D01*
X563140Y164697D01*
X561582Y163138D01*
X560739Y161102D01*
Y158898D01*
X561582Y156862D01*
X563140Y155303D01*
X565177Y154460D01*
X567381D01*
X569417Y155303D01*
X570975Y156862D01*
X571819Y158898D01*
Y161102D01*
X570975Y163138D01*
X569417Y164697D01*
X567381Y165540D01*
D02*
G37*
G36*
X640102Y164806D02*
X637898D01*
X635862Y163963D01*
X634303Y162404D01*
X633460Y160368D01*
Y158164D01*
X634303Y156128D01*
X635862Y154569D01*
X637898Y153726D01*
X640102D01*
X642138Y154569D01*
X643697Y156128D01*
X644540Y158164D01*
Y160368D01*
X643697Y162404D01*
X642138Y163963D01*
X640102Y164806D01*
D02*
G37*
G36*
X34390Y163090D02*
X13610D01*
Y142310D01*
X34390D01*
Y163090D01*
D02*
G37*
G36*
X448102Y146540D02*
X445898D01*
X443862Y145697D01*
X442303Y144138D01*
X441460Y142102D01*
Y139898D01*
X442303Y137862D01*
X443862Y136303D01*
X445898Y135460D01*
X448102D01*
X450138Y136303D01*
X451697Y137862D01*
X452540Y139898D01*
Y142102D01*
X451697Y144138D01*
X450138Y145697D01*
X448102Y146540D01*
D02*
G37*
G36*
X25167Y136166D02*
X24508D01*
Y127808D01*
X32866D01*
Y128467D01*
X32262Y130722D01*
X31095Y132744D01*
X29444Y134395D01*
X27422Y135562D01*
X25167Y136166D01*
D02*
G37*
G36*
X23492D02*
X22833D01*
X20578Y135562D01*
X18556Y134395D01*
X16905Y132744D01*
X15738Y130722D01*
X15134Y128467D01*
Y127808D01*
X23492D01*
Y136166D01*
D02*
G37*
G36*
X32866Y126792D02*
X24508D01*
Y118434D01*
X25167D01*
X27422Y119038D01*
X29444Y120205D01*
X31095Y121856D01*
X32262Y123878D01*
X32866Y126133D01*
Y126792D01*
D02*
G37*
G36*
X23492D02*
X15134D01*
Y126133D01*
X15738Y123878D01*
X16905Y121856D01*
X18556Y120205D01*
X20578Y119038D01*
X22833Y118434D01*
X23492D01*
Y126792D01*
D02*
G37*
G36*
X761388Y135540D02*
X758612D01*
X755932Y134822D01*
X753528Y133434D01*
X751566Y131472D01*
X750178Y129068D01*
X749460Y126388D01*
Y123612D01*
X750178Y120932D01*
X751566Y118528D01*
X753528Y116566D01*
X755932Y115178D01*
X758612Y114460D01*
X761388D01*
X764068Y115178D01*
X766472Y116566D01*
X768434Y118528D01*
X769822Y120932D01*
X770540Y123612D01*
Y126388D01*
X769822Y129068D01*
X768434Y131472D01*
X766472Y133434D01*
X764068Y134822D01*
X761388Y135540D01*
D02*
G37*
G36*
X461102Y110540D02*
X458898D01*
X456862Y109697D01*
X455303Y108138D01*
X454460Y106102D01*
Y103898D01*
X455303Y101862D01*
X456862Y100303D01*
X458898Y99460D01*
X461102D01*
X463138Y100303D01*
X464697Y101862D01*
X465540Y103898D01*
Y106102D01*
X464697Y108138D01*
X463138Y109697D01*
X461102Y110540D01*
D02*
G37*
G36*
X761388D02*
X758612D01*
X755932Y109822D01*
X753528Y108434D01*
X751566Y106472D01*
X750178Y104068D01*
X749460Y101388D01*
Y98612D01*
X750178Y95932D01*
X751566Y93528D01*
X753528Y91566D01*
X755932Y90178D01*
X758612Y89460D01*
X761388D01*
X764068Y90178D01*
X766472Y91566D01*
X768434Y93528D01*
X769822Y95932D01*
X770540Y98612D01*
Y101388D01*
X769822Y104068D01*
X768434Y106472D01*
X766472Y108434D01*
X764068Y109822D01*
X761388Y110540D01*
D02*
G37*
G36*
X700380Y91046D02*
X698177D01*
X696140Y90202D01*
X694582Y88644D01*
X693739Y86608D01*
Y84403D01*
X694582Y82367D01*
X696140Y80809D01*
X698177Y79966D01*
X700380D01*
X702417Y80809D01*
X703975Y82367D01*
X704819Y84403D01*
Y86608D01*
X703975Y88644D01*
X702417Y90202D01*
X700380Y91046D01*
D02*
G37*
G36*
X300102Y84540D02*
X297898D01*
X295862Y83697D01*
X294303Y82138D01*
X293460Y80102D01*
Y77898D01*
X294303Y75862D01*
X295862Y74303D01*
X297898Y73460D01*
X300102D01*
X302138Y74303D01*
X303697Y75862D01*
X304540Y77898D01*
Y80102D01*
X303697Y82138D01*
X302138Y83697D01*
X300102Y84540D01*
D02*
G37*
G36*
X502070Y61016D02*
X500508D01*
Y40508D01*
X521016D01*
Y42070D01*
X520208Y46130D01*
X518624Y49955D01*
X516324Y53397D01*
X513397Y56324D01*
X509955Y58624D01*
X506130Y60208D01*
X502070Y61016D01*
D02*
G37*
G36*
X499492D02*
X497930D01*
X493870Y60208D01*
X490045Y58624D01*
X486603Y56324D01*
X483676Y53397D01*
X481376Y49955D01*
X479792Y46130D01*
X478984Y42070D01*
Y40508D01*
X499492D01*
Y61016D01*
D02*
G37*
G36*
X32070D02*
X30508D01*
Y40508D01*
X51016D01*
Y42070D01*
X50208Y46130D01*
X48624Y49955D01*
X46324Y53397D01*
X43397Y56324D01*
X39955Y58624D01*
X36130Y60208D01*
X32070Y61016D01*
D02*
G37*
G36*
X29492D02*
X27930D01*
X23870Y60208D01*
X20045Y58624D01*
X16603Y56324D01*
X13676Y53397D01*
X11376Y49955D01*
X9792Y46130D01*
X8984Y42070D01*
Y40508D01*
X29492D01*
Y61016D01*
D02*
G37*
G36*
X713102Y51540D02*
X710898D01*
X708862Y50697D01*
X707303Y49138D01*
X706460Y47102D01*
Y44898D01*
X707303Y42862D01*
X708862Y41303D01*
X710898Y40460D01*
X713102D01*
X715138Y41303D01*
X716697Y42862D01*
X717540Y44898D01*
Y47102D01*
X716697Y49138D01*
X715138Y50697D01*
X713102Y51540D01*
D02*
G37*
G36*
X761388Y60540D02*
X758612D01*
X755932Y59822D01*
X753528Y58434D01*
X751566Y56472D01*
X750178Y54068D01*
X749460Y51388D01*
Y48612D01*
X750178Y45932D01*
X751566Y43528D01*
X753528Y41566D01*
X755932Y40178D01*
X758612Y39460D01*
X761388D01*
X764068Y40178D01*
X766472Y41566D01*
X768434Y43528D01*
X769822Y45932D01*
X770540Y48612D01*
Y51388D01*
X769822Y54068D01*
X768434Y56472D01*
X766472Y58434D01*
X764068Y59822D01*
X761388Y60540D01*
D02*
G37*
G36*
X686102Y44229D02*
X683898D01*
X681862Y43386D01*
X680303Y41828D01*
X679460Y39792D01*
Y37587D01*
X680303Y35551D01*
X681862Y33993D01*
X683898Y33149D01*
X686102D01*
X688138Y33993D01*
X689697Y35551D01*
X690540Y37587D01*
Y39792D01*
X689697Y41828D01*
X688138Y43386D01*
X686102Y44229D01*
D02*
G37*
G36*
X648880Y30826D02*
X646677D01*
X644640Y29983D01*
X643082Y28424D01*
X642239Y26388D01*
Y24184D01*
X643082Y22148D01*
X644640Y20589D01*
X646677Y19746D01*
X648880D01*
X650917Y20589D01*
X652475Y22148D01*
X653319Y24184D01*
Y26388D01*
X652475Y28424D01*
X650917Y29983D01*
X648880Y30826D01*
D02*
G37*
G36*
X521016Y39492D02*
X500508D01*
Y18984D01*
X502070D01*
X506130Y19792D01*
X509955Y21376D01*
X513397Y23676D01*
X516324Y26603D01*
X518624Y30045D01*
X520208Y33870D01*
X521016Y37930D01*
Y39492D01*
D02*
G37*
G36*
X499492D02*
X478984D01*
Y37930D01*
X479792Y33870D01*
X481376Y30045D01*
X483676Y26603D01*
X486603Y23676D01*
X490045Y21376D01*
X493870Y19792D01*
X497930Y18984D01*
X499492D01*
Y39492D01*
D02*
G37*
G36*
X51016D02*
X30508D01*
Y18984D01*
X32070D01*
X36130Y19792D01*
X39955Y21376D01*
X43397Y23676D01*
X46324Y26603D01*
X48624Y30045D01*
X50208Y33870D01*
X51016Y37930D01*
Y39492D01*
D02*
G37*
G36*
X29492D02*
X8984D01*
Y37930D01*
X9792Y33870D01*
X11376Y30045D01*
X13676Y26603D01*
X16603Y23676D01*
X20045Y21376D01*
X23870Y19792D01*
X27930Y18984D01*
X29492D01*
Y39492D01*
D02*
G37*
G36*
X761388Y35540D02*
X758612D01*
X755932Y34822D01*
X753528Y33434D01*
X751566Y31472D01*
X750178Y29068D01*
X749460Y26388D01*
Y23612D01*
X750178Y20932D01*
X751566Y18528D01*
X753528Y16566D01*
X755932Y15178D01*
X758612Y14460D01*
X761388D01*
X764068Y15178D01*
X766472Y16566D01*
X768434Y18528D01*
X769822Y20932D01*
X770540Y23612D01*
Y26388D01*
X769822Y29068D01*
X768434Y31472D01*
X766472Y33434D01*
X764068Y34822D01*
X761388Y35540D01*
D02*
G37*
G36*
X696102Y20540D02*
X693898D01*
X691862Y19697D01*
X690303Y18138D01*
X689460Y16102D01*
Y13898D01*
X690303Y11862D01*
X691862Y10303D01*
X693898Y9460D01*
X696102D01*
X698138Y10303D01*
X699697Y11862D01*
X700540Y13898D01*
Y16102D01*
X699697Y18138D01*
X698138Y19697D01*
X696102Y20540D01*
D02*
G37*
G36*
X323737Y579636D02*
X323108D01*
Y571508D01*
X331236D01*
Y572137D01*
X330648Y574333D01*
X329510Y576303D01*
X327903Y577910D01*
X325933Y579048D01*
X323737Y579636D01*
D02*
G37*
G36*
X322092D02*
X321463D01*
X319267Y579048D01*
X317297Y577910D01*
X315690Y576303D01*
X314552Y574333D01*
X313964Y572137D01*
Y571508D01*
X322092D01*
Y579636D01*
D02*
G37*
G36*
X331236Y570492D02*
X323108D01*
Y562364D01*
X323737D01*
X325933Y562952D01*
X327903Y564090D01*
X329510Y565697D01*
X330648Y567667D01*
X331236Y569863D01*
Y570492D01*
D02*
G37*
G36*
X322092D02*
X313964D01*
Y569863D01*
X314552Y567667D01*
X315690Y565697D01*
X317297Y564090D01*
X319267Y562952D01*
X321463Y562364D01*
X322092D01*
Y570492D01*
D02*
G37*
G36*
X450938Y581160D02*
X448262D01*
X445678Y580468D01*
X443362Y579130D01*
X441470Y577238D01*
X440132Y574922D01*
X439440Y572338D01*
Y569662D01*
X440132Y567078D01*
X441470Y564762D01*
X443362Y562870D01*
X445678Y561532D01*
X448262Y560840D01*
X450938D01*
X453522Y561532D01*
X455838Y562870D01*
X457730Y564762D01*
X459068Y567078D01*
X459760Y569662D01*
Y572338D01*
X459068Y574922D01*
X457730Y577238D01*
X455838Y579130D01*
X453522Y580468D01*
X450938Y581160D01*
D02*
G37*
G36*
X425538D02*
X422862D01*
X420278Y580468D01*
X417962Y579130D01*
X416070Y577238D01*
X414732Y574922D01*
X414040Y572338D01*
Y569662D01*
X414732Y567078D01*
X416070Y564762D01*
X417962Y562870D01*
X420278Y561532D01*
X422862Y560840D01*
X425538D01*
X428122Y561532D01*
X430438Y562870D01*
X432330Y564762D01*
X433668Y567078D01*
X434360Y569662D01*
Y572338D01*
X433668Y574922D01*
X432330Y577238D01*
X430438Y579130D01*
X428122Y580468D01*
X425538Y581160D01*
D02*
G37*
G36*
X400138D02*
X397462D01*
X394878Y580468D01*
X392562Y579130D01*
X390670Y577238D01*
X389332Y574922D01*
X388640Y572338D01*
Y569662D01*
X389332Y567078D01*
X390670Y564762D01*
X392562Y562870D01*
X394878Y561532D01*
X397462Y560840D01*
X400138D01*
X402722Y561532D01*
X405038Y562870D01*
X406930Y564762D01*
X408268Y567078D01*
X408960Y569662D01*
Y572338D01*
X408268Y574922D01*
X406930Y577238D01*
X405038Y579130D01*
X402722Y580468D01*
X400138Y581160D01*
D02*
G37*
G36*
X374738D02*
X372062D01*
X369478Y580468D01*
X367162Y579130D01*
X365270Y577238D01*
X363932Y574922D01*
X363240Y572338D01*
Y569662D01*
X363932Y567078D01*
X365270Y564762D01*
X367162Y562870D01*
X369478Y561532D01*
X372062Y560840D01*
X374738D01*
X377322Y561532D01*
X379638Y562870D01*
X381530Y564762D01*
X382868Y567078D01*
X383560Y569662D01*
Y572338D01*
X382868Y574922D01*
X381530Y577238D01*
X379638Y579130D01*
X377322Y580468D01*
X374738Y581160D01*
D02*
G37*
G36*
X349338D02*
X346662D01*
X344078Y580468D01*
X341762Y579130D01*
X339870Y577238D01*
X338532Y574922D01*
X337840Y572338D01*
Y569662D01*
X338532Y567078D01*
X339870Y564762D01*
X341762Y562870D01*
X344078Y561532D01*
X346662Y560840D01*
X349338D01*
X351922Y561532D01*
X354238Y562870D01*
X356130Y564762D01*
X357468Y567078D01*
X358160Y569662D01*
Y572338D01*
X357468Y574922D01*
X356130Y577238D01*
X354238Y579130D01*
X351922Y580468D01*
X349338Y581160D01*
D02*
G37*
G36*
X211953Y534790D02*
X210047D01*
X208287Y534061D01*
X206939Y532713D01*
X206210Y530953D01*
Y529047D01*
X206939Y527287D01*
X208287Y525939D01*
X210047Y525210D01*
X211953D01*
X213713Y525939D01*
X215061Y527287D01*
X215790Y529047D01*
Y530953D01*
X215061Y532713D01*
X213713Y534061D01*
X211953Y534790D01*
D02*
G37*
G36*
X286566Y528290D02*
X284660D01*
X282900Y527561D01*
X281552Y526213D01*
X280823Y524453D01*
Y522547D01*
X281552Y520787D01*
X282900Y519439D01*
X284660Y518710D01*
X286566D01*
X288326Y519439D01*
X289674Y520787D01*
X290403Y522547D01*
Y524453D01*
X289674Y526213D01*
X288326Y527561D01*
X286566Y528290D01*
D02*
G37*
G36*
X159102Y527540D02*
X156898D01*
X154862Y526697D01*
X153303Y525138D01*
X152460Y523102D01*
Y520898D01*
X153303Y518862D01*
X154862Y517303D01*
X156898Y516460D01*
X159102D01*
X161138Y517303D01*
X162697Y518862D01*
X163540Y520898D01*
Y523102D01*
X162697Y525138D01*
X161138Y526697D01*
X159102Y527540D01*
D02*
G37*
G36*
X212953Y517790D02*
X211047D01*
X209287Y517061D01*
X207939Y515713D01*
X207210Y513953D01*
Y512047D01*
X207939Y510287D01*
X209287Y508939D01*
X211047Y508210D01*
X212953D01*
X214713Y508939D01*
X216061Y510287D01*
X216790Y512047D01*
Y513953D01*
X216061Y515713D01*
X214713Y517061D01*
X212953Y517790D01*
D02*
G37*
G36*
X286953Y510790D02*
X285047D01*
X283287Y510061D01*
X281939Y508713D01*
X281210Y506953D01*
Y505047D01*
X281939Y503287D01*
X283287Y501939D01*
X285047Y501210D01*
X286953D01*
X288713Y501939D01*
X290061Y503287D01*
X290790Y505047D01*
Y506953D01*
X290061Y508713D01*
X288713Y510061D01*
X286953Y510790D01*
D02*
G37*
G36*
X309102Y475540D02*
X306898D01*
X304862Y474697D01*
X303303Y473138D01*
X302460Y471102D01*
Y468898D01*
X303303Y466862D01*
X304862Y465303D01*
X306898Y464460D01*
X309102D01*
X311138Y465303D01*
X312697Y466862D01*
X313540Y468898D01*
Y471102D01*
X312697Y473138D01*
X311138Y474697D01*
X309102Y475540D01*
D02*
G37*
G36*
X345546Y460540D02*
X343342D01*
X341306Y459697D01*
X339748Y458138D01*
X338904Y456102D01*
Y453898D01*
X339748Y451862D01*
X341306Y450303D01*
X343342Y449460D01*
X345546D01*
X347582Y450303D01*
X349141Y451862D01*
X349984Y453898D01*
Y456102D01*
X349141Y458138D01*
X347582Y459697D01*
X345546Y460540D01*
D02*
G37*
G36*
X303102Y446540D02*
X300898D01*
X298862Y445697D01*
X298000Y444835D01*
X297138Y445697D01*
X295102Y446540D01*
X292898D01*
X290862Y445697D01*
X289500Y444335D01*
X288138Y445697D01*
X286102Y446540D01*
X283898D01*
X281862Y445697D01*
X280303Y444138D01*
X278876Y444012D01*
X278034Y444855D01*
X275997Y445698D01*
X273793D01*
X271757Y444855D01*
X270552Y443650D01*
X269138Y445064D01*
X267102Y445907D01*
X264898D01*
X262862Y445064D01*
X261500Y443702D01*
X260138Y445064D01*
X258102Y445907D01*
X255898D01*
X253862Y445064D01*
X252303Y443505D01*
X251824Y443410D01*
X250818Y444416D01*
X248782Y445260D01*
X246577D01*
X244541Y444416D01*
X242983Y442858D01*
X242139Y440821D01*
Y438618D01*
X242983Y436581D01*
X244541Y435023D01*
X246577Y434180D01*
X248782D01*
X250818Y435023D01*
X252376Y436581D01*
X252855Y436677D01*
X253862Y435670D01*
X255898Y434827D01*
X258102D01*
X260138Y435670D01*
X261500Y437032D01*
X262862Y435670D01*
X264898Y434827D01*
X267102D01*
X269138Y435670D01*
X270343Y436875D01*
X271757Y435462D01*
X273793Y434618D01*
X275997D01*
X278034Y435462D01*
X279592Y437020D01*
X281019Y437146D01*
X281862Y436303D01*
X283898Y435460D01*
X286102D01*
X288138Y436303D01*
X289500Y437665D01*
X290862Y436303D01*
X292898Y435460D01*
X295102D01*
X297138Y436303D01*
X298000Y437165D01*
X298862Y436303D01*
X300898Y435460D01*
X303102D01*
X305138Y436303D01*
X306697Y437862D01*
X307190Y439053D01*
X308291Y438919D01*
X308480Y438849D01*
X309303Y436862D01*
X310862Y435303D01*
X312898Y434460D01*
X315102D01*
X317138Y435303D01*
X318697Y436862D01*
X319540Y438898D01*
Y441102D01*
X318697Y443138D01*
X317138Y444697D01*
X315102Y445540D01*
X312898D01*
X310862Y444697D01*
X309303Y443138D01*
X308810Y441947D01*
X307709Y442081D01*
X307520Y442151D01*
X306697Y444138D01*
X305138Y445697D01*
X303102Y446540D01*
D02*
G37*
G36*
X391102Y440540D02*
X388898D01*
X386862Y439697D01*
X385303Y438138D01*
X384460Y436102D01*
Y433898D01*
X385303Y431862D01*
X386862Y430303D01*
X388898Y429460D01*
X391102D01*
X393138Y430303D01*
X394697Y431862D01*
X395540Y433898D01*
Y436102D01*
X394697Y438138D01*
X393138Y439697D01*
X391102Y440540D01*
D02*
G37*
G36*
X104783Y460520D02*
X101017D01*
X97323Y459785D01*
X93843Y458344D01*
X90712Y456251D01*
X88048Y453588D01*
X85956Y450457D01*
X84515Y446977D01*
X83780Y443283D01*
Y439517D01*
X84515Y435823D01*
X85956Y432343D01*
X88048Y429212D01*
X90712Y426549D01*
X93843Y424456D01*
X97323Y423015D01*
X101017Y422280D01*
X104783D01*
X108477Y423015D01*
X111957Y424456D01*
X115088Y426549D01*
X117752Y429212D01*
X119844Y432343D01*
X121285Y435823D01*
X122020Y439517D01*
Y443283D01*
X121285Y446977D01*
X119844Y450457D01*
X117752Y453588D01*
X115088Y456251D01*
X111957Y458344D01*
X108477Y459785D01*
X104783Y460520D01*
D02*
G37*
G36*
X266102Y411992D02*
X263898D01*
X261862Y411149D01*
X260303Y409590D01*
X259460Y407554D01*
Y405350D01*
X260303Y403314D01*
X261862Y401755D01*
X263898Y400912D01*
X266102D01*
X268138Y401755D01*
X269697Y403314D01*
X270540Y405350D01*
Y407554D01*
X269697Y409590D01*
X268138Y411149D01*
X266102Y411992D01*
D02*
G37*
G36*
X151274Y403380D02*
X148726D01*
X146264Y402720D01*
X144056Y401446D01*
X142254Y399644D01*
X140980Y397436D01*
X140657Y396234D01*
X139343D01*
X139020Y397436D01*
X137746Y399644D01*
X135944Y401446D01*
X133736Y402720D01*
X131274Y403380D01*
X128726D01*
X126264Y402720D01*
X124056Y401446D01*
X122254Y399644D01*
X120980Y397436D01*
X120320Y394974D01*
Y392426D01*
X120980Y389964D01*
X122254Y387756D01*
X124056Y385954D01*
X126264Y384680D01*
X128726Y384020D01*
X131274D01*
X133736Y384680D01*
X135944Y385954D01*
X137746Y387756D01*
X139020Y389964D01*
X139343Y391166D01*
X140657D01*
X140980Y389964D01*
X142254Y387756D01*
X144056Y385954D01*
X146264Y384680D01*
X148726Y384020D01*
X151274D01*
X153736Y384680D01*
X155944Y385954D01*
X157746Y387756D01*
X159020Y389964D01*
X159680Y392426D01*
Y394974D01*
X159020Y397436D01*
X157746Y399644D01*
X155944Y401446D01*
X153736Y402720D01*
X151274Y403380D01*
D02*
G37*
G36*
X421102Y409340D02*
X418898D01*
X416862Y408497D01*
X415303Y406938D01*
X414460Y404902D01*
Y402698D01*
X415303Y400662D01*
X416065Y399900D01*
X415303Y399138D01*
X414460Y397102D01*
Y394898D01*
X415303Y392862D01*
X415800Y392365D01*
X415303Y391868D01*
X414460Y389832D01*
Y387628D01*
X415303Y385592D01*
X416030Y384865D01*
X415303Y384138D01*
X414460Y382102D01*
Y379898D01*
X415303Y377862D01*
X416862Y376303D01*
X418898Y375460D01*
X421102D01*
X423138Y376303D01*
X424697Y377862D01*
X425540Y379898D01*
Y382102D01*
X424697Y384138D01*
X423970Y384865D01*
X424697Y385592D01*
X425540Y387628D01*
Y389832D01*
X424697Y391868D01*
X424200Y392365D01*
X424697Y392862D01*
X425540Y394898D01*
Y397102D01*
X424697Y399138D01*
X423935Y399900D01*
X424697Y400662D01*
X425540Y402698D01*
Y404902D01*
X424697Y406938D01*
X423138Y408497D01*
X421102Y409340D01*
D02*
G37*
G36*
X131074Y376856D02*
X130508D01*
Y369208D01*
X138156D01*
Y369774D01*
X137600Y371848D01*
X136526Y373708D01*
X135008Y375226D01*
X133148Y376300D01*
X131074Y376856D01*
D02*
G37*
G36*
X129492D02*
X128926D01*
X126852Y376300D01*
X124992Y375226D01*
X123474Y373708D01*
X122400Y371848D01*
X121844Y369774D01*
Y369208D01*
X129492D01*
Y376856D01*
D02*
G37*
G36*
X138156Y368192D02*
X130508D01*
Y360544D01*
X131074D01*
X133148Y361100D01*
X135008Y362174D01*
X136526Y363692D01*
X137600Y365552D01*
X138156Y367626D01*
Y368192D01*
D02*
G37*
G36*
X129492D02*
X121844D01*
Y367626D01*
X122400Y365552D01*
X123474Y363692D01*
X124992Y362174D01*
X126852Y361100D01*
X128926Y360544D01*
X129492D01*
Y368192D01*
D02*
G37*
G36*
X151274Y378380D02*
X148726D01*
X146264Y377720D01*
X144056Y376446D01*
X142254Y374644D01*
X140980Y372436D01*
X140320Y369974D01*
Y367426D01*
X140980Y364964D01*
X142254Y362756D01*
X144056Y360954D01*
X146264Y359680D01*
X148726Y359020D01*
X151274D01*
X153736Y359680D01*
X155944Y360954D01*
X157746Y362756D01*
X159020Y364964D01*
X159680Y367426D01*
Y369974D01*
X159020Y372436D01*
X157746Y374644D01*
X155944Y376446D01*
X153736Y377720D01*
X151274Y378380D01*
D02*
G37*
G36*
X392102Y364540D02*
X389898D01*
X387862Y363697D01*
X386303Y362138D01*
X385460Y360102D01*
Y357898D01*
X386303Y355862D01*
X387862Y354303D01*
X389898Y353460D01*
X392102D01*
X394138Y354303D01*
X395697Y355862D01*
X396540Y357898D01*
Y360102D01*
X395697Y362138D01*
X394138Y363697D01*
X392102Y364540D01*
D02*
G37*
G36*
X304454Y372606D02*
X302250D01*
X300214Y371763D01*
X298655Y370204D01*
X297812Y368168D01*
Y365964D01*
X298655Y363928D01*
X299767Y362816D01*
X300103Y362061D01*
X299784Y361173D01*
X298719Y360108D01*
X297876Y358072D01*
Y355868D01*
X298719Y353832D01*
X300278Y352273D01*
X302314Y351430D01*
X304518D01*
X306554Y352273D01*
X308112Y353832D01*
X308956Y355868D01*
Y358072D01*
X308112Y360108D01*
X307000Y361220D01*
X306665Y361976D01*
X306984Y362863D01*
X308048Y363928D01*
X308892Y365964D01*
Y368168D01*
X308048Y370204D01*
X306490Y371763D01*
X304454Y372606D01*
D02*
G37*
G36*
X369731Y351222D02*
X367527D01*
X365491Y350379D01*
X364711Y349599D01*
X364193Y350117D01*
X362157Y350960D01*
X359953D01*
X357917Y350117D01*
X356359Y348558D01*
X355515Y346522D01*
Y344318D01*
X356359Y342282D01*
X357917Y340724D01*
X359953Y339880D01*
X362157D01*
X364193Y340724D01*
X364973Y341504D01*
X365491Y340986D01*
X367527Y340143D01*
X369731D01*
X371768Y340986D01*
X373326Y342544D01*
X374169Y344580D01*
Y346785D01*
X373326Y348821D01*
X371768Y350379D01*
X369731Y351222D01*
D02*
G37*
G36*
X340832Y350540D02*
X338628D01*
X336592Y349697D01*
X335033Y348138D01*
X334190Y346102D01*
Y343898D01*
X335033Y341862D01*
X336592Y340303D01*
X338628Y339460D01*
X340832D01*
X342868Y340303D01*
X344427Y341862D01*
X345270Y343898D01*
Y346102D01*
X344427Y348138D01*
X342868Y349697D01*
X340832Y350540D01*
D02*
G37*
G36*
X203102Y350540D02*
X200898D01*
X198862Y349697D01*
X197303Y348138D01*
X196460Y346102D01*
Y343898D01*
X197303Y341862D01*
X198862Y340303D01*
X200898Y339460D01*
X203102D01*
X205138Y340303D01*
X206697Y341862D01*
X207540Y343898D01*
Y346102D01*
X206697Y348138D01*
X205138Y349697D01*
X203102Y350540D01*
D02*
G37*
%LPD*%
D58*
X193000Y269000D02*
D03*
X180000Y284000D02*
D03*
D63*
X24000Y152700D02*
D03*
D64*
Y127300D02*
D03*
D70*
X267810Y304140D02*
X269000Y305331D01*
D71*
X454000Y320000D02*
X475000D01*
X473888Y362473D02*
Y405000D01*
X475000Y320000D02*
Y361362D01*
X473888Y362473D02*
X475000Y361362D01*
X473888Y405000D02*
X474444Y405556D01*
Y462444D02*
X475000Y463000D01*
X474444Y405556D02*
Y462444D01*
X475000Y463000D02*
Y584926D01*
X477000Y586926D02*
Y588000D01*
X475000Y584926D02*
X477000Y586926D01*
D73*
X30000Y40000D02*
D03*
X500000D02*
D03*
Y560000D02*
D03*
D74*
X760000Y25000D02*
D03*
Y50000D02*
D03*
Y175000D02*
D03*
Y200000D02*
D03*
Y325000D02*
D03*
Y350000D02*
D03*
Y475000D02*
D03*
Y500000D02*
D03*
Y100000D02*
D03*
Y125000D02*
D03*
Y250000D02*
D03*
Y275000D02*
D03*
Y400000D02*
D03*
Y425000D02*
D03*
Y550000D02*
D03*
Y575000D02*
D03*
D75*
X150000Y393700D02*
D03*
Y368700D02*
D03*
X130000Y393700D02*
D03*
Y368700D02*
D03*
D77*
X102900Y441400D02*
D03*
Y321000D02*
D03*
D78*
X229000Y492000D02*
D03*
X81000Y490000D02*
D03*
X241000Y588000D02*
D03*
X286000Y506000D02*
D03*
X285613Y523500D02*
D03*
X212000Y513000D02*
D03*
X211000Y530000D02*
D03*
X475000Y320000D02*
D03*
X182000Y495820D02*
D03*
D79*
X361055Y345420D02*
D03*
X253000Y337000D02*
D03*
X211000Y292000D02*
D03*
X344444Y455000D02*
D03*
X447000Y141000D02*
D03*
X434857Y222441D02*
D03*
X552516Y52993D02*
D03*
X460000Y105000D02*
D03*
X566279Y160000D02*
D03*
X420000Y381000D02*
D03*
X473888Y405000D02*
D03*
X475000Y463000D02*
D03*
X477000Y588000D02*
D03*
X454000Y320000D02*
D03*
X550000Y314000D02*
D03*
X368629Y345682D02*
D03*
X265000Y406452D02*
D03*
X636000Y457000D02*
D03*
X330000Y315000D02*
D03*
X277000Y36000D02*
D03*
X238286Y406000D02*
D03*
X587000Y427000D02*
D03*
X684000Y476434D02*
D03*
X713000Y484000D02*
D03*
X662579Y489216D02*
D03*
X663865Y535994D02*
D03*
X662579Y334216D02*
D03*
X719000Y329000D02*
D03*
X718000Y182000D02*
D03*
X592779Y25286D02*
D03*
X647779D02*
D03*
X695000Y15000D02*
D03*
X685000Y38689D02*
D03*
X662357Y51471D02*
D03*
X663312Y98195D02*
D03*
X662579Y189216D02*
D03*
X257000Y440367D02*
D03*
X266000D02*
D03*
X274895Y440158D02*
D03*
X247680Y439720D02*
D03*
X359444Y430000D02*
D03*
X420000Y396000D02*
D03*
Y388730D02*
D03*
Y403800D02*
D03*
X385016Y305000D02*
D03*
X339730Y345000D02*
D03*
X47571Y242500D02*
D03*
X421000Y276000D02*
D03*
X289134Y277000D02*
D03*
X639000Y159266D02*
D03*
X408224Y311876D02*
D03*
X303352Y367066D02*
D03*
X191000Y389000D02*
D03*
X202000Y345000D02*
D03*
X391000Y359000D02*
D03*
X299000Y79000D02*
D03*
X712000Y46000D02*
D03*
X578295Y137000D02*
D03*
X683500Y174000D02*
D03*
X524000Y387750D02*
D03*
X549484Y386713D02*
D03*
X578516Y278638D02*
D03*
X641000Y301000D02*
D03*
X683864Y324018D02*
D03*
X360000Y322000D02*
D03*
X380000Y469000D02*
D03*
X701934Y368250D02*
D03*
X700000Y223250D02*
D03*
X699279Y85506D02*
D03*
X514779Y103256D02*
D03*
X550279Y103969D02*
D03*
X701273Y523250D02*
D03*
X664000Y237745D02*
D03*
X663842Y380943D02*
D03*
X545684Y488882D02*
D03*
X524000Y242000D02*
D03*
X550500Y541713D02*
D03*
X595000Y555000D02*
D03*
X524000Y541713D02*
D03*
X633849Y562307D02*
D03*
X549000Y188882D02*
D03*
X550500Y241713D02*
D03*
X549000Y332000D02*
D03*
X179000Y511000D02*
D03*
X66000Y228000D02*
D03*
X133000Y267000D02*
D03*
X41000Y468000D02*
D03*
X178000Y451000D02*
D03*
X303416Y356970D02*
D03*
X327000Y334000D02*
D03*
X308000Y470000D02*
D03*
X158000Y522000D02*
D03*
X314000Y440000D02*
D03*
X302000Y441000D02*
D03*
X294000D02*
D03*
X285000D02*
D03*
X390000Y435000D02*
D03*
D80*
X628628Y57088D02*
D03*
X624628Y51088D02*
D03*
X632628D02*
D03*
Y63088D02*
D03*
X624628D02*
D03*
X628849Y194833D02*
D03*
X624849Y188833D02*
D03*
X632849D02*
D03*
Y200833D02*
D03*
X624849D02*
D03*
X628849Y339833D02*
D03*
X624849Y333833D02*
D03*
X632849D02*
D03*
Y345833D02*
D03*
X624849D02*
D03*
X628849Y494833D02*
D03*
X624849Y488833D02*
D03*
X632849D02*
D03*
Y500833D02*
D03*
X624849D02*
D03*
X628628Y95000D02*
D03*
X624628Y101000D02*
D03*
X632628D02*
D03*
Y89000D02*
D03*
X624628D02*
D03*
X628849Y232745D02*
D03*
X624849Y238745D02*
D03*
X632849D02*
D03*
Y226745D02*
D03*
X624849D02*
D03*
X628849Y377745D02*
D03*
X624849Y383745D02*
D03*
X632849D02*
D03*
Y371745D02*
D03*
X624849D02*
D03*
X628849Y532744D02*
D03*
X624849Y538745D02*
D03*
X632849D02*
D03*
Y526744D02*
D03*
X624849D02*
D03*
D81*
X147000Y321737D02*
D03*
Y336737D02*
D03*
D82*
Y324237D02*
Y334237D01*
D83*
Y340306D02*
Y345000D01*
Y311000D02*
Y318168D01*
D84*
X449600Y571000D02*
D03*
X424200D02*
D03*
X398800D02*
D03*
X373400D02*
D03*
X348000D02*
D03*
X322600D02*
D03*
M02*
