G04*
G04 #@! TF.GenerationSoftware,Altium Limited,Altium Designer,24.8.2 (39)*
G04*
G04 Layer_Color=128*
%FSLAX44Y44*%
%MOMM*%
G71*
G04*
G04 #@! TF.SameCoordinates,DE467F84-66AF-4C6A-BC95-973404F0CDF1*
G04*
G04*
G04 #@! TF.FilePolarity,Positive*
G04*
G01*
G75*
%ADD24C,2.0000*%
%ADD28R,1.0000X0.9500*%
G04:AMPARAMS|DCode=29|XSize=1.47mm|YSize=0.48mm|CornerRadius=0.06mm|HoleSize=0mm|Usage=FLASHONLY|Rotation=0.000|XOffset=0mm|YOffset=0mm|HoleType=Round|Shape=RoundedRectangle|*
%AMROUNDEDRECTD29*
21,1,1.4700,0.3600,0,0,0.0*
21,1,1.3500,0.4800,0,0,0.0*
1,1,0.1200,0.6750,-0.1800*
1,1,0.1200,-0.6750,-0.1800*
1,1,0.1200,-0.6750,0.1800*
1,1,0.1200,0.6750,0.1800*
%
%ADD29ROUNDEDRECTD29*%
G04:AMPARAMS|DCode=30|XSize=1.21mm|YSize=0.59mm|CornerRadius=0.0738mm|HoleSize=0mm|Usage=FLASHONLY|Rotation=0.000|XOffset=0mm|YOffset=0mm|HoleType=Round|Shape=RoundedRectangle|*
%AMROUNDEDRECTD30*
21,1,1.2100,0.4425,0,0,0.0*
21,1,1.0625,0.5900,0,0,0.0*
1,1,0.1475,0.5313,-0.2213*
1,1,0.1475,-0.5313,-0.2213*
1,1,0.1475,-0.5313,0.2213*
1,1,0.1475,0.5313,0.2213*
%
%ADD30ROUNDEDRECTD30*%
%ADD31R,0.9500X1.0000*%
%ADD34R,1.6002X1.2700*%
%ADD35R,1.2300X1.8000*%
%ADD40R,0.8300X0.6300*%
%ADD85R,2.0000X3.0000*%
%ADD86R,2.0000X3.0000*%
%ADD87R,3.5000X3.5000*%
%ADD88O,2.2000X0.6000*%
%ADD89R,0.8000X0.9000*%
%ADD90R,1.0582X1.3061*%
G36*
X633478Y56338D02*
X623778D01*
Y49838D01*
X633478D01*
Y56338D01*
D02*
G37*
G36*
Y64338D02*
X623778D01*
Y57838D01*
X633478D01*
Y64338D01*
D02*
G37*
G36*
X633699Y194083D02*
X623999D01*
Y187583D01*
X633699D01*
Y194083D01*
D02*
G37*
G36*
Y202083D02*
X623999D01*
Y195583D01*
X633699D01*
Y202083D01*
D02*
G37*
G36*
Y339083D02*
X623999D01*
Y332583D01*
X633699D01*
Y339083D01*
D02*
G37*
G36*
Y347083D02*
X623999D01*
Y340583D01*
X633699D01*
Y347083D01*
D02*
G37*
G36*
Y494083D02*
X623999D01*
Y487583D01*
X633699D01*
Y494083D01*
D02*
G37*
G36*
Y502083D02*
X623999D01*
Y495583D01*
X633699D01*
Y502083D01*
D02*
G37*
D24*
X539000Y569000D02*
D03*
X368629Y364767D02*
D03*
X460000Y505000D02*
D03*
Y373534D02*
D03*
Y225000D02*
D03*
Y87255D02*
D03*
X343000Y364000D02*
D03*
X341000Y297000D02*
D03*
X314000D02*
D03*
X538000Y252000D02*
D03*
X537779Y114255D02*
D03*
X538000Y397000D02*
D03*
X122000Y491000D02*
D03*
D28*
X582500Y487750D02*
D03*
X566500D02*
D03*
X544000Y374000D02*
D03*
X528000D02*
D03*
X566500Y405250D02*
D03*
X582500D02*
D03*
X291000Y24000D02*
D03*
X275000D02*
D03*
X697779Y59255D02*
D03*
X681779D02*
D03*
X527932Y71240D02*
D03*
X543932D02*
D03*
X683279Y85506D02*
D03*
X699279D02*
D03*
X527779Y91255D02*
D03*
X543779D02*
D03*
X566278Y50005D02*
D03*
X582279D02*
D03*
X582279Y122506D02*
D03*
X566279D02*
D03*
X622779Y31256D02*
D03*
X638778D02*
D03*
X566278Y67505D02*
D03*
X582279D02*
D03*
X582779Y31256D02*
D03*
X566779D02*
D03*
X566278Y105006D02*
D03*
X582279D02*
D03*
X566500Y260250D02*
D03*
X582500D02*
D03*
X618849Y467000D02*
D03*
X634849D02*
D03*
X544000Y229000D02*
D03*
X528000D02*
D03*
X544000Y206000D02*
D03*
X528000D02*
D03*
Y529000D02*
D03*
X544000D02*
D03*
X528000Y506000D02*
D03*
X544000D02*
D03*
X682000Y197000D02*
D03*
X698000D02*
D03*
X699500Y223250D02*
D03*
X683500D02*
D03*
X582500Y560250D02*
D03*
X566500D02*
D03*
X683500Y523250D02*
D03*
X699500D02*
D03*
X698000Y497000D02*
D03*
X682000D02*
D03*
X582500Y187750D02*
D03*
X566500D02*
D03*
X639000Y169000D02*
D03*
X623000D02*
D03*
X566500Y542750D02*
D03*
X582500D02*
D03*
Y242750D02*
D03*
X566500D02*
D03*
X567000Y169000D02*
D03*
X583000D02*
D03*
X582500Y205250D02*
D03*
X566500D02*
D03*
Y332750D02*
D03*
X582500D02*
D03*
X566500Y350250D02*
D03*
X582500D02*
D03*
X583000Y314000D02*
D03*
X567000D02*
D03*
X528000Y351000D02*
D03*
X544000D02*
D03*
X566500Y387750D02*
D03*
X582500D02*
D03*
X583000Y469000D02*
D03*
X567000D02*
D03*
X566500Y505250D02*
D03*
X582500D02*
D03*
X623000Y314000D02*
D03*
X639000D02*
D03*
X698000Y342000D02*
D03*
X682000D02*
D03*
X683500Y368250D02*
D03*
X699500D02*
D03*
X209000Y580000D02*
D03*
X193000D02*
D03*
D29*
X650128Y47338D02*
D03*
Y53838D02*
D03*
Y60338D02*
D03*
Y66838D02*
D03*
X607128D02*
D03*
Y60338D02*
D03*
Y53838D02*
D03*
Y47338D02*
D03*
X650349Y185083D02*
D03*
Y191583D02*
D03*
Y198083D02*
D03*
Y204583D02*
D03*
X607349D02*
D03*
Y198083D02*
D03*
Y191583D02*
D03*
Y185083D02*
D03*
X650349Y330083D02*
D03*
Y336583D02*
D03*
Y343083D02*
D03*
Y349583D02*
D03*
X607349D02*
D03*
Y343083D02*
D03*
Y336583D02*
D03*
Y330083D02*
D03*
X650349Y485083D02*
D03*
Y491583D02*
D03*
Y498083D02*
D03*
Y504583D02*
D03*
X607349D02*
D03*
Y498083D02*
D03*
Y491583D02*
D03*
Y485083D02*
D03*
D30*
X699590Y103288D02*
D03*
Y122289D02*
D03*
X674490D02*
D03*
Y112788D02*
D03*
Y103288D02*
D03*
X699811Y386033D02*
D03*
Y405033D02*
D03*
X674712D02*
D03*
Y395533D02*
D03*
Y386033D02*
D03*
Y541033D02*
D03*
Y550533D02*
D03*
Y560033D02*
D03*
X699811D02*
D03*
Y541033D02*
D03*
Y241033D02*
D03*
Y260033D02*
D03*
X674712D02*
D03*
Y250533D02*
D03*
Y241033D02*
D03*
D31*
X302000Y403800D02*
D03*
Y387800D02*
D03*
X303416Y333779D02*
D03*
Y349779D02*
D03*
X145000Y539000D02*
D03*
Y523000D02*
D03*
D34*
X651117Y105345D02*
D03*
Y125666D02*
D03*
X651338Y263410D02*
D03*
Y243090D02*
D03*
Y543090D02*
D03*
Y563410D02*
D03*
Y408410D02*
D03*
Y388090D02*
D03*
D35*
X284000Y317800D02*
D03*
Y344000D02*
D03*
X280000Y392900D02*
D03*
Y419100D02*
D03*
X200000Y459900D02*
D03*
Y486100D02*
D03*
X67000Y518900D02*
D03*
Y545100D02*
D03*
D40*
X178000Y466850D02*
D03*
Y489150D02*
D03*
D85*
X247800Y227000D02*
D03*
D86*
X324000D02*
D03*
X298600D02*
D03*
X273200D02*
D03*
X349400D02*
D03*
X374800D02*
D03*
X400200D02*
D03*
X247800Y57000D02*
D03*
X273200D02*
D03*
X298600D02*
D03*
X349400D02*
D03*
X374800D02*
D03*
X400200D02*
D03*
X324000D02*
D03*
D87*
X330000Y121000D02*
D03*
D88*
X179000Y522950D02*
D03*
Y535650D02*
D03*
Y548350D02*
D03*
Y561050D02*
D03*
X227000Y522950D02*
D03*
Y535650D02*
D03*
Y548350D02*
D03*
Y561050D02*
D03*
D89*
X104000Y552000D02*
D03*
X94500Y532000D02*
D03*
X113500D02*
D03*
D90*
X153000Y485761D02*
D03*
Y470239D02*
D03*
M02*
