G04*
G04 #@! TF.GenerationSoftware,Altium Limited,Altium Designer,24.8.2 (39)*
G04*
G04 Layer_Color=32896*
%FSLAX44Y44*%
%MOMM*%
G71*
G04*
G04 #@! TF.SameCoordinates,DE467F84-66AF-4C6A-BC95-973404F0CDF1*
G04*
G04*
G04 #@! TF.FilePolarity,Positive*
G04*
G01*
G75*
%ADD11C,0.5080*%
%ADD13C,0.1270*%
%ADD14C,0.2000*%
%ADD16C,0.2500*%
%ADD18C,0.1778*%
%ADD19C,0.1700*%
%ADD20R,2.0000X0.3000*%
%ADD95C,0.4000*%
D11*
X453410Y590050D02*
G03*
X453410Y590050I-3810J0D01*
G01*
D13*
X679040Y97139D02*
X695040D01*
X679040Y128439D02*
X695040D01*
X428775Y53100D02*
Y230900D01*
X219225Y53100D02*
Y230900D01*
Y53100D02*
X225900D01*
X226000Y53000D01*
X219225Y230900D02*
X224900D01*
X225000Y231000D01*
X422100Y230900D02*
X428775D01*
X422000Y231000D02*
X422100Y230900D01*
X421100Y53100D02*
X428775D01*
X421000Y53000D02*
X421100Y53100D01*
X613128Y72588D02*
X644128D01*
X613128Y41588D02*
X644128D01*
X613349Y210333D02*
X644349D01*
X613349Y179333D02*
X644349D01*
X613349Y355333D02*
X644349D01*
X613349Y324333D02*
X644349D01*
X613349Y510333D02*
X644349D01*
X613349Y479333D02*
X644349D01*
X679261Y379883D02*
X695262D01*
X679261Y411183D02*
X695262D01*
X679261Y566183D02*
X695262D01*
X679261Y534883D02*
X695262D01*
X679261Y234883D02*
X695262D01*
X679261Y266183D02*
X695262D01*
D14*
X664040Y103288D02*
G03*
X664040Y103288I-1000J0D01*
G01*
X229000Y239000D02*
G03*
X229000Y239000I-1000J0D01*
G01*
X593428Y42538D02*
G03*
X593428Y42538I-1000J0D01*
G01*
X593649Y180283D02*
G03*
X593649Y180283I-1000J0D01*
G01*
Y325283D02*
G03*
X593649Y325283I-1000J0D01*
G01*
Y480283D02*
G03*
X593649Y480283I-1000J0D01*
G01*
X664261Y386033D02*
G03*
X664261Y386033I-1000J0D01*
G01*
Y541033D02*
G03*
X664261Y541033I-1000J0D01*
G01*
Y241033D02*
G03*
X664261Y241033I-1000J0D01*
G01*
X275000Y358900D02*
X293000D01*
X275000Y344900D02*
Y358900D01*
X293000Y344900D02*
Y358900D01*
Y305900D02*
Y319900D01*
X275000Y305900D02*
Y319900D01*
Y305900D02*
X293000D01*
X271000Y431000D02*
X289000D01*
Y417000D02*
Y431000D01*
X271000Y417000D02*
Y431000D01*
Y378000D02*
Y392000D01*
X289000Y378000D02*
Y392000D01*
X271000Y378000D02*
X289000D01*
X194000Y517000D02*
X212000D01*
X194000Y567000D02*
X212000D01*
X194000Y517000D02*
Y567000D01*
X212000Y517000D02*
Y567000D01*
X89000Y540250D02*
Y549000D01*
X111750D02*
X119000D01*
X89000D02*
X96250D01*
X119000Y540250D02*
Y549000D01*
X162291Y463709D02*
Y492291D01*
X143709Y463709D02*
Y492291D01*
X184750Y473750D02*
Y482250D01*
X171250Y473750D02*
Y482250D01*
X191000Y501000D02*
X209000D01*
X191000Y487000D02*
Y501000D01*
X209000Y487000D02*
Y501000D01*
Y448000D02*
Y462000D01*
X191000Y448000D02*
Y462000D01*
Y448000D02*
X209000D01*
X58000Y560000D02*
X76000D01*
X58000Y546000D02*
Y560000D01*
X76000Y546000D02*
Y560000D01*
Y507000D02*
Y521000D01*
X58000Y507000D02*
Y521000D01*
Y507000D02*
X76000D01*
D16*
X228250Y569550D02*
G03*
X228250Y569550I-1250J0D01*
G01*
X179000Y498500D02*
G03*
X179000Y498500I-1250J0D01*
G01*
D18*
X583136Y480825D02*
X589735D01*
Y494659D01*
X583136D02*
X589735D01*
X559264D02*
X565864D01*
X559264Y480825D02*
Y494659D01*
Y480825D02*
X565864D01*
X544636Y367074D02*
X551236D01*
Y380909D01*
X544636D02*
X551236D01*
X520765D02*
X527364D01*
X520765Y367074D02*
Y380909D01*
Y367074D02*
X527364D01*
X559264Y412176D02*
X565864D01*
X559264Y398341D02*
Y412176D01*
Y398341D02*
X565864D01*
X583136D02*
X589735D01*
Y412176D01*
X583136D02*
X589735D01*
X291636Y17074D02*
X298235D01*
Y30909D01*
X291636D02*
X298235D01*
X267764D02*
X274364D01*
X267764Y17074D02*
Y30909D01*
Y17074D02*
X274364D01*
X698415Y66181D02*
X705014D01*
Y52347D02*
Y66181D01*
X698415Y52347D02*
X705014D01*
X674543D02*
X681143D01*
X674543D02*
Y66181D01*
X681143D01*
X520697Y64314D02*
X527296D01*
X520697D02*
Y78148D01*
X527296D01*
X544568D02*
X551168D01*
Y64314D02*
Y78148D01*
X544568Y64314D02*
X551168D01*
X676043Y78580D02*
X682643D01*
X676043D02*
Y92414D01*
X682643D01*
X699915D02*
X706514D01*
Y78580D02*
Y92414D01*
X699915Y78580D02*
X706514D01*
X520543Y84330D02*
X527143D01*
X520543D02*
Y98164D01*
X527143D01*
X544415D02*
X551014D01*
Y84330D02*
Y98164D01*
X544415Y84330D02*
X551014D01*
X559043Y43080D02*
X565643D01*
X559043D02*
Y56914D01*
X565643D01*
X582915D02*
X589514D01*
Y43080D02*
Y56914D01*
X582915Y43080D02*
X589514D01*
X582915Y129431D02*
X589514D01*
Y115597D02*
Y129431D01*
X582915Y115597D02*
X589514D01*
X559043D02*
X565643D01*
X559043D02*
Y129431D01*
X565643D01*
X615543Y24330D02*
X622142D01*
X615543D02*
Y38164D01*
X622142D01*
X639414D02*
X646014D01*
Y24330D02*
Y38164D01*
X639414Y24330D02*
X646014D01*
X559043Y60580D02*
X565643D01*
X559043D02*
Y74414D01*
X565643D01*
X582915D02*
X589514D01*
Y60580D02*
Y74414D01*
X582915Y60580D02*
X589514D01*
X661277Y96709D02*
Y105345D01*
X651117Y96709D02*
X661277D01*
X640957D02*
X651117D01*
X640957D02*
Y105345D01*
Y125666D02*
Y134302D01*
X651117D01*
X661277D01*
Y125666D02*
Y134302D01*
X583415Y38181D02*
X590014D01*
Y24347D02*
Y38181D01*
X583415Y24347D02*
X590014D01*
X559543D02*
X566143D01*
X559543D02*
Y38181D01*
X566143D01*
X559043Y98080D02*
X565643D01*
X559043D02*
Y111914D01*
X565643D01*
X582915D02*
X589514D01*
Y98080D02*
Y111914D01*
X582915Y98080D02*
X589514D01*
X559264Y267176D02*
X565864D01*
X559264Y253341D02*
Y267176D01*
Y253341D02*
X565864D01*
X583136D02*
X589735D01*
Y267176D01*
X583136D02*
X589735D01*
X611614Y460074D02*
X618213D01*
X611614D02*
Y473909D01*
X618213D01*
X635485D02*
X642085D01*
Y460074D02*
Y473909D01*
X635485Y460074D02*
X642085D01*
X544636Y222074D02*
X551236D01*
Y235909D01*
X544636D02*
X551236D01*
X520765D02*
X527364D01*
X520765Y222074D02*
Y235909D01*
Y222074D02*
X527364D01*
X544636Y199074D02*
X551236D01*
Y212909D01*
X544636D02*
X551236D01*
X520765D02*
X527364D01*
X520765Y199074D02*
Y212909D01*
Y199074D02*
X527364D01*
X520765Y522074D02*
X527364D01*
X520765D02*
Y535909D01*
X527364D01*
X544636D02*
X551236D01*
Y522074D02*
Y535909D01*
X544636Y522074D02*
X551236D01*
X520765Y499074D02*
X527364D01*
X520765D02*
Y512909D01*
X527364D01*
X544636D02*
X551236D01*
Y499074D02*
Y512909D01*
X544636Y499074D02*
X551236D01*
X674764Y203926D02*
X681364D01*
X674764Y190091D02*
Y203926D01*
Y190091D02*
X681364D01*
X698636D02*
X705236D01*
Y203926D01*
X698636D02*
X705236D01*
X700136Y216325D02*
X706736D01*
Y230159D01*
X700136D02*
X706736D01*
X676264D02*
X682864D01*
X676264Y216325D02*
Y230159D01*
Y216325D02*
X682864D01*
X583136Y567176D02*
X589735D01*
Y553341D02*
Y567176D01*
X583136Y553341D02*
X589735D01*
X559264D02*
X565864D01*
X559264D02*
Y567176D01*
X565864D01*
X676264Y516325D02*
X682864D01*
X676264D02*
Y530159D01*
X682864D01*
X700136D02*
X706736D01*
Y516325D02*
Y530159D01*
X700136Y516325D02*
X706736D01*
X698636Y503926D02*
X705236D01*
Y490091D02*
Y503926D01*
X698636Y490091D02*
X705236D01*
X674764D02*
X681364D01*
X674764D02*
Y503926D01*
X681364D01*
X583136Y180825D02*
X589735D01*
Y194659D01*
X583136D02*
X589735D01*
X559264D02*
X565864D01*
X559264Y180825D02*
Y194659D01*
Y180825D02*
X565864D01*
X661498Y263410D02*
Y272046D01*
X651338D02*
X661498D01*
X641178D02*
X651338D01*
X641178Y263410D02*
Y272046D01*
Y234454D02*
Y243090D01*
Y234454D02*
X651338D01*
X661498D01*
Y243090D01*
X639636Y162075D02*
X646236D01*
Y175909D01*
X639636D02*
X646236D01*
X615765D02*
X622364D01*
X615765Y162075D02*
Y175909D01*
Y162075D02*
X622364D01*
X559264Y535825D02*
X565864D01*
X559264D02*
Y549659D01*
X565864D01*
X583136D02*
X589735D01*
Y535825D02*
Y549659D01*
X583136Y535825D02*
X589735D01*
X661498Y534454D02*
Y543090D01*
X651338Y534454D02*
X661498D01*
X641178D02*
X651338D01*
X641178D02*
Y543090D01*
Y563410D02*
Y572046D01*
X651338D01*
X661498D01*
Y563410D02*
Y572046D01*
X583136Y235825D02*
X589735D01*
Y249659D01*
X583136D02*
X589735D01*
X559264D02*
X565864D01*
X559264Y235825D02*
Y249659D01*
Y235825D02*
X565864D01*
X559765Y175926D02*
X566364D01*
X559765Y162091D02*
Y175926D01*
Y162091D02*
X566364D01*
X583636D02*
X590235D01*
Y175926D01*
X583636D02*
X590235D01*
X583136Y198325D02*
X589735D01*
Y212159D01*
X583136D02*
X589735D01*
X559264D02*
X565864D01*
X559264Y198325D02*
Y212159D01*
Y198325D02*
X565864D01*
X559264Y325825D02*
X565864D01*
X559264D02*
Y339659D01*
X565864D01*
X583136D02*
X589735D01*
Y325825D02*
Y339659D01*
X583136Y325825D02*
X589735D01*
X559264Y343325D02*
X565864D01*
X559264D02*
Y357159D01*
X565864D01*
X583136D02*
X589735D01*
Y343325D02*
Y357159D01*
X583136Y343325D02*
X589735D01*
X583636Y320926D02*
X590235D01*
Y307091D02*
Y320926D01*
X583636Y307091D02*
X590235D01*
X559765D02*
X566364D01*
X559765D02*
Y320926D01*
X566364D01*
X520765Y344075D02*
X527364D01*
X520765D02*
Y357909D01*
X527364D01*
X544636D02*
X551236D01*
Y344075D02*
Y357909D01*
X544636Y344075D02*
X551236D01*
X559264Y380825D02*
X565864D01*
X559264D02*
Y394659D01*
X565864D01*
X583136D02*
X589735D01*
Y380825D02*
Y394659D01*
X583136Y380825D02*
X589735D01*
X583636Y475926D02*
X590235D01*
Y462091D02*
Y475926D01*
X583636Y462091D02*
X590235D01*
X559765D02*
X566364D01*
X559765D02*
Y475926D01*
X566364D01*
X559264Y498325D02*
X565864D01*
X559264D02*
Y512159D01*
X565864D01*
X583136D02*
X589735D01*
Y498325D02*
Y512159D01*
X583136Y498325D02*
X589735D01*
X661498Y408410D02*
Y417046D01*
X651338D02*
X661498D01*
X641178D02*
X651338D01*
X641178Y408410D02*
Y417046D01*
Y379454D02*
Y388090D01*
Y379454D02*
X651338D01*
X661498D01*
Y388090D01*
X615765Y307075D02*
X622364D01*
X615765D02*
Y320909D01*
X622364D01*
X639636D02*
X646236D01*
Y307075D02*
Y320909D01*
X639636Y307075D02*
X646236D01*
X698636Y348926D02*
X705236D01*
Y335091D02*
Y348926D01*
X698636Y335091D02*
X705236D01*
X674764D02*
X681364D01*
X674764D02*
Y348926D01*
X681364D01*
X676264Y361325D02*
X682864D01*
X676264D02*
Y375159D01*
X682864D01*
X700136D02*
X706736D01*
Y361325D02*
Y375159D01*
X700136Y361325D02*
X706736D01*
X295074Y404436D02*
Y411035D01*
X308909D01*
Y404436D02*
Y411035D01*
Y380564D02*
Y387164D01*
X295074Y380564D02*
X308909D01*
X295074D02*
Y387164D01*
X310341Y326544D02*
Y333143D01*
X296507Y326544D02*
X310341D01*
X296507D02*
Y333143D01*
Y350415D02*
Y357015D01*
X310341D01*
Y350415D02*
Y357015D01*
X209636Y586926D02*
X216236D01*
Y573091D02*
Y586926D01*
X209636Y573091D02*
X216236D01*
X185765D02*
X192364D01*
X185765D02*
Y586926D01*
X192364D01*
X151926Y539636D02*
Y546236D01*
X138091D02*
X151926D01*
X138091Y539636D02*
Y546236D01*
Y515765D02*
Y522364D01*
Y515765D02*
X151926D01*
Y522364D01*
D19*
X80000Y537667D02*
Y542333D01*
X81166Y543499D01*
X83499D01*
X84665Y542333D01*
Y537667D01*
X83499Y536501D01*
X81166D01*
X82333Y538834D02*
X80000Y536501D01*
X81166D02*
X80000Y537667D01*
X77667Y536501D02*
X75335D01*
X76501D01*
Y543499D01*
X77667Y542333D01*
X240832Y579499D02*
Y573667D01*
X239665Y572501D01*
X237333D01*
X236166Y573667D01*
Y579499D01*
X229169Y572501D02*
X233834D01*
X229169Y577166D01*
Y578333D01*
X230335Y579499D01*
X232667D01*
X233834Y578333D01*
X257665Y26333D02*
X258832Y27499D01*
X261164D01*
X262330Y26333D01*
Y21667D01*
X261164Y20501D01*
X258832D01*
X257665Y21667D01*
X250667Y20501D02*
X255333D01*
X250667Y25166D01*
Y26333D01*
X251834Y27499D01*
X254166D01*
X255333Y26333D01*
X248335Y21667D02*
X247169Y20501D01*
X244836D01*
X243670Y21667D01*
Y26333D01*
X244836Y27499D01*
X247169D01*
X248335Y26333D01*
Y25166D01*
X247169Y24000D01*
X243670D01*
X705079Y331539D02*
X706245Y332706D01*
X708577D01*
X709744Y331539D01*
Y326874D01*
X708577Y325708D01*
X706245D01*
X705079Y326874D01*
X698081Y325708D02*
X702746D01*
X698081Y330373D01*
Y331539D01*
X699247Y332706D01*
X701580D01*
X702746Y331539D01*
X695748Y325708D02*
X693416D01*
X694582D01*
Y332706D01*
X695748Y331539D01*
X689917Y324542D02*
X685252D01*
X678254Y331539D02*
X679420Y332706D01*
X681753D01*
X682919Y331539D01*
Y326874D01*
X681753Y325708D01*
X679420D01*
X678254Y326874D01*
X671256Y332706D02*
X673589Y331539D01*
X675921Y329207D01*
Y326874D01*
X674755Y325708D01*
X672422D01*
X671256Y326874D01*
Y328041D01*
X672422Y329207D01*
X675921D01*
X514162Y352916D02*
X515328Y354082D01*
X517661D01*
X518827Y352916D01*
Y348251D01*
X517661Y347084D01*
X515328D01*
X514162Y348251D01*
X507164Y347084D02*
X511829D01*
X507164Y351749D01*
Y352916D01*
X508330Y354082D01*
X510663D01*
X511829Y352916D01*
X500166Y347084D02*
X504832D01*
X500166Y351749D01*
Y352916D01*
X501333Y354082D01*
X503665D01*
X504832Y352916D01*
X497834Y345918D02*
X493168D01*
X486171Y352916D02*
X487337Y354082D01*
X489670D01*
X490836Y352916D01*
Y348251D01*
X489670Y347084D01*
X487337D01*
X486171Y348251D01*
X479173Y354082D02*
X481506Y352916D01*
X483838Y350583D01*
Y348251D01*
X482672Y347084D01*
X480339D01*
X479173Y348251D01*
Y349417D01*
X480339Y350583D01*
X483838D01*
X707162Y356916D02*
X708328Y358082D01*
X710661D01*
X711827Y356916D01*
Y352251D01*
X710661Y351084D01*
X708328D01*
X707162Y352251D01*
X700164Y351084D02*
X704829D01*
X700164Y355750D01*
Y356916D01*
X701330Y358082D01*
X703663D01*
X704829Y356916D01*
X697831D02*
X696665Y358082D01*
X694333D01*
X693166Y356916D01*
Y355750D01*
X694333Y354583D01*
X695499D01*
X694333D01*
X693166Y353417D01*
Y352251D01*
X694333Y351084D01*
X696665D01*
X697831Y352251D01*
X690834Y349918D02*
X686169D01*
X679171Y356916D02*
X680337Y358082D01*
X682670D01*
X683836Y356916D01*
Y352251D01*
X682670Y351084D01*
X680337D01*
X679171Y352251D01*
X672173Y358082D02*
X674506Y356916D01*
X676838Y354583D01*
Y352251D01*
X675672Y351084D01*
X673339D01*
X672173Y352251D01*
Y353417D01*
X673339Y354583D01*
X676838D01*
X513162Y375916D02*
X514328Y377082D01*
X516661D01*
X517827Y375916D01*
Y371251D01*
X516661Y370084D01*
X514328D01*
X513162Y371251D01*
X506164Y370084D02*
X510829D01*
X506164Y374749D01*
Y375916D01*
X507330Y377082D01*
X509663D01*
X510829Y375916D01*
X500333Y370084D02*
Y377082D01*
X503831Y373583D01*
X499166D01*
X496834Y368918D02*
X492169D01*
X485171Y375916D02*
X486337Y377082D01*
X488670D01*
X489836Y375916D01*
Y371251D01*
X488670Y370084D01*
X486337D01*
X485171Y371251D01*
X478173Y377082D02*
X480506Y375916D01*
X482838Y373583D01*
Y371251D01*
X481672Y370084D01*
X479339D01*
X478173Y371251D01*
Y372417D01*
X479339Y373583D01*
X482838D01*
X552162Y335916D02*
X553328Y337082D01*
X555661D01*
X556827Y335916D01*
Y331251D01*
X555661Y330084D01*
X553328D01*
X552162Y331251D01*
X545164Y330084D02*
X549829D01*
X545164Y334749D01*
Y335916D01*
X546330Y337082D01*
X548663D01*
X549829Y335916D01*
X538166Y337082D02*
X542831D01*
Y333583D01*
X540499Y334749D01*
X539333D01*
X538166Y333583D01*
Y331251D01*
X539333Y330084D01*
X541665D01*
X542831Y331251D01*
X535834Y328918D02*
X531169D01*
X524171Y335916D02*
X525337Y337082D01*
X527670D01*
X528836Y335916D01*
Y331251D01*
X527670Y330084D01*
X525337D01*
X524171Y331251D01*
X517173Y337082D02*
X519506Y335916D01*
X521838Y333583D01*
Y331251D01*
X520672Y330084D01*
X518339D01*
X517173Y331251D01*
Y332417D01*
X518339Y333583D01*
X521838D01*
X589662Y423166D02*
X590828Y424332D01*
X593161D01*
X594327Y423166D01*
Y418501D01*
X593161Y417334D01*
X590828D01*
X589662Y418501D01*
X582664Y417334D02*
X587329D01*
X582664Y422000D01*
Y423166D01*
X583830Y424332D01*
X586163D01*
X587329Y423166D01*
X575666Y424332D02*
X577999Y423166D01*
X580331Y420833D01*
Y418501D01*
X579165Y417334D01*
X576833D01*
X575666Y418501D01*
Y419667D01*
X576833Y420833D01*
X580331D01*
X573334Y416168D02*
X568669D01*
X561671Y423166D02*
X562837Y424332D01*
X565170D01*
X566336Y423166D01*
Y418501D01*
X565170Y417334D01*
X562837D01*
X561671Y418501D01*
X554673Y424332D02*
X557006Y423166D01*
X559338Y420833D01*
Y418501D01*
X558172Y417334D01*
X555839D01*
X554673Y418501D01*
Y419667D01*
X555839Y420833D01*
X559338D01*
X645328Y296084D02*
Y303082D01*
X641829D01*
X640663Y301916D01*
Y299583D01*
X641829Y298417D01*
X645328D01*
X642996D02*
X640663Y296084D01*
X638330Y297251D02*
X637164Y296084D01*
X634831D01*
X633665Y297251D01*
Y301916D01*
X634831Y303082D01*
X637164D01*
X638330Y301916D01*
Y300749D01*
X637164Y299583D01*
X633665D01*
X631333Y294918D02*
X626667D01*
X619670Y301916D02*
X620836Y303082D01*
X623168D01*
X624335Y301916D01*
Y297251D01*
X623168Y296084D01*
X620836D01*
X619670Y297251D01*
X612672Y303082D02*
X615005Y301916D01*
X617337Y299583D01*
Y297251D01*
X616171Y296084D01*
X613838D01*
X612672Y297251D01*
Y298417D01*
X613838Y299583D01*
X617337D01*
X592744Y360334D02*
Y367332D01*
X589245D01*
X588079Y366166D01*
Y363833D01*
X589245Y362667D01*
X592744D01*
X590411D02*
X588079Y360334D01*
X585746D02*
X583414D01*
X584580D01*
Y367332D01*
X585746Y366166D01*
X579915D02*
X578748Y367332D01*
X576416D01*
X575249Y366166D01*
Y361501D01*
X576416Y360334D01*
X578748D01*
X579915Y361501D01*
Y366166D01*
X572917Y359168D02*
X568252D01*
X561254Y366166D02*
X562420Y367332D01*
X564753D01*
X565919Y366166D01*
Y361501D01*
X564753Y360334D01*
X562420D01*
X561254Y361501D01*
X554256Y367332D02*
X556589Y366166D01*
X558921Y363833D01*
Y361501D01*
X557755Y360334D01*
X555423D01*
X554256Y361501D01*
Y362667D01*
X555423Y363833D01*
X558921D01*
X669019Y370579D02*
Y377577D01*
X665520D01*
X664354Y376410D01*
Y374078D01*
X665520Y372911D01*
X669019D01*
X666686D02*
X664354Y370579D01*
X662021D02*
X659688D01*
X660855D01*
Y377577D01*
X662021Y376410D01*
X656190Y370579D02*
X653857D01*
X655023D01*
Y377577D01*
X656190Y376410D01*
X650358Y369413D02*
X645693D01*
X638695Y376410D02*
X639861Y377577D01*
X642194D01*
X643360Y376410D01*
Y371745D01*
X642194Y370579D01*
X639861D01*
X638695Y371745D01*
X631698Y377577D02*
X634030Y376410D01*
X636363Y374078D01*
Y371745D01*
X635196Y370579D01*
X632864D01*
X631698Y371745D01*
Y372911D01*
X632864Y374078D01*
X636363D01*
X592744Y370834D02*
Y377832D01*
X589245D01*
X588079Y376666D01*
Y374333D01*
X589245Y373167D01*
X592744D01*
X590411D02*
X588079Y370834D01*
X585746D02*
X583414D01*
X584580D01*
Y377832D01*
X585746Y376666D01*
X575249Y370834D02*
X579915D01*
X575249Y375499D01*
Y376666D01*
X576416Y377832D01*
X578748D01*
X579915Y376666D01*
X572917Y369668D02*
X568252D01*
X561254Y376666D02*
X562420Y377832D01*
X564753D01*
X565919Y376666D01*
Y372001D01*
X564753Y370834D01*
X562420D01*
X561254Y372001D01*
X554256Y377832D02*
X556589Y376666D01*
X558921Y374333D01*
Y372001D01*
X557755Y370834D01*
X555423D01*
X554256Y372001D01*
Y373167D01*
X555423Y374333D01*
X558921D01*
X557244Y311084D02*
Y318082D01*
X553745D01*
X552579Y316916D01*
Y314583D01*
X553745Y313417D01*
X557244D01*
X554911D02*
X552579Y311084D01*
X550246D02*
X547914D01*
X549080D01*
Y318082D01*
X550246Y316916D01*
X544415D02*
X543248Y318082D01*
X540916D01*
X539749Y316916D01*
Y315749D01*
X540916Y314583D01*
X542082D01*
X540916D01*
X539749Y313417D01*
Y312251D01*
X540916Y311084D01*
X543248D01*
X544415Y312251D01*
X537417Y309918D02*
X532752D01*
X525754Y316916D02*
X526920Y318082D01*
X529253D01*
X530419Y316916D01*
Y312251D01*
X529253Y311084D01*
X526920D01*
X525754Y312251D01*
X518756Y318082D02*
X521089Y316916D01*
X523421Y314583D01*
Y312251D01*
X522255Y311084D01*
X519922D01*
X518756Y312251D01*
Y313417D01*
X519922Y314583D01*
X523421D01*
X525743Y402082D02*
X521077D01*
X523410D01*
Y395084D01*
X518745D02*
Y402082D01*
X515246D01*
X514080Y400916D01*
Y398583D01*
X515246Y397417D01*
X518745D01*
X511747Y395084D02*
X509415D01*
X510581D01*
Y402082D01*
X511747Y400916D01*
X505916Y402082D02*
X501251D01*
Y400916D01*
X505916Y396251D01*
Y395084D01*
X498918Y393918D02*
X494253D01*
X487255Y400916D02*
X488421Y402082D01*
X490754D01*
X491920Y400916D01*
Y396251D01*
X490754Y395084D01*
X488421D01*
X487255Y396251D01*
X480257Y402082D02*
X482590Y400916D01*
X484922Y398583D01*
Y396251D01*
X483756Y395084D01*
X481424D01*
X480257Y396251D01*
Y397417D01*
X481424Y398583D01*
X484922D01*
X636328Y367082D02*
Y361251D01*
X635162Y360084D01*
X632829D01*
X631663Y361251D01*
Y367082D01*
X629330Y365916D02*
X628164Y367082D01*
X625831D01*
X624665Y365916D01*
Y364749D01*
X625831Y363583D01*
X626998D01*
X625831D01*
X624665Y362417D01*
Y361251D01*
X625831Y360084D01*
X628164D01*
X629330Y361251D01*
X622333Y358918D02*
X617667D01*
X610670Y365916D02*
X611836Y367082D01*
X614169D01*
X615335Y365916D01*
Y361251D01*
X614169Y360084D01*
X611836D01*
X610670Y361251D01*
X603672Y367082D02*
X606004Y365916D01*
X608337Y363583D01*
Y361251D01*
X607171Y360084D01*
X604838D01*
X603672Y361251D01*
Y362417D01*
X604838Y363583D01*
X608337D01*
X703590Y419615D02*
Y413784D01*
X702423Y412617D01*
X700091D01*
X698924Y413784D01*
Y419615D01*
X693093Y412617D02*
Y419615D01*
X696592Y416116D01*
X691927D01*
X689594Y411451D02*
X684929D01*
X677931Y418449D02*
X679098Y419615D01*
X681430D01*
X682596Y418449D01*
Y413784D01*
X681430Y412617D01*
X679098D01*
X677931Y413784D01*
X670934Y419615D02*
X673266Y418449D01*
X675599Y416116D01*
Y413784D01*
X674432Y412617D01*
X672100D01*
X670934Y413784D01*
Y414950D01*
X672100Y416116D01*
X675599D01*
X189501Y230832D02*
X195333D01*
X196499Y229665D01*
Y227333D01*
X195333Y226166D01*
X189501D01*
Y219169D02*
X190667Y221501D01*
X193000Y223834D01*
X195333D01*
X196499Y222667D01*
Y220335D01*
X195333Y219169D01*
X194166D01*
X193000Y220335D01*
Y223834D01*
X703368Y136870D02*
Y131039D01*
X702202Y129873D01*
X699869D01*
X698703Y131039D01*
Y136870D01*
X692872Y129873D02*
Y136870D01*
X696370Y133372D01*
X691705D01*
X689373Y128706D02*
X684707D01*
X677710Y135704D02*
X678876Y136870D01*
X681209D01*
X682375Y135704D01*
Y131039D01*
X681209Y129873D01*
X678876D01*
X677710Y131039D01*
X675377Y135704D02*
X674211Y136870D01*
X671878D01*
X670712Y135704D01*
Y134538D01*
X671878Y133372D01*
X670712Y132205D01*
Y131039D01*
X671878Y129873D01*
X674211D01*
X675377Y131039D01*
Y132205D01*
X674211Y133372D01*
X675377Y134538D01*
Y135704D01*
X674211Y133372D02*
X671878D01*
X703590Y274615D02*
Y268784D01*
X702423Y267617D01*
X700091D01*
X698924Y268784D01*
Y274615D01*
X693093Y267617D02*
Y274615D01*
X696592Y271116D01*
X691927D01*
X689594Y266451D02*
X684929D01*
X677931Y273449D02*
X679098Y274615D01*
X681430D01*
X682596Y273449D01*
Y268784D01*
X681430Y267617D01*
X679098D01*
X677931Y268784D01*
X675599Y274615D02*
X670934D01*
Y273449D01*
X675599Y268784D01*
Y267617D01*
X703590Y574615D02*
Y568784D01*
X702423Y567617D01*
X700091D01*
X698924Y568784D01*
Y574615D01*
X693093Y567617D02*
Y574615D01*
X696592Y571116D01*
X691927D01*
X689594Y566451D02*
X684929D01*
X677931Y573449D02*
X679098Y574615D01*
X681430D01*
X682596Y573449D01*
Y568784D01*
X681430Y567617D01*
X679098D01*
X677931Y568784D01*
X670934Y574615D02*
X675599D01*
Y571116D01*
X673266Y572282D01*
X672100D01*
X670934Y571116D01*
Y568784D01*
X672100Y567617D01*
X674432D01*
X675599Y568784D01*
X643328Y83082D02*
Y77251D01*
X642162Y76084D01*
X639829D01*
X638663Y77251D01*
Y83082D01*
X636330Y81916D02*
X635164Y83082D01*
X632831D01*
X631665Y81916D01*
Y80749D01*
X632831Y79583D01*
X633998D01*
X632831D01*
X631665Y78417D01*
Y77251D01*
X632831Y76084D01*
X635164D01*
X636330Y77251D01*
X629333Y74918D02*
X624667D01*
X617670Y81916D02*
X618836Y83082D01*
X621169D01*
X622335Y81916D01*
Y77251D01*
X621169Y76084D01*
X618836D01*
X617670Y77251D01*
X615337Y81916D02*
X614171Y83082D01*
X611838D01*
X610672Y81916D01*
Y80749D01*
X611838Y79583D01*
X610672Y78417D01*
Y77251D01*
X611838Y76084D01*
X614171D01*
X615337Y77251D01*
Y78417D01*
X614171Y79583D01*
X615337Y80749D01*
Y81916D01*
X614171Y79583D02*
X611838D01*
X635328Y221082D02*
Y215251D01*
X634162Y214084D01*
X631829D01*
X630663Y215251D01*
Y221082D01*
X628330Y219916D02*
X627164Y221082D01*
X624832D01*
X623665Y219916D01*
Y218749D01*
X624832Y217583D01*
X625998D01*
X624832D01*
X623665Y216417D01*
Y215251D01*
X624832Y214084D01*
X627164D01*
X628330Y215251D01*
X621333Y212918D02*
X616667D01*
X609670Y219916D02*
X610836Y221082D01*
X613168D01*
X614335Y219916D01*
Y215251D01*
X613168Y214084D01*
X610836D01*
X609670Y215251D01*
X607337Y221082D02*
X602672D01*
Y219916D01*
X607337Y215251D01*
Y214084D01*
X637328Y521082D02*
Y515251D01*
X636162Y514084D01*
X633829D01*
X632663Y515251D01*
Y521082D01*
X630330Y519916D02*
X629164Y521082D01*
X626832D01*
X625665Y519916D01*
Y518750D01*
X626832Y517583D01*
X627998D01*
X626832D01*
X625665Y516417D01*
Y515251D01*
X626832Y514084D01*
X629164D01*
X630330Y515251D01*
X623333Y512918D02*
X618667D01*
X611670Y519916D02*
X612836Y521082D01*
X615168D01*
X616335Y519916D01*
Y515251D01*
X615168Y514084D01*
X612836D01*
X611670Y515251D01*
X604672Y521082D02*
X609337D01*
Y517583D01*
X607005Y518750D01*
X605838D01*
X604672Y517583D01*
Y515251D01*
X605838Y514084D01*
X608171D01*
X609337Y515251D01*
X469330Y526499D02*
X464665D01*
X466998D01*
Y519501D01*
X462333D02*
Y526499D01*
X458834D01*
X457667Y525333D01*
Y523000D01*
X458834Y521834D01*
X462333D01*
X450670Y526499D02*
X455335D01*
Y523000D01*
X453002Y524166D01*
X451836D01*
X450670Y523000D01*
Y520667D01*
X451836Y519501D01*
X454169D01*
X455335Y520667D01*
X468330Y246499D02*
X463665D01*
X465998D01*
Y239501D01*
X461333D02*
Y246499D01*
X457834D01*
X456667Y245333D01*
Y243000D01*
X457834Y241834D01*
X461333D01*
X454335Y246499D02*
X449670D01*
Y245333D01*
X454335Y240667D01*
Y239501D01*
X469330Y109499D02*
X464665D01*
X466998D01*
Y102501D01*
X462333D02*
Y109499D01*
X458834D01*
X457667Y108333D01*
Y106000D01*
X458834Y104834D01*
X462333D01*
X455335Y108333D02*
X454169Y109499D01*
X451836D01*
X450670Y108333D01*
Y107166D01*
X451836Y106000D01*
X450670Y104834D01*
Y103667D01*
X451836Y102501D01*
X454169D01*
X455335Y103667D01*
Y104834D01*
X454169Y106000D01*
X455335Y107166D01*
Y108333D01*
X454169Y106000D02*
X451836D01*
X470330Y395499D02*
X465665D01*
X467998D01*
Y388501D01*
X463333D02*
Y395499D01*
X459834D01*
X458667Y394333D01*
Y392000D01*
X459834Y390834D01*
X463333D01*
X451670Y395499D02*
X454002Y394333D01*
X456335Y392000D01*
Y389667D01*
X455168Y388501D01*
X452836D01*
X451670Y389667D01*
Y390834D01*
X452836Y392000D01*
X456335D01*
X523743Y118082D02*
X519077D01*
X521410D01*
Y111084D01*
X516745D02*
Y118082D01*
X513246D01*
X512080Y116916D01*
Y114583D01*
X513246Y113417D01*
X516745D01*
X509747Y111084D02*
X507415D01*
X508581D01*
Y118082D01*
X509747Y116916D01*
X503916Y118082D02*
X499250D01*
Y116916D01*
X503916Y112251D01*
Y111084D01*
X496918Y109918D02*
X492253D01*
X485255Y116916D02*
X486421Y118082D01*
X488754D01*
X489920Y116916D01*
Y112251D01*
X488754Y111084D01*
X486421D01*
X485255Y112251D01*
X482923Y116916D02*
X481756Y118082D01*
X479424D01*
X478257Y116916D01*
Y115750D01*
X479424Y114583D01*
X478257Y113417D01*
Y112251D01*
X479424Y111084D01*
X481756D01*
X482923Y112251D01*
Y113417D01*
X481756Y114583D01*
X482923Y115750D01*
Y116916D01*
X481756Y114583D02*
X479424D01*
X525743Y256082D02*
X521077D01*
X523410D01*
Y249084D01*
X518745D02*
Y256082D01*
X515246D01*
X514080Y254916D01*
Y252583D01*
X515246Y251417D01*
X518745D01*
X511747Y249084D02*
X509415D01*
X510581D01*
Y256082D01*
X511747Y254916D01*
X505916Y256082D02*
X501251D01*
Y254916D01*
X505916Y250251D01*
Y249084D01*
X498918Y247918D02*
X494253D01*
X487255Y254916D02*
X488421Y256082D01*
X490754D01*
X491920Y254916D01*
Y250251D01*
X490754Y249084D01*
X488421D01*
X487255Y250251D01*
X484922Y256082D02*
X480257D01*
Y254916D01*
X484922Y250251D01*
Y249084D01*
X561743Y590082D02*
X557077D01*
X559410D01*
Y583084D01*
X554745D02*
Y590082D01*
X551246D01*
X550080Y588916D01*
Y586583D01*
X551246Y585417D01*
X554745D01*
X547747Y583084D02*
X545415D01*
X546581D01*
Y590082D01*
X547747Y588916D01*
X541916Y590082D02*
X537251D01*
Y588916D01*
X541916Y584251D01*
Y583084D01*
X534918Y581918D02*
X530253D01*
X523255Y588916D02*
X524421Y590082D01*
X526754D01*
X527920Y588916D01*
Y584251D01*
X526754Y583084D01*
X524421D01*
X523255Y584251D01*
X516257Y590082D02*
X520923D01*
Y586583D01*
X518590Y587749D01*
X517424D01*
X516257Y586583D01*
Y584251D01*
X517424Y583084D01*
X519756D01*
X520923Y584251D01*
X134246Y512499D02*
X129581D01*
X131913D01*
Y505501D01*
X127248D02*
Y512499D01*
X123749D01*
X122583Y511333D01*
Y509000D01*
X123749Y507834D01*
X127248D01*
X120251Y505501D02*
X117918D01*
X119084D01*
Y512499D01*
X120251Y511333D01*
X109754Y512499D02*
X114419D01*
Y509000D01*
X112086Y510166D01*
X110920D01*
X109754Y509000D01*
Y506667D01*
X110920Y505501D01*
X113253D01*
X114419Y506667D01*
X324246Y283499D02*
X319581D01*
X321913D01*
Y276501D01*
X317248D02*
Y283499D01*
X313749D01*
X312583Y282333D01*
Y280000D01*
X313749Y278834D01*
X317248D01*
X310251Y276501D02*
X307918D01*
X309084D01*
Y283499D01*
X310251Y282333D01*
X299754Y276501D02*
X304419D01*
X299754Y281166D01*
Y282333D01*
X300920Y283499D01*
X303253D01*
X304419Y282333D01*
X352080Y282499D02*
X347415D01*
X349747D01*
Y275501D01*
X345082D02*
Y282499D01*
X341583D01*
X340417Y281333D01*
Y279000D01*
X341583Y277834D01*
X345082D01*
X338084Y275501D02*
X335752D01*
X336918D01*
Y282499D01*
X338084Y281333D01*
X332253Y275501D02*
X329920D01*
X331087D01*
Y282499D01*
X332253Y281333D01*
X355246Y385499D02*
X350581D01*
X352914D01*
Y378501D01*
X348248D02*
Y385499D01*
X344749D01*
X343583Y384333D01*
Y382000D01*
X344749Y380834D01*
X348248D01*
X341250Y378501D02*
X338918D01*
X340084D01*
Y385499D01*
X341250Y384333D01*
X335419D02*
X334253Y385499D01*
X331920D01*
X330754Y384333D01*
Y379667D01*
X331920Y378501D01*
X334253D01*
X335419Y379667D01*
Y384333D01*
X377960Y385266D02*
X373294D01*
X375627D01*
Y378268D01*
X370962D02*
Y385266D01*
X367463D01*
X366297Y384100D01*
Y381767D01*
X367463Y380601D01*
X370962D01*
X363964Y379435D02*
X362798Y378268D01*
X360465D01*
X359299Y379435D01*
Y384100D01*
X360465Y385266D01*
X362798D01*
X363964Y384100D01*
Y382934D01*
X362798Y381767D01*
X359299D01*
X593244Y14084D02*
Y21082D01*
X589745D01*
X588579Y19916D01*
Y17583D01*
X589745Y16417D01*
X593244D01*
X590911D02*
X588579Y14084D01*
X586246D02*
X583913D01*
X585080D01*
Y21082D01*
X586246Y19916D01*
X580415D02*
X579248Y21082D01*
X576916D01*
X575749Y19916D01*
Y18749D01*
X576916Y17583D01*
X578082D01*
X576916D01*
X575749Y16417D01*
Y15251D01*
X576916Y14084D01*
X579248D01*
X580415Y15251D01*
X573417Y12918D02*
X568752D01*
X561754Y19916D02*
X562920Y21082D01*
X565253D01*
X566419Y19916D01*
Y15251D01*
X565253Y14084D01*
X562920D01*
X561754Y15251D01*
X559421Y19916D02*
X558255Y21082D01*
X555923D01*
X554756Y19916D01*
Y18749D01*
X555923Y17583D01*
X554756Y16417D01*
Y15251D01*
X555923Y14084D01*
X558255D01*
X559421Y15251D01*
Y16417D01*
X558255Y17583D01*
X559421Y18749D01*
Y19916D01*
X558255Y17583D02*
X555923D01*
X554244Y165084D02*
Y172082D01*
X550745D01*
X549579Y170916D01*
Y168583D01*
X550745Y167417D01*
X554244D01*
X551911D02*
X549579Y165084D01*
X547246D02*
X544913D01*
X546080D01*
Y172082D01*
X547246Y170916D01*
X541415D02*
X540248Y172082D01*
X537916D01*
X536749Y170916D01*
Y169749D01*
X537916Y168583D01*
X539082D01*
X537916D01*
X536749Y167417D01*
Y166251D01*
X537916Y165084D01*
X540248D01*
X541415Y166251D01*
X534417Y163918D02*
X529752D01*
X522754Y170916D02*
X523920Y172082D01*
X526253D01*
X527419Y170916D01*
Y166251D01*
X526253Y165084D01*
X523920D01*
X522754Y166251D01*
X520421Y172082D02*
X515756D01*
Y170916D01*
X520421Y166251D01*
Y165084D01*
X554244Y466084D02*
Y473082D01*
X550745D01*
X549579Y471916D01*
Y469583D01*
X550745Y468417D01*
X554244D01*
X551911D02*
X549579Y466084D01*
X547246D02*
X544913D01*
X546080D01*
Y473082D01*
X547246Y471916D01*
X541415D02*
X540248Y473082D01*
X537916D01*
X536749Y471916D01*
Y470750D01*
X537916Y469583D01*
X539082D01*
X537916D01*
X536749Y468417D01*
Y467251D01*
X537916Y466084D01*
X540248D01*
X541415Y467251D01*
X534417Y464918D02*
X529752D01*
X522754Y471916D02*
X523920Y473082D01*
X526253D01*
X527419Y471916D01*
Y467251D01*
X526253Y466084D01*
X523920D01*
X522754Y467251D01*
X515756Y473082D02*
X520421D01*
Y469583D01*
X518089Y470750D01*
X516922D01*
X515756Y469583D01*
Y467251D01*
X516922Y466084D01*
X519255D01*
X520421Y467251D01*
X592522Y88090D02*
Y95087D01*
X589024D01*
X587857Y93921D01*
Y91589D01*
X589024Y90422D01*
X592522D01*
X590190D02*
X587857Y88090D01*
X585525D02*
X583192D01*
X584358D01*
Y95087D01*
X585525Y93921D01*
X575028Y88090D02*
X579693D01*
X575028Y92755D01*
Y93921D01*
X576194Y95087D01*
X578527D01*
X579693Y93921D01*
X572695Y86924D02*
X568030D01*
X561032Y93921D02*
X562199Y95087D01*
X564531D01*
X565698Y93921D01*
Y89256D01*
X564531Y88090D01*
X562199D01*
X561032Y89256D01*
X558700Y93921D02*
X557534Y95087D01*
X555201D01*
X554035Y93921D01*
Y92755D01*
X555201Y91589D01*
X554035Y90422D01*
Y89256D01*
X555201Y88090D01*
X557534D01*
X558700Y89256D01*
Y90422D01*
X557534Y91589D01*
X558700Y92755D01*
Y93921D01*
X557534Y91589D02*
X555201D01*
X592744Y225834D02*
Y232832D01*
X589245D01*
X588079Y231666D01*
Y229333D01*
X589245Y228167D01*
X592744D01*
X590411D02*
X588079Y225834D01*
X585746D02*
X583414D01*
X584580D01*
Y232832D01*
X585746Y231666D01*
X575249Y225834D02*
X579915D01*
X575249Y230499D01*
Y231666D01*
X576416Y232832D01*
X578748D01*
X579915Y231666D01*
X572917Y224668D02*
X568252D01*
X561254Y231666D02*
X562420Y232832D01*
X564753D01*
X565919Y231666D01*
Y227001D01*
X564753Y225834D01*
X562420D01*
X561254Y227001D01*
X558921Y232832D02*
X554256D01*
Y231666D01*
X558921Y227001D01*
Y225834D01*
X592744Y525834D02*
Y532832D01*
X589245D01*
X588079Y531666D01*
Y529333D01*
X589245Y528167D01*
X592744D01*
X590411D02*
X588079Y525834D01*
X585746D02*
X583414D01*
X584580D01*
Y532832D01*
X585746Y531666D01*
X575249Y525834D02*
X579915D01*
X575249Y530499D01*
Y531666D01*
X576416Y532832D01*
X578748D01*
X579915Y531666D01*
X572917Y524668D02*
X568252D01*
X561254Y531666D02*
X562420Y532832D01*
X564753D01*
X565919Y531666D01*
Y527001D01*
X564753Y525834D01*
X562420D01*
X561254Y527001D01*
X554256Y532832D02*
X558921D01*
Y529333D01*
X556589Y530499D01*
X555423D01*
X554256Y529333D01*
Y527001D01*
X555423Y525834D01*
X557755D01*
X558921Y527001D01*
X668797Y87834D02*
Y94832D01*
X665298D01*
X664132Y93666D01*
Y91333D01*
X665298Y90167D01*
X668797D01*
X666465D02*
X664132Y87834D01*
X661800D02*
X659467D01*
X660633D01*
Y94832D01*
X661800Y93666D01*
X655968Y87834D02*
X653636D01*
X654802D01*
Y94832D01*
X655968Y93666D01*
X650137Y86668D02*
X645472D01*
X638474Y93666D02*
X639640Y94832D01*
X641973D01*
X643139Y93666D01*
Y89001D01*
X641973Y87834D01*
X639640D01*
X638474Y89001D01*
X636141Y93666D02*
X634975Y94832D01*
X632642D01*
X631476Y93666D01*
Y92500D01*
X632642Y91333D01*
X631476Y90167D01*
Y89001D01*
X632642Y87834D01*
X634975D01*
X636141Y89001D01*
Y90167D01*
X634975Y91333D01*
X636141Y92500D01*
Y93666D01*
X634975Y91333D02*
X632642D01*
X669019Y224829D02*
Y231827D01*
X665520D01*
X664354Y230660D01*
Y228328D01*
X665520Y227161D01*
X669019D01*
X666686D02*
X664354Y224829D01*
X662021D02*
X659688D01*
X660855D01*
Y231827D01*
X662021Y230660D01*
X656190Y224829D02*
X653857D01*
X655023D01*
Y231827D01*
X656190Y230660D01*
X650358Y223663D02*
X645693D01*
X638695Y230660D02*
X639861Y231827D01*
X642194D01*
X643360Y230660D01*
Y225995D01*
X642194Y224829D01*
X639861D01*
X638695Y225995D01*
X636363Y231827D02*
X631698D01*
Y230660D01*
X636363Y225995D01*
Y224829D01*
X669661Y524084D02*
Y531082D01*
X666162D01*
X664995Y529916D01*
Y527583D01*
X666162Y526417D01*
X669661D01*
X667328D02*
X664995Y524084D01*
X662663D02*
X660330D01*
X661497D01*
Y531082D01*
X662663Y529916D01*
X656832Y524084D02*
X654499D01*
X655665D01*
Y531082D01*
X656832Y529916D01*
X651000Y522918D02*
X646335D01*
X639337Y529916D02*
X640503Y531082D01*
X642836D01*
X644002Y529916D01*
Y525251D01*
X642836Y524084D01*
X640503D01*
X639337Y525251D01*
X632339Y531082D02*
X637005D01*
Y527583D01*
X634672Y528749D01*
X633506D01*
X632339Y527583D01*
Y525251D01*
X633506Y524084D01*
X635838D01*
X637005Y525251D01*
X592522Y77590D02*
Y84587D01*
X589024D01*
X587857Y83421D01*
Y81089D01*
X589024Y79922D01*
X592522D01*
X590190D02*
X587857Y77590D01*
X585525D02*
X583192D01*
X584358D01*
Y84587D01*
X585525Y83421D01*
X579693D02*
X578527Y84587D01*
X576194D01*
X575028Y83421D01*
Y78756D01*
X576194Y77590D01*
X578527D01*
X579693Y78756D01*
Y83421D01*
X572695Y76424D02*
X568030D01*
X561032Y83421D02*
X562199Y84587D01*
X564531D01*
X565698Y83421D01*
Y78756D01*
X564531Y77590D01*
X562199D01*
X561032Y78756D01*
X558700Y83421D02*
X557534Y84587D01*
X555201D01*
X554035Y83421D01*
Y82255D01*
X555201Y81089D01*
X554035Y79922D01*
Y78756D01*
X555201Y77590D01*
X557534D01*
X558700Y78756D01*
Y79922D01*
X557534Y81089D01*
X558700Y82255D01*
Y83421D01*
X557534Y81089D02*
X555201D01*
X592744Y215334D02*
Y222332D01*
X589245D01*
X588079Y221166D01*
Y218833D01*
X589245Y217667D01*
X592744D01*
X590411D02*
X588079Y215334D01*
X585746D02*
X583414D01*
X584580D01*
Y222332D01*
X585746Y221166D01*
X579915D02*
X578748Y222332D01*
X576416D01*
X575249Y221166D01*
Y216501D01*
X576416Y215334D01*
X578748D01*
X579915Y216501D01*
Y221166D01*
X572917Y214168D02*
X568252D01*
X561254Y221166D02*
X562420Y222332D01*
X564753D01*
X565919Y221166D01*
Y216501D01*
X564753Y215334D01*
X562420D01*
X561254Y216501D01*
X558921Y222332D02*
X554256D01*
Y221166D01*
X558921Y216501D01*
Y215334D01*
X592744Y515334D02*
Y522332D01*
X589245D01*
X588079Y521166D01*
Y518833D01*
X589245Y517667D01*
X592744D01*
X590411D02*
X588079Y515334D01*
X585746D02*
X583414D01*
X584580D01*
Y522332D01*
X585746Y521166D01*
X579915D02*
X578748Y522332D01*
X576416D01*
X575249Y521166D01*
Y516501D01*
X576416Y515334D01*
X578748D01*
X579915Y516501D01*
Y521166D01*
X572917Y514168D02*
X568252D01*
X561254Y521166D02*
X562420Y522332D01*
X564753D01*
X565919Y521166D01*
Y516501D01*
X564753Y515334D01*
X562420D01*
X561254Y516501D01*
X554256Y522332D02*
X558921D01*
Y518833D01*
X556589Y520000D01*
X555423D01*
X554256Y518833D01*
Y516501D01*
X555423Y515334D01*
X557755D01*
X558921Y516501D01*
X646107Y14340D02*
Y21337D01*
X642608D01*
X641441Y20171D01*
Y17839D01*
X642608Y16672D01*
X646107D01*
X643774D02*
X641441Y14340D01*
X639109Y15506D02*
X637943Y14340D01*
X635610D01*
X634444Y15506D01*
Y20171D01*
X635610Y21337D01*
X637943D01*
X639109Y20171D01*
Y19005D01*
X637943Y17839D01*
X634444D01*
X632111Y13174D02*
X627446D01*
X620448Y20171D02*
X621614Y21337D01*
X623947D01*
X625113Y20171D01*
Y15506D01*
X623947Y14340D01*
X621614D01*
X620448Y15506D01*
X618116Y20171D02*
X616949Y21337D01*
X614617D01*
X613451Y20171D01*
Y19005D01*
X614617Y17839D01*
X613451Y16672D01*
Y15506D01*
X614617Y14340D01*
X616949D01*
X618116Y15506D01*
Y16672D01*
X616949Y17839D01*
X618116Y19005D01*
Y20171D01*
X616949Y17839D02*
X614617D01*
X645328Y151084D02*
Y158082D01*
X641829D01*
X640663Y156916D01*
Y154583D01*
X641829Y153417D01*
X645328D01*
X642996D02*
X640663Y151084D01*
X638330Y152251D02*
X637164Y151084D01*
X634831D01*
X633665Y152251D01*
Y156916D01*
X634831Y158082D01*
X637164D01*
X638330Y156916D01*
Y155750D01*
X637164Y154583D01*
X633665D01*
X631333Y149918D02*
X626667D01*
X619670Y156916D02*
X620836Y158082D01*
X623168D01*
X624335Y156916D01*
Y152251D01*
X623168Y151084D01*
X620836D01*
X619670Y152251D01*
X617337Y158082D02*
X612672D01*
Y156916D01*
X617337Y152251D01*
Y151084D01*
X641178Y449084D02*
Y456082D01*
X637679D01*
X636512Y454916D01*
Y452583D01*
X637679Y451417D01*
X641178D01*
X638845D02*
X636512Y449084D01*
X634180Y450251D02*
X633013Y449084D01*
X630681D01*
X629515Y450251D01*
Y454916D01*
X630681Y456082D01*
X633013D01*
X634180Y454916D01*
Y453750D01*
X633013Y452583D01*
X629515D01*
X627182Y447918D02*
X622517D01*
X615519Y454916D02*
X616685Y456082D01*
X619018D01*
X620184Y454916D01*
Y450251D01*
X619018Y449084D01*
X616685D01*
X615519Y450251D01*
X608521Y456082D02*
X613186D01*
Y452583D01*
X610854Y453750D01*
X609688D01*
X608521Y452583D01*
Y450251D01*
X609688Y449084D01*
X612020D01*
X613186Y450251D01*
X149831Y551501D02*
Y558499D01*
X146333D01*
X145166Y557333D01*
Y555000D01*
X146333Y553834D01*
X149831D01*
X147499D02*
X145166Y551501D01*
X142834Y557333D02*
X141667Y558499D01*
X139335D01*
X138168Y557333D01*
Y556166D01*
X139335Y555000D01*
X140501D01*
X139335D01*
X138168Y553834D01*
Y552667D01*
X139335Y551501D01*
X141667D01*
X142834Y552667D01*
X155499Y454499D02*
X160164D01*
Y451000D01*
X157831D01*
X160164D01*
Y447501D01*
X153166Y454499D02*
Y447501D01*
X149667D01*
X148501Y448667D01*
Y449834D01*
X149667Y451000D01*
X153166D01*
X149667D01*
X148501Y452166D01*
Y453333D01*
X149667Y454499D01*
X153166D01*
X146168Y447501D02*
X143836D01*
X145002D01*
Y454499D01*
X146168Y453333D01*
X182665Y457499D02*
Y450501D01*
X179166D01*
X178000Y451667D01*
Y456333D01*
X179166Y457499D01*
X182665D01*
X175667Y450501D02*
X173335D01*
X174501D01*
Y457499D01*
X175667Y456333D01*
X589440Y140421D02*
X590607Y141588D01*
X592939D01*
X594105Y140421D01*
Y135756D01*
X592939Y134590D01*
X590607D01*
X589440Y135756D01*
X582443Y134590D02*
X587108D01*
X582443Y139255D01*
Y140421D01*
X583609Y141588D01*
X585942D01*
X587108Y140421D01*
X575445Y141588D02*
X577777Y140421D01*
X580110Y138089D01*
Y135756D01*
X578944Y134590D01*
X576611D01*
X575445Y135756D01*
Y136922D01*
X576611Y138089D01*
X580110D01*
X573112Y133424D02*
X568447D01*
X561449Y140421D02*
X562616Y141588D01*
X564948D01*
X566115Y140421D01*
Y135756D01*
X564948Y134590D01*
X562616D01*
X561449Y135756D01*
X559117Y140421D02*
X557951Y141588D01*
X555618D01*
X554452Y140421D01*
Y139255D01*
X555618Y138089D01*
X554452Y136922D01*
Y135756D01*
X555618Y134590D01*
X557951D01*
X559117Y135756D01*
Y136922D01*
X557951Y138089D01*
X559117Y139255D01*
Y140421D01*
X557951Y138089D02*
X555618D01*
X589662Y278166D02*
X590828Y279332D01*
X593161D01*
X594327Y278166D01*
Y273501D01*
X593161Y272334D01*
X590828D01*
X589662Y273501D01*
X582664Y272334D02*
X587329D01*
X582664Y276999D01*
Y278166D01*
X583830Y279332D01*
X586163D01*
X587329Y278166D01*
X575666Y279332D02*
X577999Y278166D01*
X580331Y275833D01*
Y273501D01*
X579165Y272334D01*
X576833D01*
X575666Y273501D01*
Y274667D01*
X576833Y275833D01*
X580331D01*
X573334Y271168D02*
X568669D01*
X561671Y278166D02*
X562837Y279332D01*
X565170D01*
X566336Y278166D01*
Y273501D01*
X565170Y272334D01*
X562837D01*
X561671Y273501D01*
X559338Y279332D02*
X554673D01*
Y278166D01*
X559338Y273501D01*
Y272334D01*
X589662Y578166D02*
X590828Y579332D01*
X593161D01*
X594327Y578166D01*
Y573501D01*
X593161Y572334D01*
X590828D01*
X589662Y573501D01*
X582664Y572334D02*
X587329D01*
X582664Y577000D01*
Y578166D01*
X583830Y579332D01*
X586163D01*
X587329Y578166D01*
X575666Y579332D02*
X577999Y578166D01*
X580331Y575833D01*
Y573501D01*
X579165Y572334D01*
X576833D01*
X575666Y573501D01*
Y574667D01*
X576833Y575833D01*
X580331D01*
X573334Y571168D02*
X568669D01*
X561671Y578166D02*
X562837Y579332D01*
X565170D01*
X566336Y578166D01*
Y573501D01*
X565170Y572334D01*
X562837D01*
X561671Y573501D01*
X554673Y579332D02*
X559338D01*
Y575833D01*
X557006Y577000D01*
X555839D01*
X554673Y575833D01*
Y573501D01*
X555839Y572334D01*
X558172D01*
X559338Y573501D01*
X628290Y53916D02*
X629456Y55082D01*
X631789D01*
X632955Y53916D01*
Y49251D01*
X631789Y48084D01*
X629456D01*
X628290Y49251D01*
X621292Y48084D02*
X625957D01*
X621292Y52749D01*
Y53916D01*
X622458Y55082D01*
X624791D01*
X625957Y53916D01*
X614294Y55082D02*
X618959D01*
Y51583D01*
X616627Y52749D01*
X615461D01*
X614294Y51583D01*
Y49251D01*
X615461Y48084D01*
X617793D01*
X618959Y49251D01*
X611962Y46918D02*
X607296D01*
X600299Y53916D02*
X601465Y55082D01*
X603798D01*
X604964Y53916D01*
Y49251D01*
X603798Y48084D01*
X601465D01*
X600299Y49251D01*
X597966Y53916D02*
X596800Y55082D01*
X594467D01*
X593301Y53916D01*
Y52749D01*
X594467Y51583D01*
X593301Y50417D01*
Y49251D01*
X594467Y48084D01*
X596800D01*
X597966Y49251D01*
Y50417D01*
X596800Y51583D01*
X597966Y52749D01*
Y53916D01*
X596800Y51583D02*
X594467D01*
X550162Y189916D02*
X551328Y191082D01*
X553661D01*
X554827Y189916D01*
Y185251D01*
X553661Y184084D01*
X551328D01*
X550162Y185251D01*
X543164Y184084D02*
X547829D01*
X543164Y188750D01*
Y189916D01*
X544330Y191082D01*
X546663D01*
X547829Y189916D01*
X536166Y191082D02*
X540831D01*
Y187583D01*
X538499Y188750D01*
X537333D01*
X536166Y187583D01*
Y185251D01*
X537333Y184084D01*
X539665D01*
X540831Y185251D01*
X533834Y182918D02*
X529169D01*
X522171Y189916D02*
X523337Y191082D01*
X525670D01*
X526836Y189916D01*
Y185251D01*
X525670Y184084D01*
X523337D01*
X522171Y185251D01*
X519838Y191082D02*
X515173D01*
Y189916D01*
X519838Y185251D01*
Y184084D01*
X551162Y490916D02*
X552328Y492082D01*
X554661D01*
X555827Y490916D01*
Y486251D01*
X554661Y485084D01*
X552328D01*
X551162Y486251D01*
X544164Y485084D02*
X548829D01*
X544164Y489749D01*
Y490916D01*
X545330Y492082D01*
X547663D01*
X548829Y490916D01*
X537166Y492082D02*
X541832D01*
Y488583D01*
X539499Y489749D01*
X538333D01*
X537166Y488583D01*
Y486251D01*
X538333Y485084D01*
X540665D01*
X541832Y486251D01*
X534834Y483918D02*
X530168D01*
X523171Y490916D02*
X524337Y492082D01*
X526670D01*
X527836Y490916D01*
Y486251D01*
X526670Y485084D01*
X524337D01*
X523171Y486251D01*
X516173Y492082D02*
X520838D01*
Y488583D01*
X518506Y489749D01*
X517339D01*
X516173Y488583D01*
Y486251D01*
X517339Y485084D01*
X519672D01*
X520838Y486251D01*
X512162Y93916D02*
X513328Y95082D01*
X515661D01*
X516827Y93916D01*
Y89251D01*
X515661Y88084D01*
X513328D01*
X512162Y89251D01*
X505164Y88084D02*
X509829D01*
X505164Y92749D01*
Y93916D01*
X506330Y95082D01*
X508663D01*
X509829Y93916D01*
X499333Y88084D02*
Y95082D01*
X502831Y91583D01*
X498166D01*
X495834Y86918D02*
X491169D01*
X484171Y93916D02*
X485337Y95082D01*
X487670D01*
X488836Y93916D01*
Y89251D01*
X487670Y88084D01*
X485337D01*
X484171Y89251D01*
X481838Y93916D02*
X480672Y95082D01*
X478339D01*
X477173Y93916D01*
Y92749D01*
X478339Y91583D01*
X477173Y90417D01*
Y89251D01*
X478339Y88084D01*
X480672D01*
X481838Y89251D01*
Y90417D01*
X480672Y91583D01*
X481838Y92749D01*
Y93916D01*
X480672Y91583D02*
X478339D01*
X512162Y230916D02*
X513328Y232082D01*
X515661D01*
X516827Y230916D01*
Y226251D01*
X515661Y225084D01*
X513328D01*
X512162Y226251D01*
X505164Y225084D02*
X509829D01*
X505164Y229750D01*
Y230916D01*
X506330Y232082D01*
X508663D01*
X509829Y230916D01*
X499333Y225084D02*
Y232082D01*
X502831Y228583D01*
X498166D01*
X495834Y223918D02*
X491169D01*
X484171Y230916D02*
X485337Y232082D01*
X487670D01*
X488836Y230916D01*
Y226251D01*
X487670Y225084D01*
X485337D01*
X484171Y226251D01*
X481838Y232082D02*
X477173D01*
Y230916D01*
X481838Y226251D01*
Y225084D01*
X511162Y532916D02*
X512328Y534082D01*
X514661D01*
X515827Y532916D01*
Y528251D01*
X514661Y527084D01*
X512328D01*
X511162Y528251D01*
X504164Y527084D02*
X508829D01*
X504164Y531749D01*
Y532916D01*
X505330Y534082D01*
X507663D01*
X508829Y532916D01*
X498333Y527084D02*
Y534082D01*
X501832Y530583D01*
X497166D01*
X494834Y525918D02*
X490168D01*
X483171Y532916D02*
X484337Y534082D01*
X486670D01*
X487836Y532916D01*
Y528251D01*
X486670Y527084D01*
X484337D01*
X483171Y528251D01*
X476173Y534082D02*
X480838D01*
Y530583D01*
X478506Y531749D01*
X477339D01*
X476173Y530583D01*
Y528251D01*
X477339Y527084D01*
X479672D01*
X480838Y528251D01*
X705162Y75504D02*
X706328Y76670D01*
X708661D01*
X709827Y75504D01*
Y70839D01*
X708661Y69672D01*
X706328D01*
X705162Y70839D01*
X698164Y69672D02*
X702829D01*
X698164Y74338D01*
Y75504D01*
X699330Y76670D01*
X701663D01*
X702829Y75504D01*
X695832D02*
X694665Y76670D01*
X692333D01*
X691166Y75504D01*
Y74338D01*
X692333Y73171D01*
X693499D01*
X692333D01*
X691166Y72005D01*
Y70839D01*
X692333Y69672D01*
X694665D01*
X695832Y70839D01*
X688834Y68506D02*
X684168D01*
X677171Y75504D02*
X678337Y76670D01*
X680670D01*
X681836Y75504D01*
Y70839D01*
X680670Y69672D01*
X678337D01*
X677171Y70839D01*
X674838Y75504D02*
X673672Y76670D01*
X671339D01*
X670173Y75504D01*
Y74338D01*
X671339Y73171D01*
X670173Y72005D01*
Y70839D01*
X671339Y69672D01*
X673672D01*
X674838Y70839D01*
Y72005D01*
X673672Y73171D01*
X674838Y74338D01*
Y75504D01*
X673672Y73171D02*
X671339D01*
X706162Y213249D02*
X707328Y214415D01*
X709661D01*
X710827Y213249D01*
Y208583D01*
X709661Y207417D01*
X707328D01*
X706162Y208583D01*
X699164Y207417D02*
X703829D01*
X699164Y212082D01*
Y213249D01*
X700330Y214415D01*
X702663D01*
X703829Y213249D01*
X696831D02*
X695665Y214415D01*
X693333D01*
X692166Y213249D01*
Y212082D01*
X693333Y210916D01*
X694499D01*
X693333D01*
X692166Y209750D01*
Y208583D01*
X693333Y207417D01*
X695665D01*
X696831Y208583D01*
X689834Y206251D02*
X685169D01*
X678171Y213249D02*
X679337Y214415D01*
X681670D01*
X682836Y213249D01*
Y208583D01*
X681670Y207417D01*
X679337D01*
X678171Y208583D01*
X675838Y214415D02*
X671173D01*
Y213249D01*
X675838Y208583D01*
Y207417D01*
X706162Y513166D02*
X707328Y514332D01*
X709661D01*
X710827Y513166D01*
Y508501D01*
X709661Y507334D01*
X707328D01*
X706162Y508501D01*
X699164Y507334D02*
X703829D01*
X699164Y512000D01*
Y513166D01*
X700330Y514332D01*
X702663D01*
X703829Y513166D01*
X696832D02*
X695665Y514332D01*
X693333D01*
X692166Y513166D01*
Y512000D01*
X693333Y510833D01*
X694499D01*
X693333D01*
X692166Y509667D01*
Y508501D01*
X693333Y507334D01*
X695665D01*
X696832Y508501D01*
X689834Y506168D02*
X685169D01*
X678171Y513166D02*
X679337Y514332D01*
X681670D01*
X682836Y513166D01*
Y508501D01*
X681670Y507334D01*
X679337D01*
X678171Y508501D01*
X671173Y514332D02*
X675838D01*
Y510833D01*
X673506Y512000D01*
X672339D01*
X671173Y510833D01*
Y508501D01*
X672339Y507334D01*
X674672D01*
X675838Y508501D01*
X513162Y73916D02*
X514328Y75082D01*
X516661D01*
X517827Y73916D01*
Y69251D01*
X516661Y68084D01*
X514328D01*
X513162Y69251D01*
X506164Y68084D02*
X510829D01*
X506164Y72750D01*
Y73916D01*
X507330Y75082D01*
X509663D01*
X510829Y73916D01*
X499166Y68084D02*
X503831D01*
X499166Y72750D01*
Y73916D01*
X500333Y75082D01*
X502665D01*
X503831Y73916D01*
X496834Y66918D02*
X492169D01*
X485171Y73916D02*
X486337Y75082D01*
X488670D01*
X489836Y73916D01*
Y69251D01*
X488670Y68084D01*
X486337D01*
X485171Y69251D01*
X482838Y73916D02*
X481672Y75082D01*
X479339D01*
X478173Y73916D01*
Y72750D01*
X479339Y71583D01*
X478173Y70417D01*
Y69251D01*
X479339Y68084D01*
X481672D01*
X482838Y69251D01*
Y70417D01*
X481672Y71583D01*
X482838Y72750D01*
Y73916D01*
X481672Y71583D02*
X479339D01*
X513162Y207916D02*
X514328Y209082D01*
X516661D01*
X517827Y207916D01*
Y203251D01*
X516661Y202084D01*
X514328D01*
X513162Y203251D01*
X506164Y202084D02*
X510829D01*
X506164Y206749D01*
Y207916D01*
X507330Y209082D01*
X509663D01*
X510829Y207916D01*
X499166Y202084D02*
X503831D01*
X499166Y206749D01*
Y207916D01*
X500333Y209082D01*
X502665D01*
X503831Y207916D01*
X496834Y200918D02*
X492169D01*
X485171Y207916D02*
X486337Y209082D01*
X488670D01*
X489836Y207916D01*
Y203251D01*
X488670Y202084D01*
X486337D01*
X485171Y203251D01*
X482838Y209082D02*
X478173D01*
Y207916D01*
X482838Y203251D01*
Y202084D01*
X512162Y508916D02*
X513328Y510082D01*
X515661D01*
X516827Y508916D01*
Y504251D01*
X515661Y503084D01*
X513328D01*
X512162Y504251D01*
X505164Y503084D02*
X509829D01*
X505164Y507749D01*
Y508916D01*
X506330Y510082D01*
X508663D01*
X509829Y508916D01*
X498166Y503084D02*
X502831D01*
X498166Y507749D01*
Y508916D01*
X499333Y510082D01*
X501665D01*
X502831Y508916D01*
X495834Y501918D02*
X491169D01*
X484171Y508916D02*
X485337Y510082D01*
X487670D01*
X488836Y508916D01*
Y504251D01*
X487670Y503084D01*
X485337D01*
X484171Y504251D01*
X477173Y510082D02*
X481838D01*
Y506583D01*
X479506Y507749D01*
X478339D01*
X477173Y506583D01*
Y504251D01*
X478339Y503084D01*
X480672D01*
X481838Y504251D01*
X703579Y47916D02*
X704745Y49082D01*
X707077D01*
X708244Y47916D01*
Y43251D01*
X707077Y42084D01*
X704745D01*
X703579Y43251D01*
X696581Y42084D02*
X701246D01*
X696581Y46750D01*
Y47916D01*
X697747Y49082D01*
X700080D01*
X701246Y47916D01*
X694248Y42084D02*
X691916D01*
X693082D01*
Y49082D01*
X694248Y47916D01*
X688417Y40918D02*
X683752D01*
X676754Y47916D02*
X677920Y49082D01*
X680253D01*
X681419Y47916D01*
Y43251D01*
X680253Y42084D01*
X677920D01*
X676754Y43251D01*
X674421Y47916D02*
X673255Y49082D01*
X670922D01*
X669756Y47916D01*
Y46750D01*
X670922Y45583D01*
X669756Y44417D01*
Y43251D01*
X670922Y42084D01*
X673255D01*
X674421Y43251D01*
Y44417D01*
X673255Y45583D01*
X674421Y46750D01*
Y47916D01*
X673255Y45583D02*
X670922D01*
X705079Y186539D02*
X706245Y187706D01*
X708577D01*
X709744Y186539D01*
Y181874D01*
X708577Y180708D01*
X706245D01*
X705079Y181874D01*
X698081Y180708D02*
X702746D01*
X698081Y185373D01*
Y186539D01*
X699247Y187706D01*
X701580D01*
X702746Y186539D01*
X695748Y180708D02*
X693416D01*
X694582D01*
Y187706D01*
X695748Y186539D01*
X689917Y179542D02*
X685252D01*
X678254Y186539D02*
X679420Y187706D01*
X681753D01*
X682919Y186539D01*
Y181874D01*
X681753Y180708D01*
X679420D01*
X678254Y181874D01*
X675921Y187706D02*
X671256D01*
Y186539D01*
X675921Y181874D01*
Y180708D01*
X705079Y486539D02*
X706245Y487706D01*
X708577D01*
X709744Y486539D01*
Y481874D01*
X708577Y480708D01*
X706245D01*
X705079Y481874D01*
X698081Y480708D02*
X702746D01*
X698081Y485373D01*
Y486539D01*
X699247Y487706D01*
X701580D01*
X702746Y486539D01*
X695748Y480708D02*
X693416D01*
X694582D01*
Y487706D01*
X695748Y486539D01*
X689917Y479542D02*
X685252D01*
X678254Y486539D02*
X679420Y487706D01*
X681753D01*
X682919Y486539D01*
Y481874D01*
X681753Y480708D01*
X679420D01*
X678254Y481874D01*
X671256Y487706D02*
X675921D01*
Y484207D01*
X673589Y485373D01*
X672422D01*
X671256Y484207D01*
Y481874D01*
X672422Y480708D01*
X674755D01*
X675921Y481874D01*
X308017Y376133D02*
X309183Y377299D01*
X311516D01*
X312682Y376133D01*
Y371467D01*
X311516Y370301D01*
X309183D01*
X308017Y371467D01*
X301019Y370301D02*
X305684D01*
X301019Y374966D01*
Y376133D01*
X302185Y377299D01*
X304518D01*
X305684Y376133D01*
X298687D02*
X297520Y377299D01*
X295188D01*
X294021Y376133D01*
Y371467D01*
X295188Y370301D01*
X297520D01*
X298687Y371467D01*
Y376133D01*
X284082Y374333D02*
X285248Y375499D01*
X287581D01*
X288747Y374333D01*
Y369667D01*
X287581Y368501D01*
X285248D01*
X284082Y369667D01*
X281749Y368501D02*
X279417D01*
X280583D01*
Y375499D01*
X281749Y374333D01*
X275918Y369667D02*
X274752Y368501D01*
X272419D01*
X271253Y369667D01*
Y374333D01*
X272419Y375499D01*
X274752D01*
X275918Y374333D01*
Y373166D01*
X274752Y372000D01*
X271253D01*
X308082Y321333D02*
X309248Y322499D01*
X311581D01*
X312747Y321333D01*
Y316667D01*
X311581Y315501D01*
X309248D01*
X308082Y316667D01*
X305749Y315501D02*
X303417D01*
X304583D01*
Y322499D01*
X305749Y321333D01*
X296419Y315501D02*
Y322499D01*
X299918Y319000D01*
X295253D01*
X287082Y301333D02*
X288248Y302499D01*
X290581D01*
X291747Y301333D01*
Y296667D01*
X290581Y295501D01*
X288248D01*
X287082Y296667D01*
X284749Y295501D02*
X282417D01*
X283583D01*
Y302499D01*
X284749Y301333D01*
X278918D02*
X277752Y302499D01*
X275419D01*
X274253Y301333D01*
Y300166D01*
X275419Y299000D01*
X276585D01*
X275419D01*
X274253Y297834D01*
Y296667D01*
X275419Y295501D01*
X277752D01*
X278918Y296667D01*
X71082Y572333D02*
X72248Y573499D01*
X74581D01*
X75747Y572333D01*
Y567667D01*
X74581Y566501D01*
X72248D01*
X71082Y567667D01*
X68749Y566501D02*
X66417D01*
X67583D01*
Y573499D01*
X68749Y572333D01*
X62918D02*
X61752Y573499D01*
X59419D01*
X58253Y572333D01*
Y567667D01*
X59419Y566501D01*
X61752D01*
X62918Y567667D01*
Y572333D01*
X177166Y583333D02*
X178333Y584499D01*
X180665D01*
X181831Y583333D01*
Y578667D01*
X180665Y577501D01*
X178333D01*
X177166Y578667D01*
X170169Y584499D02*
X172501Y583333D01*
X174834Y581000D01*
Y578667D01*
X173667Y577501D01*
X171335D01*
X170169Y578667D01*
Y579834D01*
X171335Y581000D01*
X174834D01*
X202166Y444333D02*
X203333Y445499D01*
X205665D01*
X206831Y444333D01*
Y439667D01*
X205665Y438501D01*
X203333D01*
X202166Y439667D01*
X195168Y445499D02*
X199834D01*
Y442000D01*
X197501Y443166D01*
X196335D01*
X195168Y442000D01*
Y439667D01*
X196335Y438501D01*
X198667D01*
X199834Y439667D01*
D20*
X284000Y357408D02*
D03*
X280002Y379504D02*
D03*
X199997Y499502D02*
D03*
X66999Y558494D02*
D03*
D95*
X206000Y559000D02*
G03*
X206000Y559000I-2000J0D01*
G01*
M02*
