G04*
G04 #@! TF.GenerationSoftware,Altium Limited,Altium Designer,24.8.2 (39)*
G04*
G04 Layer_Color=16711935*
%FSLAX44Y44*%
%MOMM*%
G71*
G04*
G04 #@! TF.SameCoordinates,DE467F84-66AF-4C6A-BC95-973404F0CDF1*
G04*
G04*
G04 #@! TF.FilePolarity,Negative*
G04*
G01*
G75*
%ADD40R,0.8300X0.6300*%
%ADD42C,2.1500*%
%ADD46R,1.1500X1.1000*%
%ADD47R,1.5800X1.9100*%
G04:AMPARAMS|DCode=48|XSize=1.62mm|YSize=0.63mm|CornerRadius=0.135mm|HoleSize=0mm|Usage=FLASHONLY|Rotation=0.000|XOffset=0mm|YOffset=0mm|HoleType=Round|Shape=RoundedRectangle|*
%AMROUNDEDRECTD48*
21,1,1.6200,0.3600,0,0,0.0*
21,1,1.3500,0.6300,0,0,0.0*
1,1,0.2700,0.6750,-0.1800*
1,1,0.2700,-0.6750,-0.1800*
1,1,0.2700,-0.6750,0.1800*
1,1,0.2700,0.6750,0.1800*
%
%ADD48ROUNDEDRECTD48*%
G04:AMPARAMS|DCode=49|XSize=1.31mm|YSize=0.69mm|CornerRadius=0.1238mm|HoleSize=0mm|Usage=FLASHONLY|Rotation=0.000|XOffset=0mm|YOffset=0mm|HoleType=Round|Shape=RoundedRectangle|*
%AMROUNDEDRECTD49*
21,1,1.3100,0.4425,0,0,0.0*
21,1,1.0625,0.6900,0,0,0.0*
1,1,0.2475,0.5313,-0.2213*
1,1,0.2475,-0.5313,-0.2213*
1,1,0.2475,-0.5313,0.2213*
1,1,0.2475,0.5313,0.2213*
%
%ADD49ROUNDEDRECTD49*%
%ADD50R,1.1000X1.1500*%
%ADD53R,1.7502X1.4200*%
%ADD54R,1.3800X1.9500*%
%ADD57C,4.1500*%
%ADD58C,1.2700*%
%ADD59C,1.7500*%
%ADD60C,1.5780*%
%ADD61R,1.5780X1.5780*%
%ADD62C,3.4660*%
%ADD63R,1.5700X1.5700*%
%ADD64C,1.5700*%
%ADD65C,0.6000*%
%ADD66C,0.7500*%
%ADD67C,1.4200*%
%ADD68C,0.7000*%
%ADD89R,0.8000X0.9000*%
%ADD90R,1.0582X1.3061*%
%ADD91R,2.1000X3.1000*%
%ADD92R,2.1000X3.1000*%
%ADD93R,3.6500X3.6500*%
%ADD94O,2.3500X0.7500*%
D40*
X178000Y466850D02*
D03*
Y489150D02*
D03*
D42*
X539000Y569000D02*
D03*
X368629Y364767D02*
D03*
X460000Y505000D02*
D03*
Y373534D02*
D03*
Y225000D02*
D03*
Y87255D02*
D03*
X343000Y364000D02*
D03*
X341000Y297000D02*
D03*
X314000D02*
D03*
X538000Y252000D02*
D03*
X537779Y114255D02*
D03*
X538000Y397000D02*
D03*
X122000Y491000D02*
D03*
D46*
X582500Y487750D02*
D03*
X566500D02*
D03*
X544000Y374000D02*
D03*
X528000D02*
D03*
X566500Y405250D02*
D03*
X582500D02*
D03*
X291000Y24000D02*
D03*
X275000D02*
D03*
X697779Y59255D02*
D03*
X681779D02*
D03*
X527932Y71240D02*
D03*
X543932D02*
D03*
X683279Y85506D02*
D03*
X699279D02*
D03*
X527779Y91255D02*
D03*
X543779D02*
D03*
X566278Y50005D02*
D03*
X582279D02*
D03*
X582279Y122506D02*
D03*
X566279D02*
D03*
X622779Y31256D02*
D03*
X638778D02*
D03*
X566278Y67505D02*
D03*
X582279D02*
D03*
X582779Y31256D02*
D03*
X566779D02*
D03*
X566278Y105006D02*
D03*
X582279D02*
D03*
X566500Y260250D02*
D03*
X582500D02*
D03*
X618849Y467000D02*
D03*
X634849D02*
D03*
X544000Y229000D02*
D03*
X528000D02*
D03*
X544000Y206000D02*
D03*
X528000D02*
D03*
Y529000D02*
D03*
X544000D02*
D03*
X528000Y506000D02*
D03*
X544000D02*
D03*
X682000Y197000D02*
D03*
X698000D02*
D03*
X699500Y223250D02*
D03*
X683500D02*
D03*
X582500Y560250D02*
D03*
X566500D02*
D03*
X683500Y523250D02*
D03*
X699500D02*
D03*
X698000Y497000D02*
D03*
X682000D02*
D03*
X582500Y187750D02*
D03*
X566500D02*
D03*
X639000Y169000D02*
D03*
X623000D02*
D03*
X566500Y542750D02*
D03*
X582500D02*
D03*
Y242750D02*
D03*
X566500D02*
D03*
X567000Y169000D02*
D03*
X583000D02*
D03*
X582500Y205250D02*
D03*
X566500D02*
D03*
Y332750D02*
D03*
X582500D02*
D03*
X566500Y350250D02*
D03*
X582500D02*
D03*
X583000Y314000D02*
D03*
X567000D02*
D03*
X528000Y351000D02*
D03*
X544000D02*
D03*
X566500Y387750D02*
D03*
X582500D02*
D03*
X583000Y469000D02*
D03*
X567000D02*
D03*
X566500Y505250D02*
D03*
X582500D02*
D03*
X623000Y314000D02*
D03*
X639000D02*
D03*
X698000Y342000D02*
D03*
X682000D02*
D03*
X683500Y368250D02*
D03*
X699500D02*
D03*
X209000Y580000D02*
D03*
X193000D02*
D03*
D47*
X628628Y57088D02*
D03*
X628849Y194833D02*
D03*
Y339833D02*
D03*
Y494833D02*
D03*
D48*
X650128Y47338D02*
D03*
Y53838D02*
D03*
Y60338D02*
D03*
Y66838D02*
D03*
X607128D02*
D03*
Y60338D02*
D03*
Y53838D02*
D03*
Y47338D02*
D03*
X650349Y185083D02*
D03*
Y191583D02*
D03*
Y198083D02*
D03*
Y204583D02*
D03*
X607349D02*
D03*
Y198083D02*
D03*
Y191583D02*
D03*
Y185083D02*
D03*
X650349Y330083D02*
D03*
Y336583D02*
D03*
Y343083D02*
D03*
Y349583D02*
D03*
X607349D02*
D03*
Y343083D02*
D03*
Y336583D02*
D03*
Y330083D02*
D03*
X650349Y485083D02*
D03*
Y491583D02*
D03*
Y498083D02*
D03*
Y504583D02*
D03*
X607349D02*
D03*
Y498083D02*
D03*
Y491583D02*
D03*
Y485083D02*
D03*
D49*
X699590Y103288D02*
D03*
Y122289D02*
D03*
X674490D02*
D03*
Y112788D02*
D03*
Y103288D02*
D03*
X699811Y386033D02*
D03*
Y405033D02*
D03*
X674712D02*
D03*
Y395533D02*
D03*
Y386033D02*
D03*
Y541033D02*
D03*
Y550533D02*
D03*
Y560033D02*
D03*
X699811D02*
D03*
Y541033D02*
D03*
Y241033D02*
D03*
Y260033D02*
D03*
X674712D02*
D03*
Y250533D02*
D03*
Y241033D02*
D03*
D50*
X302000Y403800D02*
D03*
Y387800D02*
D03*
X303416Y333779D02*
D03*
Y349779D02*
D03*
X145000Y539000D02*
D03*
Y523000D02*
D03*
D53*
X651117Y105345D02*
D03*
Y125666D02*
D03*
X651338Y263410D02*
D03*
Y243090D02*
D03*
Y543090D02*
D03*
Y563410D02*
D03*
Y408410D02*
D03*
Y388090D02*
D03*
D54*
X284000Y317800D02*
D03*
Y344000D02*
D03*
X280000Y392900D02*
D03*
Y419100D02*
D03*
X200000Y459900D02*
D03*
Y486100D02*
D03*
X67000Y518900D02*
D03*
Y545100D02*
D03*
D57*
X30000Y40000D02*
D03*
X500000D02*
D03*
Y560000D02*
D03*
D58*
X449600Y571000D02*
D03*
X424200D02*
D03*
X398800D02*
D03*
X373400D02*
D03*
X348000D02*
D03*
X322600D02*
D03*
D59*
X760000Y25000D02*
D03*
Y50000D02*
D03*
Y175000D02*
D03*
Y200000D02*
D03*
Y325000D02*
D03*
Y350000D02*
D03*
Y475000D02*
D03*
Y500000D02*
D03*
Y100000D02*
D03*
Y125000D02*
D03*
Y250000D02*
D03*
Y275000D02*
D03*
Y400000D02*
D03*
Y425000D02*
D03*
Y550000D02*
D03*
Y575000D02*
D03*
D60*
X150000Y393700D02*
D03*
X130000D02*
D03*
Y368700D02*
D03*
D61*
X150000D02*
D03*
D62*
X102900Y441400D02*
D03*
Y321000D02*
D03*
D63*
X24000Y152700D02*
D03*
D64*
Y127300D02*
D03*
D65*
X229000Y492000D02*
D03*
X81000Y490000D02*
D03*
X241000Y588000D02*
D03*
X286000Y506000D02*
D03*
X285613Y523500D02*
D03*
X212000Y513000D02*
D03*
X211000Y530000D02*
D03*
X475000Y320000D02*
D03*
X182000Y495820D02*
D03*
D66*
X361055Y345420D02*
D03*
X253000Y337000D02*
D03*
X211000Y292000D02*
D03*
X344444Y455000D02*
D03*
X447000Y141000D02*
D03*
X434857Y222441D02*
D03*
X552516Y52993D02*
D03*
X460000Y105000D02*
D03*
X566279Y160000D02*
D03*
X420000Y381000D02*
D03*
X473888Y405000D02*
D03*
X475000Y463000D02*
D03*
X477000Y588000D02*
D03*
X454000Y320000D02*
D03*
X550000Y314000D02*
D03*
X368629Y345682D02*
D03*
X265000Y406452D02*
D03*
X636000Y457000D02*
D03*
X330000Y315000D02*
D03*
X277000Y36000D02*
D03*
X238286Y406000D02*
D03*
X587000Y427000D02*
D03*
X684000Y476434D02*
D03*
X713000Y484000D02*
D03*
X662579Y489216D02*
D03*
X663865Y535994D02*
D03*
X662579Y334216D02*
D03*
X719000Y329000D02*
D03*
X718000Y182000D02*
D03*
X592779Y25286D02*
D03*
X647779D02*
D03*
X695000Y15000D02*
D03*
X685000Y38689D02*
D03*
X662357Y51471D02*
D03*
X663312Y98195D02*
D03*
X662579Y189216D02*
D03*
X257000Y440367D02*
D03*
X266000D02*
D03*
X274895Y440158D02*
D03*
X247680Y439720D02*
D03*
X359444Y430000D02*
D03*
X420000Y396000D02*
D03*
Y388730D02*
D03*
Y403800D02*
D03*
X385016Y305000D02*
D03*
X339730Y345000D02*
D03*
X47571Y242500D02*
D03*
X421000Y276000D02*
D03*
X289134Y277000D02*
D03*
X639000Y159266D02*
D03*
X408224Y311876D02*
D03*
X303352Y367066D02*
D03*
X191000Y389000D02*
D03*
X202000Y345000D02*
D03*
X391000Y359000D02*
D03*
X299000Y79000D02*
D03*
X712000Y46000D02*
D03*
X578295Y137000D02*
D03*
X683500Y174000D02*
D03*
X524000Y387750D02*
D03*
X549484Y386713D02*
D03*
X578516Y278638D02*
D03*
X641000Y301000D02*
D03*
X683864Y324018D02*
D03*
X360000Y322000D02*
D03*
X380000Y469000D02*
D03*
X701934Y368250D02*
D03*
X700000Y223250D02*
D03*
X699279Y85506D02*
D03*
X514779Y103256D02*
D03*
X550279Y103969D02*
D03*
X701273Y523250D02*
D03*
X664000Y237745D02*
D03*
X663842Y380943D02*
D03*
X545684Y488882D02*
D03*
X524000Y242000D02*
D03*
X550500Y541713D02*
D03*
X595000Y555000D02*
D03*
X524000Y541713D02*
D03*
X633849Y562307D02*
D03*
X549000Y188882D02*
D03*
X550500Y241713D02*
D03*
X549000Y332000D02*
D03*
X179000Y511000D02*
D03*
X66000Y228000D02*
D03*
X133000Y267000D02*
D03*
X41000Y468000D02*
D03*
X178000Y451000D02*
D03*
X303416Y356970D02*
D03*
X327000Y334000D02*
D03*
X308000Y470000D02*
D03*
X158000Y522000D02*
D03*
X314000Y440000D02*
D03*
X302000Y441000D02*
D03*
X294000D02*
D03*
X285000D02*
D03*
X390000Y435000D02*
D03*
D67*
X193000Y269000D02*
D03*
X180000Y284000D02*
D03*
D68*
X628628Y57088D02*
D03*
X624628Y51088D02*
D03*
X632628D02*
D03*
Y63088D02*
D03*
X624628D02*
D03*
X628849Y194833D02*
D03*
X624849Y188833D02*
D03*
X632849D02*
D03*
Y200833D02*
D03*
X624849D02*
D03*
X628849Y339833D02*
D03*
X624849Y333833D02*
D03*
X632849D02*
D03*
Y345833D02*
D03*
X624849D02*
D03*
X628849Y494833D02*
D03*
X624849Y488833D02*
D03*
X632849D02*
D03*
Y500833D02*
D03*
X624849D02*
D03*
X628628Y95000D02*
D03*
X624628Y101000D02*
D03*
X632628D02*
D03*
Y89000D02*
D03*
X624628D02*
D03*
X628849Y232745D02*
D03*
X624849Y238745D02*
D03*
X632849D02*
D03*
Y226745D02*
D03*
X624849D02*
D03*
X628849Y377745D02*
D03*
X624849Y383745D02*
D03*
X632849D02*
D03*
Y371745D02*
D03*
X624849D02*
D03*
X628849Y532744D02*
D03*
X624849Y538745D02*
D03*
X632849D02*
D03*
Y526744D02*
D03*
X624849D02*
D03*
D89*
X104000Y552000D02*
D03*
X94500Y532000D02*
D03*
X113500D02*
D03*
D90*
X153000Y485761D02*
D03*
Y470239D02*
D03*
D91*
X247800Y227000D02*
D03*
D92*
X324000D02*
D03*
X298600D02*
D03*
X273200D02*
D03*
X349400D02*
D03*
X374800D02*
D03*
X400200D02*
D03*
X247800Y57000D02*
D03*
X273200D02*
D03*
X298600D02*
D03*
X349400D02*
D03*
X374800D02*
D03*
X400200D02*
D03*
X324000D02*
D03*
D93*
X330000Y121000D02*
D03*
D94*
X179000Y522950D02*
D03*
Y535650D02*
D03*
Y548350D02*
D03*
Y561050D02*
D03*
X227000Y522950D02*
D03*
Y535650D02*
D03*
Y548350D02*
D03*
Y561050D02*
D03*
M02*
