M48
;Layer_Color=9474304
;FILE_FORMAT=4:4
METRIC,LZ
;TYPE=PLATED
T01F00S00C0.2000
T02F00S00C0.3000
T03F00S00C0.3500
T04F00S00C0.6000
T05F00S00C0.7112
T06F00S00C0.9200
T07F00S00C1.0200
T08F00S00C1.2000
T09F00S00C2.3000
T10F00S00C3.0000
%
T01
X00475Y0032
X00081Y0049
X00182Y0049582
X00212Y00513
X00211Y0053
X00229Y00492
X00286Y00506
X00285613Y005235
X00241Y00588
T02
X00624628Y00051088
X00632628
X00628628Y00057088
X00632628Y00063088
X00624628
Y00089
X00632628
X00628628Y00095
X00624628Y00101
X00632628
X00632849Y00188833
X00624849
X00628849Y00194833
X00632849Y00200833
X00624849
Y00226745
X00632849
X00628849Y00232745
X00624849Y00238745
X00632849
Y00333833
X00624849
X00628849Y00339833
X00632849Y00345833
X00624849
Y00371745
X00632849
X00628849Y00377745
X00624849Y00383745
X00632849
Y00488833
X00624849
X00628849Y00494833
X00632849Y00500833
X00624849
Y00526744
X00632849
X00628849Y00532744
X00624849Y00538745
X00632849
T03
X00277Y00036
X00592779Y00025286
X00647779
X00685Y00038689
X00695Y00015
X00712Y00046
X00699279Y00085506
X00663312Y00098195
X00662357Y00051471
X00552516Y00052993
X00550279Y00103969
X00578295Y00137
X00566279Y0016
X00549Y00188882
X005505Y00241713
X00578516Y00278638
X0055Y00314
X00549Y00332
X00549484Y00386713
X00587Y00427
X00663842Y00380943
X00662579Y00334216
X00683864Y00324018
X00719Y00329
X00701934Y0036825
X00641Y00301
X00664Y00237745
X00662579Y00189216
X006835Y00174
X00718Y00182
X007Y0022325
X00639Y00159266
X00514779Y00103256
X0046Y00105
X00447Y00141
X00434857Y00222441
X00421Y00276
X00408224Y00311876
X00385016Y00305
X0036Y00322
X00361055Y0034542
X00368629Y00345682
X0033973Y00345
X00327Y00334
X0033Y00315
X00303416Y0035697
X00303352Y00367066
X00265Y00406452
X00238286Y00406
X0024768Y0043972
X00191Y00389
X00202Y00345
X00253Y00337
X00211Y00292
X00289134Y00277
X00391Y00359
X0042Y00381
Y0038873
Y00396
Y004038
X00473888Y00405
X00524Y0038775
X00454Y0032
X00524Y00242
X0039Y00435
X00359444Y0043
X00299Y00079
X00133Y00267
X00066Y00228
X00047571Y002425
X00041Y00468
X00178Y00451
X00179Y00511
X00158Y00522
X00257Y00440367
X00266
X00274895Y00440158
X00285Y00441
X00294
X00302
X00314Y0044
X00308Y0047
X00344444Y00455
X0038Y00469
X00475Y00463
X00477Y00588
X00524Y00541713
X005505
X00545684Y00488882
X00595Y00555
X00633849Y00562307
X00663865Y00535994
X00662579Y00489216
X00684Y00476434
X00713Y00484
X00701273Y0052325
X00636Y00457
T04
X00193Y00269
X0018Y00284
T05
X003226Y00571
X00348
X003734
X003988
X004242
X004496
T06
X0015Y003687
Y003937
X0013
Y003687
T07
X00024Y001273
Y001527
T08
X0076Y00025
Y0005
Y001
Y00125
Y00175
Y002
Y0025
Y00275
Y00325
Y0035
Y004
Y00425
Y00475
Y005
Y0055
Y00575
T09
X001029Y00321
Y004414
T10
X0003Y0004
X005
Y0056
M30
